<?xml version="1.0" encoding="UTF-8" standalone="no"?>
<!-- Created with Inkscape (http://www.inkscape.org/) -->

<svg
   xmlns:dc="http://purl.org/dc/elements/1.1/"
   xmlns:cc="http://creativecommons.org/ns#"
   xmlns:rdf="http://www.w3.org/1999/02/22-rdf-syntax-ns#"
   xmlns:svg="http://www.w3.org/2000/svg"
   xmlns="http://www.w3.org/2000/svg"
   xmlns:sodipodi="http://sodipodi.sourceforge.net/DTD/sodipodi-0.dtd"
   xmlns:inkscape="http://www.inkscape.org/namespaces/inkscape"
   width="150"
   height="150"
   viewBox="0 0 150 150"
   version="1.1"
   id="svg5256"
   inkscape:version="0.92.3 (2405546, 2018-03-11)"
   sodipodi:docname="2k.svg">
  <defs
     id="defs5250">
    <inkscape:perspective
       sodipodi:type="inkscape:persp3d"
       inkscape:vp_x="0 : 75 : 1"
       inkscape:vp_y="0 : 1000 : 0"
       inkscape:vp_z="150 : 75 : 1"
       inkscape:persp3d-origin="75 : 50 : 1"
       id="perspective5044" />
  </defs>
  <sodipodi:namedview
     id="base"
     pagecolor="#ffffff"
     bordercolor="#666666"
     borderopacity="1.0"
     inkscape:pageopacity="0.0"
     inkscape:pageshadow="2"
     inkscape:zoom="2.8"
     inkscape:cx="-38.211157"
     inkscape:cy="78.255887"
     inkscape:document-units="px"
     inkscape:current-layer="layer1"
     showgrid="false"
     inkscape:pagecheckerboard="true"
     units="px"
     inkscape:window-width="1920"
     inkscape:window-height="1017"
     inkscape:window-x="-8"
     inkscape:window-y="-8"
     inkscape:window-maximized="1"
     inkscape:snap-global="false">
    <sodipodi:guide
       position="135.62899,39.97733"
       orientation="35.02264,-60.62899"
       id="guide4518"
       inkscape:locked="false" />
    <sodipodi:guide
       position="75,4.95469"
       orientation="-35.02264,-60.628989"
       id="guide4520"
       inkscape:locked="false" />
    <sodipodi:guide
       position="14.371011,39.97733"
       orientation="-70.045324,0"
       id="guide4522"
       inkscape:locked="false" />
    <sodipodi:guide
       position="14.371011,110.02265"
       orientation="-35.022659,60.628989"
       id="guide4524"
       inkscape:locked="false" />
    <sodipodi:guide
       position="75,145.04531"
       orientation="35.022659,60.62899"
       id="guide4526"
       inkscape:locked="false" />
    <sodipodi:guide
       position="135.62899,110.02265"
       orientation="70.045324,0"
       id="guide4528"
       inkscape:locked="false" />
  </sodipodi:namedview>
  <metadata
     id="metadata5253">
    <rdf:RDF>
      <cc:Work
         rdf:about="">
        <dc:format>image/svg+xml</dc:format>
        <dc:type
           rdf:resource="http://purl.org/dc/dcmitype/StillImage" />
        <dc:title />
      </cc:Work>
    </rdf:RDF>
  </metadata>
  <g
     inkscape:label="Layer 1"
     inkscape:groupmode="layer"
     id="layer1">
    <path
       id="path823"
       d="M 135.99955,110.03974 75.039997,144.99948 14.000447,110.03974 V 39.96026 L 75.039997,5.0005185 135.99955,40.040259 Z"
       style="fill:#000000;fill-opacity:1;fill-rule:nonzero;stroke:none"
       inkscape:connector-curvature="0" />
    <path
       id="path5709"
       style="font-style:normal;font-variant:normal;font-weight:normal;font-stretch:normal;font-size:medium;line-height:20.10286713px;font-family:'Archivo Narrow';-inkscape-font-specification:'Archivo Narrow';text-align:start;letter-spacing:0px;word-spacing:0px;writing-mode:lr-tb;text-anchor:start;display:inline;fill:#ffffff;fill-opacity:1;stroke:none;stroke-width:0.66666675;stroke-linecap:butt;stroke-linejoin:miter;stroke-miterlimit:4;stroke-dasharray:none;stroke-opacity:1"
       d="m 91.571859,58.590416 h -3.722235 v 32.819167 h 3.722235 v -8.125358 l 2.542005,-2.769028 5.447148,10.894386 h 4.221578 L 96.383506,77.337705 103.41941,67.53282 h -4.130759 l -7.716792,11.075887 z m -16.662761,0.567399 c -4.493895,0 -8.397721,2.768938 -8.397721,9.441701 0,1.089456 0.136384,1.815732 0.136384,1.815732 h 3.858395 V 68.55413 c 0,-3.222894 1.134844,-5.946444 4.357737,-5.946444 3.313665,0 4.22153,2.496573 4.22153,4.584668 0,6.355013 -6.945128,10.848909 -10.667363,16.296133 -1.407162,2.042663 -2.178866,4.312304 -2.178866,6.763536 v 0.590116 H 83.170795 V 87.02913 H 70.823907 c 0.181546,-0.499342 0.45391,-1.04407 0.817093,-1.588752 3.495256,-5.35642 11.393635,-10.395031 11.393635,-18.202637 0,-5.719512 -3.63146,-8.079926 -8.125356,-8.079926 z M 55.20499,57.478289 h -2.224255 v 4.857033 c -3.858395,0.499341 -6.218853,2.950575 -6.218853,6.718194 0,4.44851 3.177505,5.719514 6.218853,6.763537 v 8.125389 C 51.21039,83.533738 49.984819,82.217484 49.984819,79.675434 v -0.453897 h -3.722235 c 0,0.09078 -0.04517,0.363094 -0.04517,0.998625 0,3.313711 1.906504,6.53665 6.763537,6.945174 v 5.356374 h 2.224254 v -5.356374 c 3.949214,-0.317932 6.763538,-2.587392 6.763538,-7.308311 0,-4.857064 -3.586031,-6.128067 -6.763538,-7.172092 v -7.172105 c 1.951891,0.453955 2.587393,2.088095 2.587393,3.722235 v 0.408704 h 3.676847 c 0,-0.09077 0.04516,-0.54473 0.04516,-0.862479 0,-3.313711 -2.224255,-6.173467 -6.309627,-6.491217 z m 0,19.155856 c 1.724957,0.771661 3.041346,1.7703 3.041346,3.767563 0,2.133526 -1.316389,3.313756 -3.041346,3.58612 z m -2.224255,-4.81169 c -1.452594,-0.635503 -2.496618,-1.45255 -2.496618,-3.041302 0,-1.18023 0.453954,-2.859756 2.496618,-3.268325 z"
       inkscape:connector-curvature="0" />
  </g>
</svg>
