<?xml version="1.0" encoding="UTF-8" standalone="no"?>
<!-- Created with Inkscape (http://www.inkscape.org/) -->

<svg
   xmlns:dc="http://purl.org/dc/elements/1.1/"
   xmlns:cc="http://creativecommons.org/ns#"
   xmlns:rdf="http://www.w3.org/1999/02/22-rdf-syntax-ns#"
   xmlns:svg="http://www.w3.org/2000/svg"
   xmlns="http://www.w3.org/2000/svg"
   xmlns:sodipodi="http://sodipodi.sourceforge.net/DTD/sodipodi-0.dtd"
   xmlns:inkscape="http://www.inkscape.org/namespaces/inkscape"
   width="150"
   height="150"
   viewBox="0 0 150 150"
   version="1.1"
   id="svg5256"
   inkscape:version="0.92.4 (5da689c313, 2019-01-14)"
   sodipodi:docname="art-strawberry.svg">
  <defs
     id="defs5250">
    <inkscape:perspective
       sodipodi:type="inkscape:persp3d"
       inkscape:vp_x="0 : 75 : 1"
       inkscape:vp_y="0 : 1000 : 0"
       inkscape:vp_z="150 : 75 : 1"
       inkscape:persp3d-origin="75 : 50 : 1"
       id="perspective5044" />
    <pattern
       y="0"
       x="0"
       height="6"
       width="6"
       patternUnits="userSpaceOnUse"
       id="EMFhbasepattern" />
  </defs>
  <sodipodi:namedview
     id="base"
     pagecolor="#ffffff"
     bordercolor="#666666"
     borderopacity="1.0"
     inkscape:pageopacity="0.0"
     inkscape:pageshadow="2"
     inkscape:zoom="2.8"
     inkscape:cx="-6.0683006"
     inkscape:cy="63.61303"
     inkscape:document-units="px"
     inkscape:current-layer="layer1"
     showgrid="false"
     inkscape:pagecheckerboard="true"
     units="px"
     inkscape:window-width="3840"
     inkscape:window-height="2066"
     inkscape:window-x="2869"
     inkscape:window-y="-11"
     inkscape:window-maximized="1"
     inkscape:snap-global="false">
    <sodipodi:guide
       position="135.62899,39.97733"
       orientation="35.02264,-60.62899"
       id="guide4518"
       inkscape:locked="false" />
    <sodipodi:guide
       position="75,4.95469"
       orientation="-35.02264,-60.628989"
       id="guide4520"
       inkscape:locked="false" />
    <sodipodi:guide
       position="14.371011,39.97733"
       orientation="-70.045324,0"
       id="guide4522"
       inkscape:locked="false" />
    <sodipodi:guide
       position="14.371011,110.02265"
       orientation="-35.022659,60.628989"
       id="guide4524"
       inkscape:locked="false" />
    <sodipodi:guide
       position="75,145.04531"
       orientation="35.022659,60.62899"
       id="guide4526"
       inkscape:locked="false" />
    <sodipodi:guide
       position="135.62899,110.02265"
       orientation="70.045324,0"
       id="guide4528"
       inkscape:locked="false" />
  </sodipodi:namedview>
  <metadata
     id="metadata5253">
    <rdf:RDF>
      <cc:Work
         rdf:about="">
        <dc:format>image/svg+xml</dc:format>
        <dc:type
           rdf:resource="http://purl.org/dc/dcmitype/StillImage" />
        <dc:title />
      </cc:Work>
    </rdf:RDF>
  </metadata>
  <g
     inkscape:label="Layer 1"
     inkscape:groupmode="layer"
     id="layer1">
    <path
       id="path823"
       d="M 135.99955,110.03974 75.039999,144.99948 14.000451,110.03974 V 39.960263 L 75.039999,5.000522 135.99955,40.040262 Z"
       style="fill:#000000;fill-opacity:1;fill-rule:nonzero;stroke:none"
       inkscape:connector-curvature="0" />
    <g
       id="g129"
       transform="matrix(0.17333333,0,0,0.17333328,29.809524,47.390485)"
       style="opacity:1;vector-effect:none;fill:#ffffff;fill-opacity:1;stroke:none;stroke-width:3.84615469;stroke-linecap:butt;stroke-linejoin:miter;stroke-miterlimit:4;stroke-dasharray:none;stroke-dashoffset:0;stroke-opacity:1">
      <path
         id="path8093"
         d="m 312.79645,51.706999 c -1.44037,0.0353 -2.94666,0.55399 -4.23612,1.7126 l -18.47177,22.64197 c 3.92809,1.74173 8.23918,1.76943 12.84304,1.70734 5.71661,-7.85424 12.05407,-16.43059 13.34353,-17.64172 4.56851,-4.28722 0.84388,-8.52573 -3.47868,-8.42066 z m -51.00248,13.11526 c -0.47854,0.006 -1.04208,0.0296 -1.66914,0.0764 -2.50633,0.18625 -6.04232,0.71398 -10.1428,1.49243 -8.20098,1.55595 -18.72202,4.09762 -29.04822,6.78925 -15.51413,4.04508 -27.76831,7.61116 -34.31686,9.54009 0.99002,0.66957 2.11329,1.29902 3.54172,1.84823 3.87937,1.49339 9.33522,2.34396 15.82694,2.39744 12.98535,0.10794 30.04445,-2.88457 47.69669,-8.20145 l 4.11673,7.30886 c -9.86581,8.88295 -12.2623,16.037081 -12.28952,21.018221 -0.0272,4.98114 2.8306,8.4197 3.48488,8.89489 5.02508,3.65586 11.90794,3.39892 20.42602,-0.0525 8.51857,-3.45289 18.01282,-10.06831 26.48649,-17.555781 l 4.40327,-3.88987 2.375,5.37419 c 6.14356,13.907071 12.07938,26.516571 19.33714,34.676951 6.23717,7.01228 12.97436,10.93319 22.76997,10.62611 -4.20555,-13.12194 -6.67463,-22.73129 -10.24883,-30.66673 -4.04365,-8.97656 -9.57066,-16.457341 -21.89409,-26.682291 -1.53876,-1.27609 -4.53699,-1.52204 -9.29845,-1.4547 -4.7605,0.0678 -10.87732,0.27461 -17.08297,-2.58848 -6.78639,-3.13004 -10.37777,-6.33937 -13.20169,-9.42069 -2.73987,-2.98964 -4.83644,-5.68557 -9.85244,-9.43122 -0.0736,-0.0272 -0.0955,-0.0525 -0.26458,-0.0669 -0.28511,-0.0248 -0.67816,-0.0368 -1.15574,-0.031 z m -19.43075,25.90192 c -9.22585,2.2088 -18.10499,3.72988 -26.25725,4.41951 -0.0764,0.46993 -0.17431,0.94751 -0.30421,1.42986 -1.14333,4.248061 -3.9916,7.175141 -6.36135,6.538051 -2.12665,-0.57309 -3.14007,-3.822541 -2.50107,-7.552901 -0.34147,0 -0.68628,0.005 -1.02393,0 -4.54559,-0.0382 -8.76356,-0.40117 -12.59708,-1.18201 -1.91986,2.28378 -3.71938,4.71704 -5.3632,7.321281 -3.44334,5.45585 -4.27672,12.6391 -5.74384,19.74881 0.245,-0.074 0.48713,-0.11701 0.72449,-0.12895 0.26124,-0.01 0.51578,0.0191 0.7603,0.085 2.36975,0.63805 3.36406,4.59908 2.22074,8.84714 -1.1161,4.13726 -3.8574,7.03807 -6.20469,6.56479 -2.62477,21.01583 -2.77951,44.47686 -2.89795,66.28308 -0.13993,25.91816 -2.26611,47.53669 12.87551,61.66298 40.92463,11.50008 93.71803,-26.37473 125.11928,-58.3634 -1.13855,0.36153 -2.15484,0.28512 -2.91132,-0.21873 -2.04117,-1.36348 -1.71451,-5.43484 0.72831,-9.09309 1.82435,-2.73174 4.39849,-4.55896 6.48073,-4.60003 0.62563,-0.0124 1.18153,0.1385 1.63953,0.44415 1.52682,1.02393 1.76704,3.62959 0.60652,6.55333 11.20399,-12.29764 18.62316,-23.01832 20.12897,-28.64514 0.97665,-5.97451 1.15096,-11.69876 0.69535,-17.16512 -0.59697,-0.0334 -1.19012,-0.075 -1.77516,-0.13515 -0.0965,1.45422 -0.54539,3.09852 -1.36682,4.7199 -1.9896,3.92378 -5.37658,6.20518 -7.5658,5.09576 -2.18874,-1.11037 -2.35064,-5.19032 -0.362,-9.1141 0.44414,-0.87683 0.96471,-1.67439 1.52825,-2.37595 -4.20412,-1.40743 -8.01233,-3.55796 -11.43036,-6.28159 0.57883,1.89599 -0.0697,4.79202 -1.85921,7.47076 -2.44281,3.65825 -6.07814,5.51841 -8.11883,4.15493 -2.04165,-1.36301 -1.71546,-5.43389 0.72831,-9.09214 1.82435,-2.7327 4.39849,-4.55943 6.48073,-4.60051 0.13086,-0.005 0.25694,0.006 0.38207,0.0172 -1.11945,-1.03396 -2.19352,-2.13 -3.21888,-3.28335 -6.12972,-6.89146 -10.94036,-15.68367 -15.44488,-25.22807 -1.30856,1.76226 -2.93376,2.70882 -4.38273,2.31864 -1.74412,-0.46898 -2.73939,-2.73986 -2.6902,-5.59817 -6.59392,5.02508 -13.51738,9.3548 -20.43319,12.15771 -0.005,0 -0.01,0.005 -0.0143,0.005 -1.19395,4.08664 -3.95817,6.86614 -6.27251,6.24386 -1.31143,-0.35341 -2.1983,-1.72692 -2.53833,-3.60094 -7.10732,1.35155 -14.08092,0.61226 -19.88636,-3.61049 -3.35451,-2.44042 -6.4688,-7.17896 -6.95163,-13.92952 -1.35298,2.0383 -3.12145,3.17589 -4.68504,2.75562 -2.3707,-0.63756 -3.36549,-4.59907 -2.22217,-8.84761 1.00769,-3.744211 3.37313,-6.539481 5.60295,-6.621621 0.26123,-0.01 0.51578,0.0181 0.7603,0.0841 0.90167,0.24261 1.60275,0.96853 2.06409,2.00583 0.8754,-2.46287 2.13669,-5.02651 3.85788,-7.66131 z m -24.68411,16.194671 c 0.26124,-0.01 0.51579,0.0191 0.75935,0.085 2.37022,0.63805 3.36454,4.59908 2.22074,8.84714 -1.14284,4.24758 -3.99112,7.17465 -6.36134,6.53709 -2.36974,-0.63805 -3.36406,-4.59908 -2.22074,-8.84714 1.00769,-3.74421 3.37266,-6.53995 5.60199,-6.62257 z m -16.90531,2.05741 c 0.26076,-0.01 0.51483,0.0191 0.75935,0.085 2.37022,0.63757 3.36502,4.59908 2.2217,8.84761 -1.14333,4.24806 -3.99113,7.17514 -6.36135,6.53805 -2.37022,-0.63805 -3.36501,-4.59908 -2.22169,-8.84762 1.00769,-3.74421 3.3717,-6.54043 5.60199,-6.62305 z m 89.84201,6.65266 c 0.26028,-0.01 0.51435,0.0191 0.75935,0.0841 2.36879,0.63804 3.36358,4.59908 2.22074,8.84713 -1.14332,4.24854 -3.9916,7.17562 -6.36134,6.53805 -2.37022,-0.63852 -3.36454,-4.59908 -2.22074,-8.84761 1.00769,-3.74422 3.3717,-6.53948 5.60199,-6.6221 z m -64.51269,9.0119 c 0.26075,-0.01 0.51483,0.0191 0.75935,0.0845 2.37069,0.63804 3.36549,4.59907 2.22169,8.84856 -1.1438,4.24902 -3.99255,7.17562 -6.36277,6.53709 -2.36975,-0.63852 -3.36407,-4.59907 -2.22074,-8.84761 1.00769,-3.74421 3.37265,-6.539 5.60199,-6.62162 z m 21.12519,4.45915 c 0.26171,-0.01 0.51578,0.0191 0.75935,0.086 2.37118,0.63708 3.36597,4.59812 2.22265,8.84665 -1.1438,4.24902 -3.99256,7.17562 -6.36278,6.53709 -2.36878,-0.63852 -3.36358,-4.59907 -2.22073,-8.84761 1.00769,-3.74421 3.37313,-6.539 5.60199,-6.62162 z m 32.16823,4.65305 c 0.26076,-0.01 0.51483,0.0191 0.75935,0.0841 2.37022,0.63709 3.36502,4.59812 2.2217,8.84714 -1.1438,4.24901 -3.99256,7.17608 -6.36278,6.53804 -2.36974,-0.639 -3.36406,-4.59908 -2.22074,-8.84761 1.00769,-3.74422 3.37171,-6.53996 5.602,-6.62258 z m 18.80847,0.85008 c 0.26123,-0.01 0.51578,0.0191 0.7603,0.0845 2.36974,0.63852 3.36406,4.59907 2.22074,8.84761 -1.14332,4.24806 -3.99112,7.17513 -6.36134,6.53804 -2.3707,-0.63804 -3.3655,-4.59907 -2.22217,-8.84761 1.00769,-3.74421 3.3717,-6.53995 5.60199,-6.62258 z m -94.3962,1.42319 c 0.26076,-0.01 0.51579,0.0181 0.75935,0.084 2.3707,0.63757 3.36502,4.59908 2.22169,8.84761 -1.14379,4.24806 -3.99159,7.17466 -6.36134,6.5371 -2.37069,-0.63757 -3.36549,-4.59908 -2.22217,-8.84762 1.00769,-3.74421 3.37266,-6.539 5.60199,-6.62162 z m 57.87054,9.0119 c 0.26076,-0.01 0.51578,0.0191 0.75935,0.086 2.37022,0.63757 3.36454,4.59908 2.22074,8.84666 -1.14237,4.24854 -3.99065,7.17561 -6.36134,6.53805 -2.36975,-0.63757 -3.36454,-4.59908 -2.22074,-8.84762 1.00673,-3.74421 3.3717,-6.53948 5.60199,-6.6221 z m -75.42201,7.11591 c 0.26075,-0.01 0.51483,0.0191 0.75935,0.0845 2.37022,0.63757 3.36501,4.59908 2.22169,8.84762 -1.14332,4.24806 -3.9916,7.17513 -6.36134,6.53804 -2.3707,-0.63804 -3.3655,-4.59907 -2.22217,-8.84761 1.00769,-3.74421 3.37265,-6.53996 5.60199,-6.62258 z m 100.17011,2.83204 c 0.26076,-0.01 0.51483,0.0191 0.75935,0.0845 2.37022,0.63757 3.36502,4.59908 2.22169,8.84714 -1.14332,4.24901 -3.99255,7.17657 -6.36229,6.53804 -2.37022,-0.63852 -3.36454,-4.59907 -2.22074,-8.84713 1.00769,-3.74421 3.3717,-6.53948 5.60199,-6.6221 z m -51.73366,1.29233 c 2.45141,0.12703 4.25331,3.79197 4.02408,8.18664 -0.22829,4.39372 -2.40127,7.85234 -4.8522,7.72435 -2.45188,-0.12751 -4.25379,-3.79292 -4.02455,-8.18712 0.22924,-4.39372 2.40222,-7.85234 4.85315,-7.72435 z m -21.81577,5.32882 c 0.26171,-0.01 0.51579,0.0191 0.76078,0.0845 2.36975,0.63852 3.36406,4.59907 2.22074,8.84761 -1.14332,4.24854 -3.9916,7.17561 -6.36134,6.53805 -2.3707,-0.63709 -3.36597,-4.59908 -2.22217,-8.8481 1.00769,-3.74421 3.37266,-6.53947 5.60199,-6.62162 z m 94.15454,3.37647 c 0.62563,-0.0124 1.18201,0.1385 1.64048,0.44415 2.04117,1.36301 1.71451,5.43484 -0.72974,9.09309 -2.44329,3.65825 -6.07861,5.51889 -8.11978,4.15588 -2.04117,-1.36348 -1.71451,-5.43483 0.72878,-9.09308 1.82435,-2.73175 4.3985,-4.55897 6.48074,-4.60004 z m 22.8311,3.18449 c 0.48618,0.0205 0.92651,0.14901 1.30618,0.38207 2.09418,1.27991 1.93228,5.36033 -0.362,9.11458 -2.29381,3.75472 -5.85177,5.76054 -7.94595,4.47968 -2.09466,-1.27991 -1.93276,-5.36034 0.36105,-9.1141 1.71355,-2.80339 4.21128,-4.7328 6.2897,-4.85793 0.1194,-0.008 0.2364,-0.009 0.35102,-0.005 z m -76.41012,2.43756 c 0.26076,-0.01 0.51483,0.0191 0.75935,0.0845 2.37022,0.63757 3.36502,4.59908 2.2217,8.84762 -1.14333,4.24853 -3.99256,7.17609 -6.3623,6.53804 -2.37022,-0.639 -3.36454,-4.59907 -2.22074,-8.84761 1.00769,-3.74421 3.3717,-6.53948 5.60199,-6.6221 z m 23.21985,4.78772 c 0.62563,-0.0124 1.18105,0.1385 1.63905,0.44415 2.04117,1.36397 1.71546,5.43484 -0.7283,9.09309 -2.44377,3.65921 -6.07957,5.51985 -8.12074,4.15684 -2.04117,-1.36396 -1.71451,-5.43579 0.72926,-9.09404 1.82435,-2.73175 4.39849,-4.55896 6.48073,-4.60051 z m -87.89158,4.93434 c 0.26124,-0.01 0.51579,0.0181 0.75935,0.0841 2.3707,0.63709 3.3655,4.59907 2.22217,8.84713 -1.14332,4.24902 -3.99255,7.17609 -6.36229,6.53805 -2.36974,-0.63852 -3.36406,-4.59908 -2.22074,-8.84762 1.00769,-3.74421 3.37266,-6.53947 5.60199,-6.62162 z m 105.40438,4.55132 c 0.62562,-0.0129 1.18152,0.13755 1.63952,0.44415 2.04069,1.36301 1.71451,5.43484 -0.72974,9.09309 -2.44377,3.65825 -6.07861,5.51841 -8.11978,4.15493 -2.04117,-1.36253 -1.71451,-5.43341 0.7283,-9.09213 1.82531,-2.73318 4.3985,-4.55992 6.48074,-4.60099 z m -62.6277,0.47901 c 0.26028,-0.01 0.51435,0.0191 0.75935,0.085 2.36974,0.63757 3.36454,4.59908 2.22074,8.84714 -1.14284,4.24901 -3.9916,7.17609 -6.36134,6.53804 -2.37022,-0.63852 -3.36454,-4.59907 -2.22074,-8.84761 1.00673,-3.74421 3.3717,-6.53996 5.60199,-6.62258 z m -25.08622,2.82249 c 0.26075,-0.01 0.51482,0.0191 0.75934,0.085 2.37023,0.63757 3.36502,4.59908 2.2217,8.84714 -1.1438,4.24901 -3.99256,7.17561 -6.3623,6.53709 -2.37022,-0.63805 -3.36454,-4.59908 -2.22074,-8.84714 1.00769,-3.74421 3.37171,-6.539 5.602,-6.62162 z m 56.95597,7.99657 c 0.62563,-0.0119 1.18153,0.1385 1.63953,0.4451 2.04117,1.36301 1.7145,5.43389 -0.72831,9.09309 -2.44425,3.65825 -6.07957,5.51889 -8.12074,4.15493 -2.04069,-1.36348 -1.71451,-5.43484 0.72926,-9.09309 1.82435,-2.73174 4.3985,-4.55848 6.47978,-4.60003 z m 14.4305,10.76127 c 0.62563,-0.0124 1.18201,0.1385 1.64001,0.44415 2.04069,1.36396 1.7145,5.43484 -0.72974,9.09309 -2.44329,3.65824 -6.07814,5.51841 -8.11883,4.15588 -2.0426,-1.36301 -1.71642,-5.43484 0.72783,-9.09404 1.8253,-2.73175 4.39849,-4.55849 6.48073,-4.59908 z m 19.21154,0.71159 c 0.62563,-0.0129 1.18153,0.1385 1.63953,0.44415 2.04069,1.36396 1.7145,5.43484 -0.72927,9.09309 -2.44329,3.65825 -6.07813,5.51841 -8.11882,4.15493 -2.04165,-1.36301 -1.71547,-5.43389 0.72782,-9.09214 1.82531,-2.73318 4.3985,-4.55991 6.48074,-4.60098 z m -62.20169,0.19246 c 0.26171,-0.01 0.51578,0.0191 0.7603,0.085 2.37022,0.63805 3.36454,4.59908 2.22074,8.84714 -1.14285,4.24806 -3.99112,7.17466 -6.36134,6.53709 -2.37022,-0.63709 -3.36502,-4.59812 -2.2217,-8.84714 1.00769,-3.74421 3.37266,-6.539 5.602,-6.62162 z m -45.29018,5.97737 c 0.26076,-0.01 0.51483,0.0181 0.75935,0.0836 2.3707,0.63804 3.3655,4.60003 2.2217,8.84952 -1.14428,4.24806 -3.99256,7.17514 -6.36278,6.53614 -2.37022,-0.63805 -3.36453,-4.59908 -2.22073,-8.84714 1.00769,-3.74326 3.3717,-6.539 5.60199,-6.62114 z m 22.74467,4.9735 c 0.26123,-0.01 0.51578,0.0191 0.75934,0.0845 2.3707,0.63853 3.36502,4.59908 2.2217,8.84762 -1.14332,4.24805 -3.9916,7.17513 -6.36134,6.53804 -2.37118,-0.63756 -3.36597,-4.59908 -2.22217,-8.84857 1.00769,-3.74421 3.37313,-6.53947 5.60294,-6.62162 z m 35.77442,9.25547 c 0.62563,-0.0119 1.18153,0.13849 1.63953,0.4451 2.04117,1.36349 1.71546,5.43484 -0.72831,9.09309 -2.44377,3.65825 -6.07957,5.51889 -8.12074,4.15493 -2.04069,-1.36349 -1.7145,-5.43484 0.72926,-9.09309 1.82531,-2.73175 4.3985,-4.55801 6.48074,-4.59908 z m 19.64423,3.11763 c 0.62562,-0.0124 1.18153,0.1385 1.63952,0.44415 2.04213,1.36253 1.71594,5.43483 -0.7283,9.09308 -2.44329,3.65921 -6.07957,5.51985 -8.12027,4.15589 -2.04117,-1.36301 -1.7145,-5.43389 0.72831,-9.09309 1.8253,-2.73175 4.3985,-4.55896 6.48074,-4.60003 z m -71.99683,13.01209 c 0.26028,-0.01 0.51436,0.0181 0.75935,0.0841 2.36975,0.63756 3.36454,4.59907 2.22074,8.84713 -1.14284,4.24854 -3.99064,7.17561 -6.36134,6.53805 -2.37022,-0.63757 -3.36502,-4.59908 -2.22169,-8.84762 1.00769,-3.74421 3.37265,-6.53947 5.60199,-6.62209 z m 29.78082,4.66021 c 0.62563,-0.0124 1.18201,0.1385 1.64001,0.44415 2.04117,1.36301 1.7145,5.43388 -0.72879,9.09309 -2.44329,3.65825 -6.07957,5.51937 -8.12074,4.15588 -2.04116,-1.36348 -1.7145,-5.43484 0.72974,-9.09309 1.82435,-2.73174 4.3985,-4.55896 6.47978,-4.60003 z"
         inkscape:connector-curvature="0"
         style="vector-effect:none;fill:#ffffff;fill-opacity:1;stroke:none;stroke-width:3.84615469;stroke-linecap:butt;stroke-linejoin:miter;stroke-miterlimit:4;stroke-dasharray:none;stroke-dashoffset:0;stroke-opacity:1" />
      <path
         id="rect4852"
         d="m 75.884206,-28.214341 c -1.4793,0 -2.66992,1.19062 -2.66992,2.66992 V 344.11577 c 0,1.4793 1.19062,2.67 2.66992,2.67 H 445.54437 c 1.4793,0 2.66992,-1.1907 2.66992,-2.67 V -25.544421 c 0,-1.4793 -1.19062,-2.66992 -2.66992,-2.66992 z m 60.742194,61.61914 h 248.17578 c 0.99315,0 1.79297,0.79982 1.79297,1.79297 V 283.37355 c 0,0.9931 -0.79982,1.793 -1.79297,1.793 H 136.6264 c -0.99315,0 -1.79297,-0.7999 -1.79297,-1.793 V 35.197769 c 0,-0.99315 0.79982,-1.79297 1.79297,-1.79297 z"
         style="opacity:1;vector-effect:none;fill:#ffffff;fill-opacity:1;stroke:none;stroke-width:3.84615469;stroke-linecap:butt;stroke-linejoin:miter;stroke-miterlimit:4;stroke-dasharray:none;stroke-dashoffset:0;stroke-opacity:1"
         inkscape:connector-curvature="0" />
    </g>
  </g>
</svg>
