<?xml version="1.0" encoding="UTF-8" standalone="no"?>
<!-- Created with Inkscape (http://www.inkscape.org/) -->

<svg
   xmlns:dc="http://purl.org/dc/elements/1.1/"
   xmlns:cc="http://creativecommons.org/ns#"
   xmlns:rdf="http://www.w3.org/1999/02/22-rdf-syntax-ns#"
   xmlns:svg="http://www.w3.org/2000/svg"
   xmlns="http://www.w3.org/2000/svg"
   xmlns:sodipodi="http://sodipodi.sourceforge.net/DTD/sodipodi-0.dtd"
   xmlns:inkscape="http://www.inkscape.org/namespaces/inkscape"
   width="150"
   height="150"
   viewBox="0 0 150 150"
   version="1.1"
   id="svg5256"
   inkscape:version="0.92.4 (5da689c313, 2019-01-14)"
   sodipodi:docname="art-apple.svg">
  <defs
     id="defs5250">
    <inkscape:perspective
       sodipodi:type="inkscape:persp3d"
       inkscape:vp_x="0 : 75 : 1"
       inkscape:vp_y="0 : 1000 : 0"
       inkscape:vp_z="150 : 75 : 1"
       inkscape:persp3d-origin="75 : 50 : 1"
       id="perspective5044" />
    <pattern
       y="0"
       x="0"
       height="6"
       width="6"
       patternUnits="userSpaceOnUse"
       id="EMFhbasepattern" />
  </defs>
  <sodipodi:namedview
     id="base"
     pagecolor="#ffffff"
     bordercolor="#666666"
     borderopacity="1.0"
     inkscape:pageopacity="0.0"
     inkscape:pageshadow="2"
     inkscape:zoom="2.8"
     inkscape:cx="100.04391"
     inkscape:cy="7.1452658"
     inkscape:document-units="px"
     inkscape:current-layer="layer1"
     showgrid="false"
     inkscape:pagecheckerboard="true"
     units="px"
     inkscape:window-width="3840"
     inkscape:window-height="2066"
     inkscape:window-x="2869"
     inkscape:window-y="-11"
     inkscape:window-maximized="1"
     inkscape:snap-global="false">
    <sodipodi:guide
       position="135.62899,39.97733"
       orientation="35.02264,-60.62899"
       id="guide4518"
       inkscape:locked="false" />
    <sodipodi:guide
       position="75,4.95469"
       orientation="-35.02264,-60.628989"
       id="guide4520"
       inkscape:locked="false" />
    <sodipodi:guide
       position="14.371011,39.97733"
       orientation="-70.045324,0"
       id="guide4522"
       inkscape:locked="false" />
    <sodipodi:guide
       position="14.371011,110.02265"
       orientation="-35.022659,60.628989"
       id="guide4524"
       inkscape:locked="false" />
    <sodipodi:guide
       position="75,145.04531"
       orientation="35.022659,60.62899"
       id="guide4526"
       inkscape:locked="false" />
    <sodipodi:guide
       position="135.62899,110.02265"
       orientation="70.045324,0"
       id="guide4528"
       inkscape:locked="false" />
  </sodipodi:namedview>
  <metadata
     id="metadata5253">
    <rdf:RDF>
      <cc:Work
         rdf:about="">
        <dc:format>image/svg+xml</dc:format>
        <dc:type
           rdf:resource="http://purl.org/dc/dcmitype/StillImage" />
        <dc:title />
      </cc:Work>
    </rdf:RDF>
  </metadata>
  <g
     inkscape:label="Layer 1"
     inkscape:groupmode="layer"
     id="layer1">
    <path
       id="path823"
       d="M 135.99955,110.03974 75.039999,144.99948 14.000451,110.03974 V 39.960263 L 75.039999,5.000522 135.99955,40.040262 Z"
       style="fill:#000000;fill-opacity:1;fill-rule:nonzero;stroke:none"
       inkscape:connector-curvature="0" />
    <g
       id="g27"
       style="opacity:1;vector-effect:none;fill:#ffffff;fill-opacity:1;stroke:none;stroke-width:0.66666669;stroke-linecap:butt;stroke-linejoin:miter;stroke-miterlimit:4;stroke-dasharray:none;stroke-dashoffset:0;stroke-opacity:1"
       transform="translate(-27.055141,-130.38031)">
      <path
         id="path5701"
         d="m 102.9518,187.51431 c -0.95457,4.1469 -1.19232,7.22104 -0.99739,11.25534 l 1.34924,0.002 c 0.23739,-3.55839 1.33109,-6.35554 3.29001,-9.53855 -0.34855,-0.65507 -0.96569,-1.07262 -1.70783,-1.34686 -0.63887,-0.23617 -1.34974,-0.34211 -1.93403,-0.37209 z m 7.0822,6.75273 c -0.65028,0.01 -1.32077,0.0863 -2.00812,0.23759 -0.98685,0.21702 -1.94902,0.57031 -2.86659,1.04423 -0.28006,1.04815 -0.45512,2.14036 -0.53115,3.34171 0.0896,-0.0155 0.18002,-0.031 0.26895,-0.0493 1.79045,-0.36828 3.10455,-1.23672 3.75403,-2.31292 -0.0214,1.43029 -1.80157,2.953 -4.07433,3.58377 -0.18108,0.0502 -0.36475,0.0961 -0.55151,0.1344 -3.17641,0.65365 -6.11543,-0.59634 -7.160509,-2.53475 -0.313123,-0.58069 -0.371214,-1.17876 -0.221898,-1.74584 0.70528,1.2895 2.19695,2.26156 3.962447,2.73648 -0.0536,-1.16513 -0.0699,-2.2602 -0.0448,-3.32815 -0.789195,-0.34984 -1.605063,-0.61305 -2.43628,-0.77994 -0.801814,-0.16108 -1.580961,-0.24485 -2.301731,-0.21975 -5.146299,0.17902 -9.535682,4.65344 -9.451053,11.09398 0.09711,7.39926 5.556312,14.51086 11.87829,15.78027 0.80167,0.16109 1.788234,0.24528 2.669364,0.16366 0.88092,-0.0816 1.63338,-0.34152 2.03716,-0.72836 l 0.42816,-0.41023 0.45935,0.37651 c 0.3857,0.31744 1.18637,0.57734 2.0888,0.66125 0.90244,0.0839 1.90154,0.0141 2.67826,-0.15692 6.27772,-1.38108 10.97628,-8.54023 10.87868,-15.97299 -0.0486,-3.70174 -1.38804,-6.71326 -3.45827,-8.62199 -1.55249,-1.43149 -3.5109,-2.25969 -5.7194,-2.29267 -0.0921,-0.002 -0.18503,-0.002 -0.27791,0 z m 3.57917,2.94941 c 3.85057,2.32927 5.40449,8.26411 2.66018,14.38858 -2.18597,4.87807 -6.68272,8.69628 -10.10104,8.51655 7.94899,-4.76547 11.31172,-14.5835 7.44094,-22.9052 z"
         inkscape:connector-curvature="0"
         style="vector-effect:none;fill:#ffffff;fill-opacity:1;stroke:none;stroke-width:0.66666669;stroke-linecap:butt;stroke-linejoin:miter;stroke-miterlimit:4;stroke-dasharray:none;stroke-dashoffset:0;stroke-opacity:1" />
      <path
         id="rect4852"
         d="m 70.017929,172.88031 c -0.256412,0 -0.462786,0.20637 -0.462786,0.46279 v 64.07441 c 0,0.25641 0.206374,0.4628 0.462786,0.4628 h 64.074431 c 0.25641,0 0.46278,-0.20639 0.46278,-0.4628 V 173.3431 c 0,-0.25642 -0.20637,-0.46279 -0.46278,-0.46279 z m 10.528646,10.68065 h 43.017135 c 0.17215,0 0.31078,0.13863 0.31078,0.31078 v 43.01713 c 0,0.17214 -0.13863,0.31079 -0.31078,0.31079 H 80.546575 c -0.172146,0 -0.310781,-0.13865 -0.310781,-0.31079 v -43.01713 c 0,-0.17215 0.138635,-0.31078 0.310781,-0.31078 z"
         style="opacity:1;vector-effect:none;fill:#ffffff;fill-opacity:1;stroke:none;stroke-width:0.66666669;stroke-linecap:butt;stroke-linejoin:miter;stroke-miterlimit:4;stroke-dasharray:none;stroke-dashoffset:0;stroke-opacity:1"
         inkscape:connector-curvature="0" />
    </g>
  </g>
</svg>
