<?xml version="1.0" encoding="UTF-8" standalone="no"?>
<!-- Created with Inkscape (http://www.inkscape.org/) -->

<svg
   xmlns:dc="http://purl.org/dc/elements/1.1/"
   xmlns:cc="http://creativecommons.org/ns#"
   xmlns:rdf="http://www.w3.org/1999/02/22-rdf-syntax-ns#"
   xmlns:svg="http://www.w3.org/2000/svg"
   xmlns="http://www.w3.org/2000/svg"
   xmlns:sodipodi="http://sodipodi.sourceforge.net/DTD/sodipodi-0.dtd"
   xmlns:inkscape="http://www.inkscape.org/namespaces/inkscape"
   width="150"
   height="150"
   viewBox="0 0 150 150"
   version="1.1"
   id="svg5256"
   inkscape:version="0.92.3 (2405546, 2018-03-11)"
   sodipodi:docname="entrance-right.svg">
  <defs
     id="defs5250">
    <inkscape:perspective
       sodipodi:type="inkscape:persp3d"
       inkscape:vp_x="0 : 75 : 1"
       inkscape:vp_y="0 : 1000 : 0"
       inkscape:vp_z="150 : 75 : 1"
       inkscape:persp3d-origin="75 : 50 : 1"
       id="perspective5044" />
    <pattern
       y="0"
       x="0"
       height="6"
       width="6"
       patternUnits="userSpaceOnUse"
       id="EMFhbasepattern" />
  </defs>
  <sodipodi:namedview
     id="base"
     pagecolor="#ffffff"
     bordercolor="#666666"
     borderopacity="1.0"
     inkscape:pageopacity="0.0"
     inkscape:pageshadow="2"
     inkscape:zoom="2.8"
     inkscape:cx="91.610271"
     inkscape:cy="58.970173"
     inkscape:document-units="px"
     inkscape:current-layer="layer1"
     showgrid="false"
     inkscape:pagecheckerboard="true"
     units="px"
     inkscape:window-width="1920"
     inkscape:window-height="1137"
     inkscape:window-x="1912"
     inkscape:window-y="-8"
     inkscape:window-maximized="1"
     inkscape:snap-global="false">
    <sodipodi:guide
       position="135.62899,39.97733"
       orientation="35.02264,-60.62899"
       id="guide4518"
       inkscape:locked="false" />
    <sodipodi:guide
       position="75,4.95469"
       orientation="-35.02264,-60.628989"
       id="guide4520"
       inkscape:locked="false" />
    <sodipodi:guide
       position="14.371011,39.97733"
       orientation="-70.045324,0"
       id="guide4522"
       inkscape:locked="false" />
    <sodipodi:guide
       position="14.371011,110.02265"
       orientation="-35.022659,60.628989"
       id="guide4524"
       inkscape:locked="false" />
    <sodipodi:guide
       position="75,145.04531"
       orientation="35.022659,60.62899"
       id="guide4526"
       inkscape:locked="false" />
    <sodipodi:guide
       position="135.62899,110.02265"
       orientation="70.045324,0"
       id="guide4528"
       inkscape:locked="false" />
  </sodipodi:namedview>
  <metadata
     id="metadata5253">
    <rdf:RDF>
      <cc:Work
         rdf:about="">
        <dc:format>image/svg+xml</dc:format>
        <dc:type
           rdf:resource="http://purl.org/dc/dcmitype/StillImage" />
        <dc:title />
      </cc:Work>
    </rdf:RDF>
  </metadata>
  <g
     inkscape:label="Layer 1"
     inkscape:groupmode="layer"
     id="layer1">
    <g
       id="g829"
       transform="translate(14.642857)">
      <path
         inkscape:connector-curvature="0"
         style="fill:#000000;fill-opacity:1;fill-rule:nonzero;stroke:none"
         d="m 59.51035,95.08891 0.03528,-43.58079 c 0.02298,-5.15976 4.179308,-9.31875 9.339065,-9.29578 l 42.509435,-0.029 c 5.19973,-0.0463 9.35874,4.11002 9.40504,9.30977 l -0.0353,43.58079 c -0.023,5.15976 -4.17931,9.31875 -9.33906,9.29578 l -42.509425,0.029 c -5.159758,-0.023 -9.318753,-4.1793 -9.405059,-9.30978 z"
         id="path825" />
      <path
         inkscape:connector-curvature="0"
         style="fill:#ffffff;fill-opacity:1;fill-rule:nonzero;stroke:none"
         d="m 64.747644,77.69771 50.249056,0.005 -4.66156,-16.08577 -40.891632,-0.0531 z m 2.918852,-18.1755 0.247846,0.0507 3.334131,-0.0149 -0.03138,-1.86563 -3.512695,0.004 z m 0.06789,29.32219 12.939399,-0.0119 -0.0207,-2.04418 -11.004483,0.0205 0.03159,-7.09467 -1.97491,0.0607 z m 5.448992,-29.27777 1.756357,-0.002 0.0379,-1.82563 -1.75635,0.002 z m 3.800537,-0.0228 26.057345,-0.013 -0.0714,-1.79635 -26.057325,0.013 z m 3.20125,32.05499 6.41026,6.65698 6.41985,-6.63954 -3.86981,-0.0172 0.009,-10.8952 -5.09048,0.017 -0.009,10.8952 z m 7.04149,-16.99618 c 0.0429,-0.71425 1.22641,-1.32419 2.62562,-1.34773 1.4685,0.0165 2.68629,0.62718 2.7127,1.38143 -0.0829,0.78353 -1.2664,1.39347 -2.7349,1.37701 -1.39922,0.0235 -2.61701,-0.58717 -2.60342,-1.41071 z m 3.38884,12.21022 3.86982,0.0172 -0.009,10.8952 5.09048,-0.017 0.009,-10.8952 3.869815,0.0172 -6.410255,-6.65697 z m 13.714315,2.00593 6.73753,0.0102 -0.0207,-2.04419 -6.73753,-0.0101 z m 0.64636,-29.27932 1.57778,-0.0128 -0.002,-1.75635 -1.53778,-0.0565 z m 3.51269,-0.004 2.57987,0.0115 0.0379,-1.82563 -2.57987,-0.0115 z m 5.10456,39.15825 2.00419,0.0486 -0.0446,-18.96267 -1.93491,-0.009 z m 0.008,-32.97343 1.99403,6.78615 0.0106,-24.65812 -2.04419,0.0207 z"
         id="path827" />
    </g>
    <path
       id="path829"
       d="M 135.84516,39.67258 135.64141,109.94496 74.845615,145.32689 14.155006,110.28715 14.398756,39.94548 75.223835,4.67284 Z"
       style="fill:none;stroke:#868686;stroke-width:1.03999233px;stroke-linecap:butt;stroke-linejoin:miter;stroke-miterlimit:4;stroke-dasharray:none;stroke-opacity:1"
       inkscape:connector-curvature="0" />
  </g>
</svg>
