<?xml version="1.0" encoding="UTF-8" standalone="no"?>
<!-- Created with Inkscape (http://www.inkscape.org/) -->

<svg
   xmlns:dc="http://purl.org/dc/elements/1.1/"
   xmlns:cc="http://creativecommons.org/ns#"
   xmlns:rdf="http://www.w3.org/1999/02/22-rdf-syntax-ns#"
   xmlns:svg="http://www.w3.org/2000/svg"
   xmlns="http://www.w3.org/2000/svg"
   xmlns:sodipodi="http://sodipodi.sourceforge.net/DTD/sodipodi-0.dtd"
   xmlns:inkscape="http://www.inkscape.org/namespaces/inkscape"
   width="150"
   height="150"
   viewBox="0 0 150 150"
   version="1.1"
   id="svg5256"
   inkscape:version="0.92.3 (2405546, 2018-03-11)"
   sodipodi:docname="entrance-lower-left.svg">
  <defs
     id="defs5250">
    <inkscape:perspective
       sodipodi:type="inkscape:persp3d"
       inkscape:vp_x="0 : 75 : 1"
       inkscape:vp_y="0 : 1000 : 0"
       inkscape:vp_z="150 : 75 : 1"
       inkscape:persp3d-origin="75 : 50 : 1"
       id="perspective5044" />
  </defs>
  <sodipodi:namedview
     id="base"
     pagecolor="#ffffff"
     bordercolor="#666666"
     borderopacity="1.0"
     inkscape:pageopacity="0.0"
     inkscape:pageshadow="2"
     inkscape:zoom="2.8"
     inkscape:cx="11.967413"
     inkscape:cy="83.255887"
     inkscape:document-units="px"
     inkscape:current-layer="layer1"
     showgrid="false"
     inkscape:pagecheckerboard="true"
     units="px"
     inkscape:window-width="1920"
     inkscape:window-height="1137"
     inkscape:window-x="1912"
     inkscape:window-y="-8"
     inkscape:window-maximized="1"
     inkscape:snap-global="false">
    <sodipodi:guide
       position="135.62899,39.97733"
       orientation="35.02264,-60.62899"
       id="guide4518"
       inkscape:locked="false" />
    <sodipodi:guide
       position="75,4.95469"
       orientation="-35.02264,-60.628989"
       id="guide4520"
       inkscape:locked="false" />
    <sodipodi:guide
       position="14.371011,39.97733"
       orientation="-70.045324,0"
       id="guide4522"
       inkscape:locked="false" />
    <sodipodi:guide
       position="14.371011,110.02265"
       orientation="-35.022659,60.628989"
       id="guide4524"
       inkscape:locked="false" />
    <sodipodi:guide
       position="75,145.04531"
       orientation="35.022659,60.62899"
       id="guide4526"
       inkscape:locked="false" />
    <sodipodi:guide
       position="135.62899,110.02265"
       orientation="70.045324,0"
       id="guide4528"
       inkscape:locked="false" />
  </sodipodi:namedview>
  <metadata
     id="metadata5253">
    <rdf:RDF>
      <cc:Work
         rdf:about="">
        <dc:format>image/svg+xml</dc:format>
        <dc:type
           rdf:resource="http://purl.org/dc/dcmitype/StillImage" />
        <dc:title />
      </cc:Work>
    </rdf:RDF>
  </metadata>
  <g
     inkscape:label="Layer 1"
     inkscape:groupmode="layer"
     id="layer1">
    <g
       id="g828"
       transform="translate(-10.357143,11.428571)">
      <rect
         ry="9.3204432"
         transform="rotate(30)"
         y="11.986292"
         x="73.026199"
         height="61.194847"
         width="62.222382"
         id="rect832"
         style="opacity:1;vector-effect:none;fill:#000000;fill-opacity:1;stroke:none;stroke-width:1.99999988;stroke-linecap:butt;stroke-linejoin:miter;stroke-miterlimit:4;stroke-dasharray:none;stroke-dashoffset:0;stroke-opacity:1"
         rx="9.3204432" />
      <path
         inkscape:connector-curvature="0"
         id="path11026"
         d="M 77.774589,64.710564 52.625657,108.2698 68.936925,112.25916 89.385111,76.841866 Z m 14.241265,11.647693 -0.122029,0.225854 -1.638516,2.837993 1.573128,0.908246 1.765557,-3.058032 -1.57804,-0.914056 z m -25.361053,-14.639891 -6.47043,11.207107 1.769846,1.021822 5.47724,-9.486861 6.095814,3.519418 0.993188,-1.720247 z m 22.607506,19.423488 -0.882936,1.52929 1.572563,0.90792 0.882939,-1.529292 z m -1.876115,3.249534 -13.021016,22.553062 1.572567,0.90792 13.021,-22.553044 z m -29.377734,-13.247487 -8.943813,2.26086 2.51362,8.876559 1.946141,-3.370806 9.43879,5.449485 2.537921,-4.395812 -9.43879,-5.449484 z m 11.170207,14.584846 c 0.651547,0.376171 0.586799,1.708045 -0.144534,2.974759 -0.731338,1.266707 -1.85241,1.988733 -2.503956,1.612561 -0.651544,-0.376167 -0.586796,-1.708061 0.144541,-2.974768 0.731341,-1.266719 1.852406,-1.988719 2.503949,-1.612552 z m -12.197332,-3.168159 -1.946457,3.371357 -9.438216,-5.449169 -2.537929,4.395817 9.438224,5.449165 -1.946132,3.3708 8.944689,-2.261084 z m -8.631526,10.862959 -3.378729,5.852128 1.769845,1.021825 3.37873,-5.852131 z m 25.022191,15.241123 -0.772366,1.33778 1.572562,0.90792 0.772366,-1.33778 z m -1.765543,3.05803 -1.26914,2.19821 1.572566,0.90792 1.26912,-2.19818 z m -36.457493,-15.187627 -0.99318,1.72024 16.418959,9.479487 0.99319,-1.72024 z m 28.576208,16.498487 -6.892288,-1.68562 21.368877,12.33734 0.993185,-1.72025 z"
         style="fill:#ffffff;stroke-width:0.99999994" />
    </g>
    <path
       id="path823-6"
       d="M 75.154395,145.34707 14.398598,110.03443 14.154846,39.692757 74.845458,4.6530162 135.64126,40.034946 l 0.13447,70.312384 z"
       style="fill:none;fill-opacity:1;fill-rule:nonzero;stroke:#868686;stroke-opacity:1"
       inkscape:connector-curvature="0" />
  </g>
</svg>
