<?xml version="1.0" encoding="UTF-8" standalone="no"?>
<!-- Created with Inkscape (http://www.inkscape.org/) -->

<svg
   xmlns:dc="http://purl.org/dc/elements/1.1/"
   xmlns:cc="http://creativecommons.org/ns#"
   xmlns:rdf="http://www.w3.org/1999/02/22-rdf-syntax-ns#"
   xmlns:svg="http://www.w3.org/2000/svg"
   xmlns="http://www.w3.org/2000/svg"
   xmlns:sodipodi="http://sodipodi.sourceforge.net/DTD/sodipodi-0.dtd"
   xmlns:inkscape="http://www.inkscape.org/namespaces/inkscape"
   width="150"
   height="150"
   viewBox="0 0 150 150"
   version="1.1"
   id="svg5256"
   inkscape:version="0.92.3 (2405546, 2018-03-11)"
   sodipodi:docname="entrance-upper-right.svg">
  <defs
     id="defs5250">
    <inkscape:perspective
       sodipodi:type="inkscape:persp3d"
       inkscape:vp_x="0 : 75 : 1"
       inkscape:vp_y="0 : 1000 : 0"
       inkscape:vp_z="150 : 75 : 1"
       inkscape:persp3d-origin="75 : 50 : 1"
       id="perspective5044" />
    <pattern
       y="0"
       x="0"
       height="6"
       width="6"
       patternUnits="userSpaceOnUse"
       id="EMFhbasepattern" />
  </defs>
  <sodipodi:namedview
     id="base"
     pagecolor="#ffffff"
     bordercolor="#666666"
     borderopacity="1.0"
     inkscape:pageopacity="0.0"
     inkscape:pageshadow="2"
     inkscape:zoom="2.8"
     inkscape:cx="-34.818301"
     inkscape:cy="66.11303"
     inkscape:document-units="px"
     inkscape:current-layer="layer1"
     showgrid="false"
     inkscape:pagecheckerboard="true"
     units="px"
     inkscape:window-width="1920"
     inkscape:window-height="1017"
     inkscape:window-x="-8"
     inkscape:window-y="-8"
     inkscape:window-maximized="1"
     inkscape:snap-global="false">
    <sodipodi:guide
       position="135.62899,39.97733"
       orientation="35.02264,-60.62899"
       id="guide4518"
       inkscape:locked="false" />
    <sodipodi:guide
       position="75,4.95469"
       orientation="-35.02264,-60.628989"
       id="guide4520"
       inkscape:locked="false" />
    <sodipodi:guide
       position="14.371011,39.97733"
       orientation="-70.045324,0"
       id="guide4522"
       inkscape:locked="false" />
    <sodipodi:guide
       position="14.371011,110.02265"
       orientation="-35.022659,60.628989"
       id="guide4524"
       inkscape:locked="false" />
    <sodipodi:guide
       position="75,145.04531"
       orientation="35.022659,60.62899"
       id="guide4526"
       inkscape:locked="false" />
    <sodipodi:guide
       position="135.62899,110.02265"
       orientation="70.045324,0"
       id="guide4528"
       inkscape:locked="false" />
  </sodipodi:namedview>
  <metadata
     id="metadata5253">
    <rdf:RDF>
      <cc:Work
         rdf:about="">
        <dc:format>image/svg+xml</dc:format>
        <dc:type
           rdf:resource="http://purl.org/dc/dcmitype/StillImage" />
        <dc:title />
      </cc:Work>
    </rdf:RDF>
  </metadata>
  <g
     inkscape:label="Layer 1"
     inkscape:groupmode="layer"
     id="layer1">
    <g
       id="g844"
       transform="rotate(-120,6.4436086,62.58198)">
      <path
         inkscape:connector-curvature="0"
         style="fill:#000000;fill-opacity:1;fill-rule:nonzero;stroke:none"
         d="m -63.731241,112.35439 37.75972,-21.759834 c 4.479967,-2.559981 10.159925,-1.039992 12.719906,3.439975 L 8.0282282,130.83426 c 2.6399798,4.47996 1.11999,10.15992 -3.35998,12.7999 L -33.091468,165.394 c -4.479967,2.55998 -10.159925,1.03999 -12.719906,-3.43998 L -67.091216,125.1543 c -2.559981,-4.47997 -1.039992,-10.15992 3.359975,-12.79991 z"
         id="path825" />
      <path
         inkscape:connector-curvature="0"
         style="fill:#ffffff;fill-opacity:1;fill-rule:nonzero;stroke:none"
         d="m -46.051372,108.19443 25.119814,43.51967 11.5999142,-12.07991 -20.3998492,-35.43973 z m 17.199873,-6.55996 0.08,0.24 1.679988,2.87998 1.599988,-0.95999 -1.759987,-3.03998 z m -25.359813,14.7199 6.479952,11.19991 1.759987,-1.03999 -5.519959,-9.51993 6.159955,-3.51997 -1.039993,-1.67999 z m 28.079792,-9.91993 0.879994,1.51999 1.599988,-0.88 -0.879993,-1.51998 z m 1.919986,3.27997 13.039904,22.55984 1.5199882,-0.96 -13.0399032,-22.55983 z m -26.159806,18.79987 -2.559981,8.87993 8.959934,2.23998 -1.919986,-3.35997 9.43993,-5.43996 -2.559981,-4.39997 -9.43993,5.43996 z m 18.239865,-2.39999 c 0.639995,-0.31999 1.759987,0.4 2.479982,1.59999 0.719994,1.27999 0.799994,2.63998 0.159998,3.03998 -0.719994,0.32 -1.839986,-0.4 -2.559981,-1.67999 -0.719994,-1.19999 -0.799994,-2.55998 -0.08,-2.95998 z m -8.879934,9.03994 1.919985,3.35997 -9.43993,5.43996 2.559981,4.39997 9.43993,-5.43996 1.919986,3.35997 2.559981,-8.87993 z m 5.119962,12.8799 3.359975,5.83995 1.759987,-1.03999 -3.359975,-5.83995 z m 25.67981,-14.0799 0.7999942,1.35999 1.519988,-0.87999 -0.719994,-1.35999 z m 1.7599862,3.03998 1.279991,2.23999 1.599988,-0.88 -1.27999,-2.23998 z m -31.3597672,23.99982 0.959993,1.75999 16.399878,-9.51993 -0.959993,-1.67999 z m 28.559788,-16.47987 -4.879964,5.11996 21.3598422,-12.31991 -1.03999,-1.75999 z"
         id="path827" />
      <path
         inkscape:connector-curvature="0"
         style="fill:none;stroke:#868686;stroke-width:1.03999233px;stroke-linecap:butt;stroke-linejoin:miter;stroke-miterlimit:4;stroke-dasharray:none;stroke-opacity:1"
         d="m 22.428118,150.75411 -60.959546,34.95974 -61.039547,-34.95974 V 80.67463 l 61.039547,-34.959742 60.959546,35.039741 z"
         id="path829" />
    </g>
  </g>
</svg>
