<?xml version="1.0" encoding="UTF-8" standalone="no"?>
<!-- Created with Inkscape (http://www.inkscape.org/) -->

<svg
   xmlns:dc="http://purl.org/dc/elements/1.1/"
   xmlns:cc="http://creativecommons.org/ns#"
   xmlns:rdf="http://www.w3.org/1999/02/22-rdf-syntax-ns#"
   xmlns:svg="http://www.w3.org/2000/svg"
   xmlns="http://www.w3.org/2000/svg"
   xmlns:sodipodi="http://sodipodi.sourceforge.net/DTD/sodipodi-0.dtd"
   xmlns:inkscape="http://www.inkscape.org/namespaces/inkscape"
   width="150"
   height="150"
   viewBox="0 0 150 150"
   version="1.1"
   id="svg5256"
   inkscape:version="0.92.3 (2405546, 2018-03-11)"
   sodipodi:docname="entrance-upper-right.svg">
  <defs
     id="defs5250">
    <inkscape:perspective
       sodipodi:type="inkscape:persp3d"
       inkscape:vp_x="0 : 75 : 1"
       inkscape:vp_y="0 : 1000 : 0"
       inkscape:vp_z="150 : 75 : 1"
       inkscape:persp3d-origin="75 : 50 : 1"
       id="perspective5044" />
    <pattern
       y="0"
       x="0"
       height="6"
       width="6"
       patternUnits="userSpaceOnUse"
       id="EMFhbasepattern" />
  </defs>
  <sodipodi:namedview
     id="base"
     pagecolor="#ffffff"
     bordercolor="#666666"
     borderopacity="1.0"
     inkscape:pageopacity="0.0"
     inkscape:pageshadow="2"
     inkscape:zoom="3.959798"
     inkscape:cx="42.932948"
     inkscape:cy="90.301178"
     inkscape:document-units="px"
     inkscape:current-layer="layer1"
     showgrid="false"
     inkscape:pagecheckerboard="true"
     units="px"
     inkscape:window-width="1920"
     inkscape:window-height="1137"
     inkscape:window-x="1912"
     inkscape:window-y="-8"
     inkscape:window-maximized="1"
     inkscape:snap-global="false">
    <sodipodi:guide
       position="135.62899,39.97733"
       orientation="35.02264,-60.62899"
       id="guide4518"
       inkscape:locked="false" />
    <sodipodi:guide
       position="75,4.95469"
       orientation="-35.02264,-60.628989"
       id="guide4520"
       inkscape:locked="false" />
    <sodipodi:guide
       position="14.371011,39.97733"
       orientation="-70.045324,0"
       id="guide4522"
       inkscape:locked="false" />
    <sodipodi:guide
       position="14.371011,110.02265"
       orientation="-35.022659,60.628989"
       id="guide4524"
       inkscape:locked="false" />
    <sodipodi:guide
       position="75,145.04531"
       orientation="35.022659,60.62899"
       id="guide4526"
       inkscape:locked="false" />
    <sodipodi:guide
       position="135.62899,110.02265"
       orientation="70.045324,0"
       id="guide4528"
       inkscape:locked="false" />
  </sodipodi:namedview>
  <metadata
     id="metadata5253">
    <rdf:RDF>
      <cc:Work
         rdf:about="">
        <dc:format>image/svg+xml</dc:format>
        <dc:type
           rdf:resource="http://purl.org/dc/dcmitype/StillImage" />
        <dc:title />
      </cc:Work>
    </rdf:RDF>
  </metadata>
  <g
     inkscape:label="Layer 1"
     inkscape:groupmode="layer"
     id="layer1">
    <g
       id="g829"
       transform="translate(10.101525,-10.606602)">
      <path
         inkscape:connector-curvature="0"
         style="fill:#000000;fill-opacity:1;fill-rule:nonzero;stroke:none"
         d="M 84.635205,98.468977 46.910776,76.648018 C 42.453784,74.048243 40.930154,68.369261 43.529929,63.912268 L 64.759507,27.083519 c 2.559769,-4.526269 8.238754,-6.0499 12.765029,-3.490122 l 37.724434,21.820954 c 4.45699,2.599775 5.98062,8.278758 3.38084,12.735751 L 97.40024,94.978846 c -2.599778,4.456994 -8.278753,5.980624 -12.765035,3.490131 z"
         id="path825" />
      <path
         inkscape:connector-curvature="0"
         style="fill:#ffffff;fill-opacity:1;fill-rule:nonzero;stroke:none"
         d="M 72.192639,85.237742 97.321872,41.72351 81.060406,37.717644 60.568624,73.104297 Z m -14.281028,-11.615547 0.167846,-0.189282 1.654142,-2.894903 -1.63137,-0.905635 -1.752706,3.044184 z m 25.427714,14.602292 6.45943,-11.211758 -1.780651,-1.004198 -5.484522,9.540389 -6.128361,-3.574692 -0.934917,1.740655 z M 60.708517,68.866639 61.58487,67.344547 60.022774,66.398916 59.146429,67.921003 Z M 62.589062,65.563897 75.606504,42.991089 74.015126,42.154741 60.997691,64.727543 Z m 29.361068,13.255122 8.97024,-2.222957 -2.540092,-8.87952 -1.949827,3.342742 -9.431108,-5.45524 -2.530496,4.416994 9.431109,5.455239 z M 80.751745,64.222827 c -0.597117,-0.394257 -0.533584,-1.724193 0.145641,-2.947722 0.748507,-1.263528 1.886293,-2.012805 2.552701,-1.658552 0.637125,0.463533 0.573583,1.793474 -0.174924,3.057003 -0.679225,1.223528 -1.817011,1.972805 -2.523418,1.549271 z m 12.268785,3.170279 1.949826,-3.342741 9.431104,5.455239 2.5305,-4.416993 -9.431108,-5.45524 1.949826,-3.342741 -8.970235,2.222956 z m 8.59434,-10.873967 3.37756,-5.829799 -1.78065,-1.004199 -3.377562,5.829799 z M 76.581413,41.319721 77.359202,39.94691 75.837114,39.070557 75.019325,40.374085 Z m 1.752707,-3.044183 1.299893,-2.2285 -1.562097,-0.94563 -1.299884,2.228494 z m 36.46434,15.158445 1.0442,-1.711373 -16.444443,-9.442746 -0.974918,1.671373 z M 86.246577,36.940416 93.120575,38.606609 71.771298,26.268398 70.767097,28.049051 Z"
         id="path827" />
    </g>
    <path
       id="path829"
       d="M 74.810658,4.6529238 135.56645,39.965569 135.8102,110.30724 75.119595,145.34698 14.323797,109.96505 14.18933,39.652664 Z"
       style="fill:none;stroke:#868686;stroke-width:1.03999233px;stroke-linecap:butt;stroke-linejoin:miter;stroke-miterlimit:4;stroke-dasharray:none;stroke-opacity:1"
       inkscape:connector-curvature="0" />
  </g>
</svg>
