<?xml version="1.0" encoding="UTF-8" standalone="no"?>
<!-- Created with Inkscape (http://www.inkscape.org/) -->

<svg
   xmlns:dc="http://purl.org/dc/elements/1.1/"
   xmlns:cc="http://creativecommons.org/ns#"
   xmlns:rdf="http://www.w3.org/1999/02/22-rdf-syntax-ns#"
   xmlns:svg="http://www.w3.org/2000/svg"
   xmlns="http://www.w3.org/2000/svg"
   xmlns:sodipodi="http://sodipodi.sourceforge.net/DTD/sodipodi-0.dtd"
   xmlns:inkscape="http://www.inkscape.org/namespaces/inkscape"
   width="150"
   height="150"
   viewBox="0 0 150 150"
   version="1.1"
   id="svg5256"
   inkscape:version="0.92.4 (5da689c313, 2019-01-14)"
   sodipodi:docname="gate-c.svg">
  <defs
     id="defs5250">
    <inkscape:perspective
       sodipodi:type="inkscape:persp3d"
       inkscape:vp_x="0 : 75 : 1"
       inkscape:vp_y="0 : 1000 : 0"
       inkscape:vp_z="150 : 75 : 1"
       inkscape:persp3d-origin="75 : 50 : 1"
       id="perspective5044" />
  </defs>
  <sodipodi:namedview
     id="base"
     pagecolor="#ffffff"
     bordercolor="#666666"
     borderopacity="1.0"
     inkscape:pageopacity="0.0"
     inkscape:pageshadow="2"
     inkscape:zoom="2.8"
     inkscape:cx="-89.461158"
     inkscape:cy="65.041601"
     inkscape:document-units="px"
     inkscape:current-layer="layer1"
     showgrid="false"
     inkscape:pagecheckerboard="true"
     units="px"
     inkscape:window-width="3840"
     inkscape:window-height="2066"
     inkscape:window-x="2869"
     inkscape:window-y="-11"
     inkscape:window-maximized="1"
     inkscape:snap-global="false">
    <sodipodi:guide
       position="135.62899,39.97733"
       orientation="35.02264,-60.62899"
       id="guide4518"
       inkscape:locked="false" />
    <sodipodi:guide
       position="75,4.95469"
       orientation="-35.02264,-60.628989"
       id="guide4520"
       inkscape:locked="false" />
    <sodipodi:guide
       position="14.371011,39.97733"
       orientation="-70.045324,0"
       id="guide4522"
       inkscape:locked="false" />
    <sodipodi:guide
       position="14.371011,110.02265"
       orientation="-35.022659,60.628989"
       id="guide4524"
       inkscape:locked="false" />
    <sodipodi:guide
       position="75,145.04531"
       orientation="35.022659,60.62899"
       id="guide4526"
       inkscape:locked="false" />
    <sodipodi:guide
       position="135.62899,110.02265"
       orientation="70.045324,0"
       id="guide4528"
       inkscape:locked="false" />
  </sodipodi:namedview>
  <metadata
     id="metadata5253">
    <rdf:RDF>
      <cc:Work
         rdf:about="">
        <dc:format>image/svg+xml</dc:format>
        <dc:type
           rdf:resource="http://purl.org/dc/dcmitype/StillImage" />
        <dc:title />
      </cc:Work>
    </rdf:RDF>
  </metadata>
  <g
     inkscape:label="Layer 1"
     inkscape:groupmode="layer"
     id="layer1">
    <path
       id="path823"
       d="M 135.99955,110.03974 75.039999,144.99948 14.00045,110.03974 V 39.960259 L 75.039999,5.0005186 135.99955,40.040258 Z"
       style="fill:#000000;fill-opacity:1;fill-rule:nonzero;stroke:none"
       inkscape:connector-curvature="0" />
    <path
       id="path5133"
       style="font-style:normal;font-variant:normal;font-weight:normal;font-stretch:normal;font-size:medium;line-height:18.45709038px;font-family:'Archivo Black';-inkscape-font-specification:'Archivo Black, ';letter-spacing:0px;word-spacing:0px;display:inline;fill:#ffffff;fill-opacity:1;stroke:none;stroke-width:0.66666663;stroke-linecap:butt;stroke-linejoin:miter;stroke-miterlimit:4;stroke-dasharray:none;stroke-opacity:1"
       d="m 71.929952,31.863969 c -1.19619,0.03234 -3.03617,0.544848 -2.84296,1.291075 0.62362,0.666894 1.00259,1.61834 1.44641,2.47329 0.98973,1.906444 1.7508,4.052994 2.36055,6.59641 0.56245,0.397154 0.76502,0.338091 1.59042,0.15178 0.55101,-0.124241 1.02634,-0.19693 1.20042,-0.627385 0.24738,-0.702128 0.41331,-1.390255 0.6079,-2.09823 0.2157,-0.785388 0.46728,-1.591959 0.90537,-2.401193 0.90364,-1.668898 1.82637,-3.053792 2.32201,-4.35847 0.18274,-0.53776 -1.23986,-0.761669 -1.81376,-0.764199 -1.22856,-0.0063 -2.79175,0.03675 -5.08391,-0.205888 -0.17436,-0.04627 -0.41653,-0.06477 -0.69261,-0.05728 z m -4.25781,0.741666 c -0.13931,-0.01595 -0.27786,0.01285 -0.40235,0.07872 -1.66073,0.904144 -3.28961,0.218718 -4.52451,1.385733 -0.41192,0.389524 -0.52303,1.035592 -0.13037,1.444668 2.38912,2.488922 2.53637,3.297269 4.68803,7.313724 1.57621,1.116303 3.33137,0.26127 3.81766,0.05376 0.51759,-0.229258 0.89677,-0.70531 0.73357,-1.249393 -0.31684,-3.515253 -1.75475,-5.240134 -3.34063,-8.211406 -0.006,-0.426156 -0.42391,-0.779495 -0.84141,-0.815427 z m 12.92106,0.394024 c -0.41747,0.03584 -0.83394,0.389911 -0.84134,0.816096 -1.58587,2.971241 -3.02392,4.696072 -3.34065,8.211357 -0.16319,0.544127 0.21579,1.020204 0.73355,1.249431 2.62083,1.160732 1.7284,0.351999 2.88855,0.539835 0.55856,0.09054 0.95544,-0.0932 1.22355,-0.593345 2.15172,-4.016427 2.29891,-4.824899 4.68807,-7.313815 0.39265,-0.409083 0.28176,-1.0558 -0.13038,-1.445262 -1.23489,-1.167193 -3.1583,-0.481021 -4.81898,-1.385119 -0.12372,-0.06835 -0.2633,-0.09119 -0.40227,-0.07915 z m -19.8062,1.86846 c -0.13922,0.01619 -0.27249,0.05964 -0.38345,0.147554 -1.481271,1.17741 -3.49349,0.83338 -4.5103,2.19641 -0.339261,0.454758 -0.348439,1.124871 0.118895,1.445842 2.881696,1.980583 3.588115,2.508838 5.870115,6.395281 1.7438,0.827406 3.61649,-0.367973 4.05994,-0.656507 0.47061,-0.315456 0.76296,-0.849885 0.50891,-1.357827 -0.91345,-3.408262 -2.62508,-4.85938 -4.69571,-7.512547 -0.0803,-0.418503 -0.55079,-0.695032 -0.96824,-0.658328 z m 26.60305,0.704793 c -0.41797,-0.03198 -0.8845,0.252967 -0.95869,0.67264 -2.03171,2.683371 -3.7224,4.159024 -4.58616,7.580364 -0.24643,0.511504 0.0533,1.041691 0.52852,1.350012 0.44729,0.282695 2.3379,1.45002 4.06943,0.597056 2.7543,-3.626087 3.02652,-4.401028 5.77591,-6.48101 0.45195,-0.341901 0.44373,-0.997217 0.0975,-1.447069 -1.03654,-1.347992 -3.04337,-0.974842 -4.54171,-2.130339 -0.11221,-0.08618 -0.24526,-0.132434 -0.38507,-0.141954 z m -32.978634,2.660715 c -0.21356,0.0063 -0.42003,0.08585 -0.559931,0.245912 -1.245604,1.426545 -3.285539,1.453022 -4.040988,2.97798 -0.25219,0.508787 -0.137377,1.161407 0.375649,1.400641 3.158802,1.472674 4.416719,1.835894 7.182562,5.174398 1.863772,0.497935 3.230582,-0.965523 3.615002,-1.329702 0.40643,-0.395379 0.59746,-0.973975 0.25656,-1.427395 -1.5104,-3.186897 -3.454248,-4.30371 -5.967294,-6.538178 -0.12849,-0.330879 -0.505505,-0.51585 -0.861529,-0.50355 z m 39.273014,0.947027 c -0.35598,-0.01606 -0.73371,0.171953 -0.86215,0.503015 -2.51302,2.234482 -4.4569,3.351293 -5.96727,6.538175 -0.34097,0.453494 -0.14979,1.032585 0.25658,1.427974 0.38453,0.364102 2.01196,1.879434 3.8757,1.381522 3.40448,-3.01769 3.82188,-4.31562 6.92188,-5.817884 0.50953,-0.246863 0.62829,-0.892399 0.37626,-1.401194 -0.7554,-1.524976 -2.79602,-0.95919 -4.04163,-2.385691 -0.14037,-0.160192 -0.3458,-0.238458 -0.55936,-0.245943 z m -44.713555,3.665553 c -0.356108,-0.02561 -0.738313,0.146316 -0.874544,0.474371 -0.727727,1.751118 -2.251781,2.294211 -2.889158,3.872642 -0.212661,0.526597 -0.0491,1.171789 0.481706,1.3679 0.969653,0.35814 5.496723,2.164601 6.392739,2.658331 0.938594,0.517479 0.605416,0.588501 2.193864,1.248274 0.514643,0.214311 0.972409,0.191774 1.257356,-0.06793 0.969088,-0.882447 1.673143,-1.722826 2.220133,-2.544055 0.259423,-0.504916 -0.194756,-0.937165 -0.661829,-1.257741 -2.443048,-2.536406 -4.474929,-4.176606 -7.565947,-5.489286 -0.13612,-0.163848 -0.340316,-0.24843 -0.554091,-0.263064 z m 51.447583,0.05638 c -0.21367,0.01598 -0.41794,0.09959 -0.554058,0.262877 -3.09109,1.312772 -5.75138,3.584276 -8.19454,6.120887 -0.97838,0.720533 1.15894,4.144239 3.02424,3.986318 2.69236,-1.907214 5.646698,-3.102513 9.214908,-4.42026 0.531,-0.196275 0.69378,-0.841209 0.48113,-1.367878 -0.63737,-1.578396 -2.36931,-2.357273 -3.09714,-4.108348 -0.13615,-0.327663 -0.51837,-0.498222 -0.87456,-0.473764 z m -27.698678,1.295819 c -1.44978,0.08649 -2.85105,0.287561 -4.18794,0.599418 l 2e-5,4.813125 -4.47059,3e-6 1e-5,-3.275025 c -1.53305,0.714167 -2.93838,1.58268 -4.18738,2.58219 l 10e-6,0.692835 -0.81296,-5e-6 c -1.391714,1.247024 -2.561332,2.66338 -3.463277,4.206646 l 4.276227,10e-7 v 4.530932 l -6.05263,2e-5 c -0.03773,0.172267 -0.07629,0.344384 -0.107737,0.518474 l -0.664838,3.688711 6.825265,10e-7 v 5.502403 l 2.0934,6.600071 2.09399,-6.600058 v -5.502403 l 4.47056,-1.4e-5 v 5.502402 l 2.094,6.600082 2.09393,-6.60006 2e-5,-5.502428 h 4.47116 l 2e-5,5.502411 2.09402,6.600064 2.09277,-6.600059 -3e-5,-5.502416 4.47117,-3e-6 v 5.502402 l 2.094,6.600079 2.09398,-6.600054 2e-5,-5.502425 6.74878,-10e-7 -0.73472,-2.978614 c -2e-5,-0.397984 -0.0557,-0.808417 -0.16032,-1.228587 l -5.85357,1.3e-5 1e-5,-4.530959 3.19549,9e-6 c -1.8695,-2.128448 -4.50102,-4.21526 -7.38339,-5.901862 v 1.695226 h -4.47123 l 2e-5,-3.889925 c -1.41716,-0.563946 -2.82936,-0.993908 -4.1868,-1.261879 l 1e-5,5.151835 -4.47117,4e-6 v -5.412565 z m 32.850068,4.708955 c -0.14029,0.0063 -0.276,0.04509 -0.39166,0.1268 -2.88688,1.03512 -5.936658,2.675234 -9.492208,3.782194 -0.53377,0.188259 -0.69302,0.776373 -0.57232,1.331613 0.6114,2.811084 1.42329,2.49239 1.58557,3.621474 0.081,0.562435 0.86266,0.902261 1.32553,0.575529 2.690108,-1.898529 5.331818,-3.444166 9.492218,-3.781612 0.56388,-0.04549 0.74953,-0.792215 0.57294,-1.332193 -0.52918,-1.61831 -1.33438,-1.740779 -1.5862,-3.621417 -0.0568,-0.422497 -0.51355,-0.71855 -0.93386,-0.702351 z m -61.788859,0.05541 c -0.420206,-0.01616 -0.877857,0.28083 -0.934389,0.702994 -0.251807,1.880643 -1.00416,1.794307 -1.533473,3.412575 -0.17663,0.53988 0.02864,1.172157 0.572372,1.331542 3.649077,1.071334 6.807534,1.801104 9.622589,3.520257 0.483761,0.294581 1.244601,-0.01603 1.325432,-0.575559 0.162259,-1.12908 0.792305,-0.339603 1.403716,-3.150671 0.120417,-0.555259 -0.03884,-1.143933 -0.572964,-1.332159 -3.013444,-1.815006 -6.167584,-3.3173 -9.491609,-3.781578 -0.115314,-0.08186 -0.252027,-0.121089 -0.391687,-0.127433 z m 20.280271,4.854831 4.47059,-3e-6 -1e-5,4.530994 -4.47056,1.6e-5 z m 8.65851,-1.6e-5 4.47119,1e-5 1e-5,4.531007 -4.4712,1.2e-5 z m 8.65797,1.1e-5 4.47119,9e-6 v 4.530995 l -4.47117,3e-6 z m 26.911198,1.020881 c -0.14061,0.0016 -0.27761,0.03835 -0.39523,0.117194 -3.33458,0.379841 -6.52593,1.801973 -9.584038,3.539949 -0.53836,0.174184 -0.66037,0.751041 -0.60553,1.316625 0.1546,1.592909 0.0224,2.379714 -0.16893,3.504261 -0.0951,0.560094 0.43088,0.539387 0.98128,0.407641 3.204768,-0.766705 6.493708,-0.225743 10.293898,-0.118786 0.5655,0.01601 0.95461,-0.52214 0.95224,-1.090502 -0.009,-1.703317 -0.35314,-5.06425 -0.55763,-6.950629 -0.046,-0.423696 -0.4955,-0.731657 -0.91599,-0.72626 z m -67.667278,0.326733 c -0.419983,0.02247 -0.848479,0.358724 -0.866853,0.784556 -0.08225,1.89579 -0.208766,4.853939 -0.106768,6.554208 0.03381,0.567285 0.458265,1.078485 1.021482,1.025579 3.785219,-0.355545 6.963305,-0.555499 10.210937,2.1e-5 0.557629,0.0955 1.15274,-0.472813 1.021517,-1.025603 -0.263597,-1.109625 -0.446645,-1.467694 -0.395853,-3.067281 0.01911,-0.568002 -0.141512,-1.135404 -0.690219,-1.274411 -3.164181,-1.534393 -6.441089,-2.74497 -9.793192,-2.905971 -0.122645,-0.07075 -0.261116,-0.09821 -0.401131,-0.09133 z m 5.335065,8.629211 c -1.715586,-0.02242 -3.387015,0.09192 -4.973026,0.402994 -0.550206,-0.132174 -0.898918,0.470805 -1.021541,1.025648 -0.3836,1.735974 -0.386503,3.237215 -3e-6,4.973214 0.123682,0.55463 0.460272,1.096817 1.021523,1.025667 3.791763,-0.481155 6.889178,-0.367667 10.210932,-2.1e-5 0.562354,0.06219 1.152799,-0.472811 1.021517,-1.025659 -0.263313,-1.109584 0.463308,-2.133705 -3.3e-5,-4.973205 -0.09179,-0.560854 -0.45621,-1.048328 -1.021501,-1.025653 -1.762883,-0.226696 -3.52228,-0.381886 -5.237868,-0.402985 z m 57.744913,1.3e-5 c -1.7156,0.02243 -3.47562,0.176109 -5.238548,0.40298 -0.56515,-0.02254 -0.92939,0.464772 -1.02088,1.025665 -0.46323,2.839505 0.26328,4.098745 -2e-5,5.208354 -0.13122,0.552804 0.45709,1.071728 1.0209,1.025586 3.358298,-0.274747 6.452718,-0.686099 10.211598,0 0.55652,0.101589 0.89743,-0.470935 1.0209,-1.025595 0.38649,-1.735956 0.38363,-3.472379 0,-5.208368 -0.12274,-0.554789 -0.47076,-1.158058 -1.0209,-1.025642 -1.58605,-0.310884 -3.25744,-0.424061 -4.97305,-0.40298 z m -0.0558,7.699516 c -1.71557,0.02242 -3.47554,0.177077 -5.238478,0.403543 -0.56531,-0.02233 -0.82032,0.494213 -1.02086,1.025607 -0.99178,2.627129 0.0915,3.680216 -4e-5,4.858968 -0.0441,0.566506 0.45697,0.980923 1.02094,1.025604 3.411558,0.27025 6.545458,0.696551 10.211488,2e-6 0.55585,-0.105986 0.89741,-0.470949 1.02097,-1.025612 0.38647,-1.73597 0.3836,-3.12295 -1e-5,-4.858962 -0.12272,-0.554779 -0.47079,-1.15805 -1.02095,-1.025614 -1.58601,-0.310915 -3.25748,-0.424664 -4.97306,-0.403536 z m -57.529821,0.130954 c -1.715409,-0.02248 -3.420934,0.049 -5.076703,0.272455 -0.550145,-0.132441 -0.898884,0.470798 -1.021499,1.025574 -0.383631,1.736027 -0.386512,3.472396 -1.1e-5,5.208397 0.123378,0.554576 0.457749,0.978229 1.021529,1.02555 3.666298,0.308379 6.79947,0.209774 10.210918,2e-6 0.564674,-0.03458 1.065439,-0.45901 1.021525,-1.025567 -0.09151,-1.178768 0.991698,-2.58127 9e-6,-5.20839 -0.2005,-0.531355 -0.456284,-1.048307 -1.02154,-1.025587 -1.693856,-0.139932 -3.418776,-0.25168 -5.134186,-0.272507 z m 62.707331,7.676839 c -0.0673,-0.0064 -0.13576,1.49e-4 -0.2045,0.01915 -3.62153,0.871911 -6.74761,0.13929 -10.211558,-9e-6 -0.56531,-0.02233 -1.05463,0.45889 -1.02089,1.026175 0.15585,2.62716 0.28494,4.029017 -1e-5,5.207744 -0.13332,0.552209 0.45541,1.010247 1.0209,1.02568 3.028718,0.08259 6.346828,0.465467 10.211538,0 0.56166,-0.06785 0.92145,-0.466168 1.02095,-1.025688 0.30852,-1.735928 -0.20273,-3.471741 -2e-5,-5.207738 0.0575,-0.493843 -0.34611,-1.01018 -0.81647,-1.042814 z m -67.989072,0.313783 c -0.4703,0.03223 -0.874081,0.548996 -0.816587,1.042806 0.202714,1.735954 -0.308524,3.158043 -4e-6,4.894034 0.09946,0.559479 0.456391,1.00027 1.021528,1.025604 3.86476,0.173548 7.182222,-0.509384 10.210914,7e-6 0.557949,0.09416 1.155009,-0.473302 1.02153,-1.025624 -0.284929,-1.178692 -0.155863,-2.266846 0,-4.893974 0.03354,-0.567277 -0.456255,-1.048993 -1.021524,-1.02625 -3.463972,0.139256 -6.589336,0.871983 -10.210903,-2.7e-5 -0.0691,-0.01847 -0.137745,-0.02237 -0.20491,-0.0193 z m 7.825453,7.239302 c -2.537541,0.0063 -4.956191,0.400242 -7.620412,0.163654 -0.56351,-0.05 -0.93905,0.463997 -1.021549,1.026191 -0.254652,1.73605 -0.740221,3.471803 1.5e-5,5.207774 0.222469,0.522465 0.456025,0.859058 1.021567,0.842827 3.864726,-0.110151 8.061037,-0.456141 10.471035,0.05223 0.553585,0.117006 1.010244,-0.457996 1.021503,-1.026163 0.02551,-1.178782 0.279215,-2.449685 -0.260107,-5.076813 -0.114408,-0.556614 -0.461164,-0.948181 -1.021511,-1.026219 -0.885674,-0.123245 -1.744641,-0.165244 -2.590492,-0.163948 z m 49.747651,0.163675 c -0.56476,-0.03361 -0.90667,0.469605 -1.0209,1.02617 -0.53934,2.627163 -0.0255,4.029076 1e-5,5.207795 0.0129,0.568209 0.45656,1.065593 1.02091,1.025624 3.028718,-0.214538 6.346758,-0.110151 10.211488,0 0.56549,0.01603 0.79818,-0.50318 1.02096,-1.025652 0.74009,-1.736006 0.25469,-3.47171 1e-5,-5.207753 -0.0825,-0.562188 -0.45929,-1.09386 -1.02097,-1.026205 -3.55224,0.427768 -6.66884,0.21264 -10.211508,2.1e-5 z m -49.747666,7.332818 c -2.537532,0.0063 -4.956165,0.400256 -7.62038,0.163605 -0.563537,-0.05 -0.939074,0.463394 -1.021541,1.025646 -0.254673,1.735982 -0.740259,3.158736 0,4.894727 0.222485,0.52239 0.462675,0.9373 1.021516,1.02557 3.86474,0.61045 7.182243,0.0758 10.210932,-2e-5 0.565544,-0.016 1.010248,-0.45742 1.021525,-1.02557 0.02548,-1.178731 0.539306,-2.267561 -3e-6,-4.894715 -0.114422,-0.556593 -0.461181,-0.947571 -1.021525,-1.025611 -0.885659,-0.123328 -1.744641,-0.165243 -2.590524,-0.163632 z m 49.747686,0.163626 c -0.56392,-0.04566 -0.90666,0.469031 -1.02094,1.025638 -0.5393,2.627112 -0.0255,4.029613 5e-5,5.208364 0.0129,0.56816 0.45535,1.01149 1.02089,1.0256 3.028718,0.0759 6.346768,0.6105 10.211478,3e-5 0.55892,-0.0883 0.79819,-0.50313 1.02098,-1.02563 0.7401,-1.736021 0.25466,-3.472374 0,-5.208371 -0.0825,-0.562223 -0.45891,-1.090443 -1.02097,-1.025625 -1.76604,0.203952 -3.33123,0.09252 -4.9908,0.07809 -1.68478,-0.01603 -3.46384,0.06526 -5.220688,-0.0781 z M 40.838405,102.0037 c -0.447256,0.0484 -0.748487,0.54138 -0.820621,1.03339 -0.254638,1.73601 -0.740227,3.47232 1.3e-5,5.2084 0.222485,0.52238 0.470214,0.89821 1.021517,1.02557 2.960669,0.68406 6.491575,0.0619 10.210956,0 0.565657,-0.009 1.010247,-0.45742 1.021512,-1.02561 0.0255,-1.17876 0.539293,-2.58119 9e-6,-5.20838 -0.114432,-0.55658 -0.459464,-1.09012 -1.021549,-1.02557 -3.254914,0.37382 -6.543952,0.66084 -10.210905,-3e-5 -0.0697,-0.0158 -0.137161,-0.0159 -0.200754,-0.009 z m 67.980735,0.20909 c -0.0641,-0.006 -0.13074,-0.006 -0.20024,0.009 -3.66689,0.66088 -6.9566,0.37382 -10.211498,1e-5 -0.56204,-0.0644 -0.90669,0.46961 -1.02096,1.02615 -0.53933,2.6272 -0.0255,4.02908 0,5.20786 0.0126,0.56815 0.46089,1.10563 1.02098,1.02556 3.403738,-0.4868 6.807668,-0.0864 10.211438,1e-5 0.56559,0.016 0.79824,-0.50322 1.02095,-1.02559 0.74016,-1.7361 0.25469,-3.4718 4e-5,-5.20782 -0.0721,-0.49193 -0.37342,-0.98554 -0.82067,-1.03391 z M 34.763274,109.417 c -0.822583,-0.006 -1.472426,0.80364 -1.472426,1.65893 l -7e-6,1.44054 c -6e-6,0.91237 0.734212,1.5675 1.638979,1.64704 5.244437,0.46063 10.391647,0.84296 15.47429,0.92681 15.052902,0.29394 33.394142,0.22829 50.59729,-0.0666 5.3798,-0.11364 8.60267,-0.74569 14.06889,-0.86011 0.9079,-0.0192 1.63886,-0.73469 1.63887,-1.64705 l -1e-5,-1.44046 c 2e-5,-0.91233 -0.73272,-1.70724 -1.63885,-1.64706 -3.42583,0.22765 -6.86071,0.65849 -10.30997,0.56847 -13.628308,-0.35559 -27.979338,1.09487 -42.563858,-0.0941 -8.926381,-0.72766 -17.925459,0.8145 -27.266688,-0.47441 -0.0558,-0.0108 -0.111985,-0.0131 -0.166764,-0.0129 z"
       inkscape:connector-curvature="0"
       sodipodi:nodetypes="cccccccccccccccccccccccccccccccccccccccccccccccccccccccccccccccccccccccccccccccccccccccccccccccccccccccccccccccccccccccccccccccccccccccccccccccccccccccccccccccccccccccccccccccccccccccccccccccccccccccccccccccccccccccccccccccccccccccccccccccccccccccccccccccccccccccccccccccccccccccccccccccccccccccccccccccccccccccccccccccccccccccccccccccccccccccc" />
    <g
       transform="translate(2.0000184e-6,2.5714286)"
       aria-label="B"
       style="font-style:normal;font-variant:normal;font-weight:normal;font-stretch:normal;font-size:33.00774384px;line-height:1.25;font-family:'Archivo Black';-inkscape-font-specification:'Archivo Black, ';letter-spacing:0px;word-spacing:0px;fill:#ffffff;fill-opacity:1;stroke:none;stroke-width:1"
       id="text911">
      <g
         aria-label="C"
         style="font-style:normal;font-variant:normal;font-weight:normal;font-stretch:normal;font-size:40px;line-height:1.25;font-family:'Archivo Black';-inkscape-font-specification:'Archivo Black, ';letter-spacing:0px;word-spacing:0px;fill:#ffffff;fill-opacity:1;stroke:none"
         id="text3730">
        <path
           d="m 74.294287,73.357147 q 6.12,0 9.68,3.08 3.56,3.04 3.56,8.72 h -8.44 q 0,-2.4 -1.28,-3.8 -1.24,-1.4 -3.56,-1.4 -2.68,0 -3.96,1.68 -1.24,1.68 -1.24,4.68 v 2.56 q 0,2.96 1.24,4.68 1.28,1.68 3.88,1.68 2.56,0 3.88,-1.32 1.32,-1.32 1.32,-3.72 h 8.16 q 0,5.64 -3.48,8.64 -3.44,3.000003 -9.76,3.000003 -7.04,0 -10.68,-3.600003 -3.6,-3.6 -3.6,-10.64 0,-7.04 3.6,-10.64 3.64,-3.6 10.68,-3.6 z"
           style=""
           id="path3732" />
      </g>
    </g>
  </g>
</svg>
