<?xml version="1.0" encoding="UTF-8" standalone="no"?>
<!-- Created with Inkscape (http://www.inkscape.org/) -->

<svg
   xmlns:dc="http://purl.org/dc/elements/1.1/"
   xmlns:cc="http://creativecommons.org/ns#"
   xmlns:rdf="http://www.w3.org/1999/02/22-rdf-syntax-ns#"
   xmlns:svg="http://www.w3.org/2000/svg"
   xmlns="http://www.w3.org/2000/svg"
   xmlns:sodipodi="http://sodipodi.sourceforge.net/DTD/sodipodi-0.dtd"
   xmlns:inkscape="http://www.inkscape.org/namespaces/inkscape"
   width="150"
   height="150"
   viewBox="0 0 150 150"
   version="1.1"
   id="svg5256"
   inkscape:version="0.92.4 (5da689c313, 2019-01-14)"
   sodipodi:docname="remote-lock-x-meeple.svg">
  <defs
     id="defs5250">
    <inkscape:perspective
       sodipodi:type="inkscape:persp3d"
       inkscape:vp_x="0 : 75 : 1"
       inkscape:vp_y="0 : 1000 : 0"
       inkscape:vp_z="150 : 75 : 1"
       inkscape:persp3d-origin="75 : 50 : 1"
       id="perspective5044" />
    <pattern
       y="0"
       x="0"
       height="6"
       width="6"
       patternUnits="userSpaceOnUse"
       id="EMFhbasepattern" />
  </defs>
  <sodipodi:namedview
     id="base"
     pagecolor="#ffffff"
     bordercolor="#666666"
     borderopacity="1.0"
     inkscape:pageopacity="0.0"
     inkscape:pageshadow="2"
     inkscape:zoom="3.959798"
     inkscape:cx="5.9097507"
     inkscape:cy="56.130825"
     inkscape:document-units="px"
     inkscape:current-layer="layer1"
     showgrid="false"
     inkscape:pagecheckerboard="true"
     units="px"
     inkscape:window-width="3840"
     inkscape:window-height="2066"
     inkscape:window-x="2869"
     inkscape:window-y="-11"
     inkscape:window-maximized="1"
     inkscape:snap-global="false">
    <sodipodi:guide
       position="135.62899,39.97733"
       orientation="35.02264,-60.62899"
       id="guide4518"
       inkscape:locked="false" />
    <sodipodi:guide
       position="75,4.95469"
       orientation="-35.02264,-60.628989"
       id="guide4520"
       inkscape:locked="false" />
    <sodipodi:guide
       position="14.371011,39.97733"
       orientation="-70.045324,0"
       id="guide4522"
       inkscape:locked="false" />
    <sodipodi:guide
       position="14.371011,110.02265"
       orientation="-35.022659,60.628989"
       id="guide4524"
       inkscape:locked="false" />
    <sodipodi:guide
       position="75,145.04531"
       orientation="35.022659,60.62899"
       id="guide4526"
       inkscape:locked="false" />
    <sodipodi:guide
       position="135.62899,110.02265"
       orientation="70.045324,0"
       id="guide4528"
       inkscape:locked="false" />
  </sodipodi:namedview>
  <metadata
     id="metadata5253">
    <rdf:RDF>
      <cc:Work
         rdf:about="">
        <dc:format>image/svg+xml</dc:format>
        <dc:type
           rdf:resource="http://purl.org/dc/dcmitype/StillImage" />
        <dc:title />
      </cc:Work>
    </rdf:RDF>
  </metadata>
  <g
     inkscape:label="Layer 1"
     inkscape:groupmode="layer"
     id="layer1">
    <path
       id="path823"
       d="M 135.99955,110.03974 75.039999,144.99948 14.000451,110.03974 V 39.960263 L 75.039999,5.000522 135.99955,40.040262 Z"
       style="fill:#000000;fill-opacity:1;fill-rule:nonzero;stroke:none"
       inkscape:connector-curvature="0" />
    <path
       style="opacity:1;vector-effect:none;fill:#ffffff;fill-opacity:1;fill-rule:nonzero;stroke:none;stroke-width:0.80227888;stroke-linecap:butt;stroke-linejoin:miter;stroke-miterlimit:4;stroke-dasharray:none;stroke-dashoffset:0;stroke-opacity:1"
       d="m 75.027343,27.951171 -41.027339,23.49805 v 47.10156 l 41.027339,23.498049 9.615235,-5.51368 v -9.29101 l -9.621094,5.51758 -32.929688,-18.859379 v -37.80664 l 32.929688,-18.85937 32.886726,18.90234 v 19.84766 H 116 v -24.48438 z"
       id="path23"
       inkscape:connector-curvature="0" />
    <g
       aria-label="X"
       style="font-style:normal;font-variant:normal;font-weight:normal;font-stretch:normal;font-size:40px;line-height:1.25;font-family:'Archivo Black';-inkscape-font-specification:'Archivo Black, ';letter-spacing:0px;word-spacing:0px;fill:#ffffff;fill-opacity:1;stroke:none"
       id="text4559">
      <path
         d="m 120.40571,110.71429 h -10.72 l -5.08,-8.56 h -0.16 l -5.079997,8.56 h -9.92 l 9.84,-14.560003 -8.88,-12.96 h 10.679997 l 4.16,7.04 h 0.16 l 4.2,-7.04 h 9.88 l -8.92,13 z"
         style=""
         id="path4588" />
    </g>
    <path
       id="path8836"
       d="m 75.000358,61.691375 c -1.786749,0 -3.071789,0.945802 -3.813952,2.133646 -0.663758,1.062155 -0.939911,2.294402 -0.993792,3.373607 -2.0255,1.001829 -4.269383,2.011895 -6.075967,3.04463 -0.947675,0.54182 -1.773896,1.086643 -2.395819,1.67215 -0.621916,0.585506 -1.080801,1.244863 -1.080801,2.022638 0,0.331096 0.161627,0.600712 0.343459,0.798654 0.182419,0.198603 0.400632,0.351866 0.649328,0.495321 0.497319,0.286861 1.124329,0.526148 1.814044,0.733151 1.024623,0.30749 2.172109,0.536227 3.169851,0.633881 -0.992397,1.710741 -2.313083,3.281794 -3.470766,4.78713 -1.3379,1.739965 -2.505916,3.408398 -2.505916,5.262154 0,0.264714 -0.0052,0.471469 0.02108,0.679216 0.0234,0.207946 0.08317,0.466815 0.291829,0.672224 0.208797,0.205569 0.464375,0.26072 0.672545,0.283363 0.208117,0.02342 0.41792,0.02342 0.686943,0.02342 h 7.381478 c 0.53583,0 0.928171,0.0325 1.3318,-0.226673 0.403669,-0.259588 0.550856,-0.614016 0.838447,-1.143688 h 0.0052 l 0.0052,-0.02313 c 0,0 0.643423,-1.30866 1.411132,-2.607432 0.383819,-0.64911 0.800525,-1.295852 1.163001,-1.754018 0.181492,-0.228956 0.350999,-0.410755 0.473167,-0.513306 0.03741,-0.03042 0.0544,-0.03737 0.0782,-0.05143 0.02407,0.02342 0.04094,0.02342 0.0782,0.05143 0.122147,0.102829 0.291813,0.284132 0.473136,0.513306 0.362472,0.458195 0.779157,1.104908 1.162997,1.754018 0.767644,1.298772 1.411147,2.607432 1.411147,2.607432 l 0.0052,0.02313 h 0.0052 c 0.287605,0.529672 0.433453,0.882006 0.834482,1.142313 0.400895,0.26003 0.792406,0.228956 1.320689,0.228956 h 7.413994 c 0.264689,0 0.471161,0 0.677886,-0.02342 0.206715,-0.02312 0.463122,-0.0795 0.669738,-0.286861 0.206467,-0.20797 0.263633,-0.463093 0.286519,-0.669852 0.02342,-0.205628 0.02109,-0.413351 0.02109,-0.678279 0,-1.853483 -1.168019,-3.521945 -2.505917,-5.26194 -1.157623,-1.505361 -2.478327,-3.076414 -3.470779,-4.787101 0.997752,-0.09809 2.145251,-0.326415 3.169874,-0.633905 0.689702,-0.207941 1.316705,-0.446236 1.814027,-0.73315 0.248696,-0.142523 0.467083,-0.297216 0.649185,-0.495102 0.182191,-0.198632 0.34361,-0.467807 0.34361,-0.798821 0,-0.777829 -0.458885,-1.437158 -1.080781,-2.022693 -0.621908,-0.585507 -1.448127,-1.130357 -2.395775,-1.672176 -1.806618,-1.032681 -4.05048,-2.042746 -6.076026,-3.044631 -0.05388,-1.079178 -0.330068,-2.311425 -0.993747,-3.373579 -0.742183,-1.187845 -2.027188,-2.133619 -3.813982,-2.133619 z"
       inkscape:connector-curvature="0"
       style="opacity:1;vector-effect:none;fill:#ffffff;fill-opacity:1;stroke:none;stroke-width:0.22771809;stroke-linecap:butt;stroke-linejoin:miter;stroke-miterlimit:4;stroke-dasharray:none;stroke-dashoffset:0;stroke-opacity:1" />
  </g>
</svg>
