<?xml version="1.0" encoding="UTF-8" standalone="no"?>
<!-- Created with Inkscape (http://www.inkscape.org/) -->

<svg
   xmlns:dc="http://purl.org/dc/elements/1.1/"
   xmlns:cc="http://creativecommons.org/ns#"
   xmlns:rdf="http://www.w3.org/1999/02/22-rdf-syntax-ns#"
   xmlns:svg="http://www.w3.org/2000/svg"
   xmlns="http://www.w3.org/2000/svg"
   xmlns:sodipodi="http://sodipodi.sourceforge.net/DTD/sodipodi-0.dtd"
   xmlns:inkscape="http://www.inkscape.org/namespaces/inkscape"
   width="150"
   height="150"
   viewBox="0 0 150 150"
   version="1.1"
   id="svg5256"
   inkscape:version="0.92.4 (5da689c313, 2019-01-14)"
   sodipodi:docname="remote-lock-y-meeple.svg">
  <defs
     id="defs5250">
    <inkscape:perspective
       sodipodi:type="inkscape:persp3d"
       inkscape:vp_x="0 : 75 : 1"
       inkscape:vp_y="0 : 1000 : 0"
       inkscape:vp_z="150 : 75 : 1"
       inkscape:persp3d-origin="75 : 50 : 1"
       id="perspective5044" />
    <pattern
       y="0"
       x="0"
       height="6"
       width="6"
       patternUnits="userSpaceOnUse"
       id="EMFhbasepattern" />
  </defs>
  <sodipodi:namedview
     id="base"
     pagecolor="#ffffff"
     bordercolor="#666666"
     borderopacity="1.0"
     inkscape:pageopacity="0.0"
     inkscape:pageshadow="2"
     inkscape:zoom="2.8"
     inkscape:cx="-183.21116"
     inkscape:cy="63.61303"
     inkscape:document-units="px"
     inkscape:current-layer="layer1"
     showgrid="false"
     inkscape:pagecheckerboard="true"
     units="px"
     inkscape:window-width="3840"
     inkscape:window-height="2066"
     inkscape:window-x="2869"
     inkscape:window-y="-11"
     inkscape:window-maximized="1"
     inkscape:snap-global="false">
    <sodipodi:guide
       position="135.62899,39.97733"
       orientation="35.02264,-60.62899"
       id="guide4518"
       inkscape:locked="false" />
    <sodipodi:guide
       position="75,4.95469"
       orientation="-35.02264,-60.628989"
       id="guide4520"
       inkscape:locked="false" />
    <sodipodi:guide
       position="14.371011,39.97733"
       orientation="-70.045324,0"
       id="guide4522"
       inkscape:locked="false" />
    <sodipodi:guide
       position="14.371011,110.02265"
       orientation="-35.022659,60.628989"
       id="guide4524"
       inkscape:locked="false" />
    <sodipodi:guide
       position="75,145.04531"
       orientation="35.022659,60.62899"
       id="guide4526"
       inkscape:locked="false" />
    <sodipodi:guide
       position="135.62899,110.02265"
       orientation="70.045324,0"
       id="guide4528"
       inkscape:locked="false" />
  </sodipodi:namedview>
  <metadata
     id="metadata5253">
    <rdf:RDF>
      <cc:Work
         rdf:about="">
        <dc:format>image/svg+xml</dc:format>
        <dc:type
           rdf:resource="http://purl.org/dc/dcmitype/StillImage" />
        <dc:title />
      </cc:Work>
    </rdf:RDF>
  </metadata>
  <g
     inkscape:label="Layer 1"
     inkscape:groupmode="layer"
     id="layer1">
    <path
       id="path823"
       d="M 135.99955,110.03974 75.039997,144.99948 14.000451,110.03974 V 39.960262 L 75.039997,5.0005205 135.99955,40.040261 Z"
       style="fill:#000000;fill-opacity:1;fill-rule:nonzero;stroke:none"
       inkscape:connector-curvature="0" />
    <path
       style="opacity:1;vector-effect:none;fill:#ffffff;fill-opacity:1;fill-rule:nonzero;stroke:none;stroke-width:0.80227888;stroke-linecap:butt;stroke-linejoin:miter;stroke-miterlimit:4;stroke-dasharray:none;stroke-dashoffset:0;stroke-opacity:1"
       d="m 75.027342,27.951171 -41.02734,23.49805 v 47.10156 l 41.02734,23.498049 9.61523,-5.51368 v -9.29101 l -9.62109,5.51758 -32.92969,-18.859379 v -37.80664 l 32.92969,-18.85937 32.886728,18.90234 v 19.84766 H 116 v -24.48438 z"
       id="path23"
       inkscape:connector-curvature="0" />
    <g
       aria-label="Y"
       style="font-style:normal;font-variant:normal;font-weight:normal;font-stretch:normal;font-size:40px;line-height:1.25;font-family:'Archivo Black';-inkscape-font-specification:'Archivo Black, ';letter-spacing:0px;word-spacing:0px;fill:#ffffff;fill-opacity:1;stroke:none"
       id="text4559">
      <path
         d="M 108.61143,110.35715 H 99.771426 V 99.677147 l -10.92,-16.84 h 10.16 l 5.280004,9.16 h 0.16 l 5.28,-9.16 h 9.64 l -10.76,16.84 z"
         style=""
         id="path29" />
    </g>
    <path
       id="path8836"
       d="m 75.000726,61.691387 c -1.78675,0 -3.07179,0.9458 -3.81395,2.13365 -0.66376,1.06215 -0.93992,2.2944 -0.9938,3.3736 -2.0255,1.00183 -4.26938,2.0119 -6.07596,3.04463 -0.94768,0.54182 -1.7739,1.08665 -2.39582,1.67215 -0.62192,0.58551 -1.0808,1.24487 -1.0808,2.02264 0,0.3311 0.16162,0.60071 0.34346,0.79866 0.18241,0.1986 0.40063,0.35186 0.64932,0.49532 0.49732,0.28686 1.12433,0.52615 1.81405,0.73315 1.02462,0.30749 2.17211,0.53623 3.16985,0.63388 -0.9924,1.71074 -2.31308,3.28179 -3.47077,4.78713 -1.3379,1.73996 -2.50591,3.4084 -2.50591,5.26215 0,0.26472 -0.005,0.47147 0.0211,0.67922 0.0234,0.20795 0.0832,0.46681 0.29183,0.67222 0.20879,0.20557 0.46437,0.26072 0.67254,0.28337 0.20812,0.0234 0.41792,0.0234 0.68694,0.0234 h 7.38148 c 0.53583,0 0.92817,0.0325 1.3318,-0.22668 0.40367,-0.25958 0.55086,-0.61401 0.83845,-1.14368 h 0.005 l 0.005,-0.0231 c 0,0 0.64342,-1.30866 1.41113,-2.60744 0.38382,-0.64911 0.80053,-1.29585 1.163,-1.75401 0.18149,-0.22896 0.351,-0.41076 0.47317,-0.51331 0.0374,-0.0304 0.0544,-0.0374 0.0782,-0.0514 0.0241,0.0234 0.0409,0.0234 0.0782,0.0514 0.12215,0.10283 0.29181,0.28413 0.47313,0.51331 0.36248,0.45819 0.77916,1.1049 1.163,1.75401 0.76765,1.29878 1.41115,2.60744 1.41115,2.60744 l 0.005,0.0231 h 0.005 c 0.2876,0.52967 0.43345,0.882 0.83448,1.14231 0.4009,0.26003 0.79241,0.22895 1.32069,0.22895 h 7.41399 c 0.26469,0 0.47116,0 0.67789,-0.0234 0.20671,-0.0231 0.46312,-0.0795 0.66974,-0.28686 0.20646,-0.20797 0.26363,-0.46309 0.28652,-0.66985 0.0234,-0.20563 0.0211,-0.41335 0.0211,-0.67828 0,-1.85348 -1.16802,-3.52194 -2.50592,-5.26194 -1.15762,-1.50536 -2.47833,-3.07641 -3.47078,-4.7871 0.99775,-0.0981 2.14525,-0.32641 3.16987,-0.6339 0.68971,-0.20794 1.31671,-0.44624 1.81403,-0.73315 0.2487,-0.14253 0.46708,-0.29722 0.64919,-0.49511 0.18219,-0.19863 0.34361,-0.4678 0.34361,-0.79882 0,-0.77783 -0.45889,-1.43715 -1.08078,-2.02269 -0.62191,-0.58551 -1.44813,-1.13036 -2.39578,-1.67218 -1.80662,-1.03268 -4.05048,-2.04274 -6.07603,-3.04463 -0.0539,-1.07917 -0.33006,-2.31142 -0.99374,-3.37358 -0.74219,-1.18784 -2.02719,-2.13361 -3.81398,-2.13361 z"
       inkscape:connector-curvature="0"
       style="opacity:1;vector-effect:none;fill:#ffffff;fill-opacity:1;stroke:none;stroke-width:0.22771809;stroke-linecap:butt;stroke-linejoin:miter;stroke-miterlimit:4;stroke-dasharray:none;stroke-dashoffset:0;stroke-opacity:1" />
  </g>
</svg>
