<?xml version="1.0" encoding="UTF-8" standalone="no"?>
<!-- Created with Inkscape (http://www.inkscape.org/) -->

<svg
   xmlns:dc="http://purl.org/dc/elements/1.1/"
   xmlns:cc="http://creativecommons.org/ns#"
   xmlns:rdf="http://www.w3.org/1999/02/22-rdf-syntax-ns#"
   xmlns:svg="http://www.w3.org/2000/svg"
   xmlns="http://www.w3.org/2000/svg"
   xmlns:sodipodi="http://sodipodi.sourceforge.net/DTD/sodipodi-0.dtd"
   xmlns:inkscape="http://www.inkscape.org/namespaces/inkscape"
   width="150"
   height="150"
   viewBox="0 0 150 150"
   version="1.1"
   id="svg5256"
   inkscape:version="0.92.4 (5da689c313, 2019-01-14)"
   sodipodi:docname="security-2.svg">
  <defs
     id="defs5250">
    <inkscape:perspective
       sodipodi:type="inkscape:persp3d"
       inkscape:vp_x="0 : 75 : 1"
       inkscape:vp_y="0 : 1000 : 0"
       inkscape:vp_z="150 : 75 : 1"
       inkscape:persp3d-origin="75 : 50 : 1"
       id="perspective5044" />
  </defs>
  <sodipodi:namedview
     id="base"
     pagecolor="#ffffff"
     bordercolor="#666666"
     borderopacity="1.0"
     inkscape:pageopacity="0.0"
     inkscape:pageshadow="2"
     inkscape:zoom="3.959798"
     inkscape:cx="14.267892"
     inkscape:cy="57.998663"
     inkscape:document-units="px"
     inkscape:current-layer="layer1"
     showgrid="false"
     inkscape:pagecheckerboard="true"
     units="px"
     inkscape:window-width="3840"
     inkscape:window-height="2066"
     inkscape:window-x="2869"
     inkscape:window-y="-11"
     inkscape:window-maximized="1">
    <sodipodi:guide
       position="135.62899,39.97733"
       orientation="35.02264,-60.62899"
       id="guide4518"
       inkscape:locked="false" />
    <sodipodi:guide
       position="75,4.95469"
       orientation="-35.02264,-60.628989"
       id="guide4520"
       inkscape:locked="false" />
    <sodipodi:guide
       position="14.371011,39.97733"
       orientation="-70.045324,0"
       id="guide4522"
       inkscape:locked="false" />
    <sodipodi:guide
       position="14.371011,110.02265"
       orientation="-35.022659,60.628989"
       id="guide4524"
       inkscape:locked="false" />
    <sodipodi:guide
       position="75,145.04531"
       orientation="35.022659,60.62899"
       id="guide4526"
       inkscape:locked="false" />
    <sodipodi:guide
       position="135.62899,110.02265"
       orientation="70.045324,0"
       id="guide4528"
       inkscape:locked="false" />
  </sodipodi:namedview>
  <metadata
     id="metadata5253">
    <rdf:RDF>
      <cc:Work
         rdf:about="">
        <dc:format>image/svg+xml</dc:format>
        <dc:type
           rdf:resource="http://purl.org/dc/dcmitype/StillImage" />
        <dc:title />
      </cc:Work>
    </rdf:RDF>
  </metadata>
  <g
     inkscape:label="Layer 1"
     inkscape:groupmode="layer"
     id="layer1">
    <path
       sodipodi:type="star"
       id="path16"
       sodipodi:sides="6"
       sodipodi:cx="74.999992"
       sodipodi:cy="75.35714"
       sodipodi:r1="70.452705"
       sodipodi:r2="61.013832"
       sodipodi:arg1="0.52359878"
       sodipodi:arg2="1.0471976"
       inkscape:flatsided="true"
       inkscape:rounded="0"
       inkscape:randomized="0"
       d="m 136.01382,110.58349 -61.013828,35.22635 -61.013832,-35.22635 0,-70.452703 L 74.999993,4.9044342 136.01383,40.130787 Z"
       style="stroke-width:1.1251328"
       transform="matrix(1,0,0,0.99357434,8.1848509e-6,0.08177052)" />
    <path
       inkscape:connector-curvature="0"
       style="fill:#ffffff;fill-opacity:1;stroke:none;stroke-width:0.51901847;stroke-linecap:round;stroke-linejoin:round;stroke-miterlimit:4;stroke-dasharray:none;stroke-opacity:1"
       d="m 97.766671,68.823741 v 0.03251 c -6.606438,4.105771 -18.088225,4.643976 -19.104942,5.065364 1.258164,28.056635 7.377981,32.039975 19.104942,38.421165 v 0.028 c 0.0094,0 0.01892,-0.0133 0.02882,-0.0147 0.0094,0 0.01892,0.0133 0.02874,0.0147 v -0.028 c 11.726939,-6.38118 17.846799,-10.36453 19.104919,-38.421165 -1.01671,-0.421386 -12.49848,-0.95959 -19.10491,-5.065511 v -0.03251 c -0.0071,0.0081 -0.01892,0.01329 -0.02882,0.01773 -0.0094,-0.0081 -0.01892,-0.0133 -0.02882,-0.01773 z"
       id="path9311" />
    <path
       id="path17"
       d="m 52.175792,37.629369 v 0.03251 c -6.606436,4.105772 -18.088223,4.643977 -19.10494,5.065364 1.258164,28.05664 7.377981,32.039974 19.10494,38.421159 v 0.02803 c 0.0095,0 0.01893,-0.0133 0.0288,-0.01473 0.0095,0 0.01893,0.0133 0.02878,0.01473 v -0.02803 C 63.960308,74.767223 70.080166,70.783883 71.338281,42.727244 70.321578,42.305858 58.83981,41.767654 52.233377,37.661733 v -0.03251 c -0.007,0.0081 -0.01893,0.01329 -0.02879,0.01773 -0.0095,-0.0081 -0.01895,-0.0133 -0.0288,-0.01773 z"
       style="fill:#ffffff;fill-opacity:1;stroke:none;stroke-width:0.51901847;stroke-linecap:round;stroke-linejoin:round;stroke-miterlimit:4;stroke-dasharray:none;stroke-opacity:1"
       inkscape:connector-curvature="0" />
  </g>
</svg>
