<?xml version="1.0" encoding="UTF-8" standalone="no"?>
<!-- Created with Inkscape (http://www.inkscape.org/) -->

<svg
   xmlns:dc="http://purl.org/dc/elements/1.1/"
   xmlns:cc="http://creativecommons.org/ns#"
   xmlns:rdf="http://www.w3.org/1999/02/22-rdf-syntax-ns#"
   xmlns:svg="http://www.w3.org/2000/svg"
   xmlns="http://www.w3.org/2000/svg"
   xmlns:sodipodi="http://sodipodi.sourceforge.net/DTD/sodipodi-0.dtd"
   xmlns:inkscape="http://www.inkscape.org/namespaces/inkscape"
   width="150"
   height="150"
   viewBox="0 0 150 150"
   version="1.1"
   id="svg5256"
   inkscape:version="0.92.4 (5da689c313, 2019-01-14)"
   sodipodi:docname="security-2guard.svg">
  <defs
     id="defs5250">
    <inkscape:perspective
       sodipodi:type="inkscape:persp3d"
       inkscape:vp_x="0 : 75 : 1"
       inkscape:vp_y="0 : 1000 : 0"
       inkscape:vp_z="150 : 75 : 1"
       inkscape:persp3d-origin="75 : 50 : 1"
       id="perspective5044" />
    <pattern
       y="0"
       x="0"
       height="6"
       width="6"
       patternUnits="userSpaceOnUse"
       id="EMFhbasepattern" />
  </defs>
  <sodipodi:namedview
     id="base"
     pagecolor="#ffffff"
     bordercolor="#666666"
     borderopacity="1.0"
     inkscape:pageopacity="0.0"
     inkscape:pageshadow="2"
     inkscape:zoom="2.8"
     inkscape:cx="-31.068301"
     inkscape:cy="51.827315"
     inkscape:document-units="px"
     inkscape:current-layer="layer1"
     showgrid="false"
     inkscape:pagecheckerboard="true"
     units="px"
     inkscape:window-width="3840"
     inkscape:window-height="2066"
     inkscape:window-x="2869"
     inkscape:window-y="-11"
     inkscape:window-maximized="1">
    <sodipodi:guide
       position="135.62899,39.97733"
       orientation="35.02264,-60.62899"
       id="guide4518"
       inkscape:locked="false" />
    <sodipodi:guide
       position="75,4.95469"
       orientation="-35.02264,-60.628989"
       id="guide4520"
       inkscape:locked="false" />
    <sodipodi:guide
       position="14.371011,39.97733"
       orientation="-70.045324,0"
       id="guide4522"
       inkscape:locked="false" />
    <sodipodi:guide
       position="14.371011,110.02265"
       orientation="-35.022659,60.628989"
       id="guide4524"
       inkscape:locked="false" />
    <sodipodi:guide
       position="75,145.04531"
       orientation="35.022659,60.62899"
       id="guide4526"
       inkscape:locked="false" />
    <sodipodi:guide
       position="135.62899,110.02265"
       orientation="70.045324,0"
       id="guide4528"
       inkscape:locked="false" />
  </sodipodi:namedview>
  <metadata
     id="metadata5253">
    <rdf:RDF>
      <cc:Work
         rdf:about="">
        <dc:format>image/svg+xml</dc:format>
        <dc:type
           rdf:resource="http://purl.org/dc/dcmitype/StillImage" />
        <dc:title />
      </cc:Work>
    </rdf:RDF>
  </metadata>
  <g
     inkscape:label="Layer 1"
     inkscape:groupmode="layer"
     id="layer1">
    <path
       id="path823"
       d="M 135.99955,110.03974 75.039997,144.99948 14.000448,110.03974 V 39.960262 L 75.039997,5.000521 135.99955,40.040261 Z"
       style="fill:#000000;fill-opacity:1;fill-rule:nonzero;stroke:none"
       inkscape:connector-curvature="0" />
    <path
       inkscape:connector-curvature="0"
       style="display:inline;opacity:1;vector-effect:none;fill:#ffffff;fill-opacity:1;stroke:none;stroke-width:0.54754561;stroke-linecap:round;stroke-linejoin:round;stroke-miterlimit:4;stroke-dasharray:none;stroke-dashoffset:0;stroke-opacity:1"
       d="m 99.125105,34.254875 c 2.252315,0 3.747005,1.12421 5.752005,2.237942 1.90017,1.05573 4.28903,1.961074 7.65784,1.273164 1.59871,1.598003 3.22295,3.196334 4.95508,4.278998 1.41745,0.885902 3.01027,1.413481 4.59898,1.164202 -0.45582,3.586462 -2.63367,7.094703 -4.91043,8.93114 -6.00401,-1.98973 -12.02305,-2.985043 -18.042092,-2.985043 -6.024606,0 -12.049093,0.997155 -18.05859,2.990445 -2.27912,-1.834799 -4.460616,-5.346519 -4.916768,-8.936542 1.58839,0.249688 3.181523,-0.278341 4.599014,-1.164078 1.732093,-1.082665 3.356135,-2.680915 4.95503,-4.278918 3.368503,0.68783 5.757688,-0.21776 7.657853,-1.273163 2.005206,-1.114264 3.499774,-2.238147 5.752078,-2.238147 z m 0.01224,2.095579 c -2.125213,0 -5.702628,2.871985 -5.702628,2.871985 0,0 2.275924,8.616245 5.702628,8.616245 3.426955,0 5.702875,-8.616245 5.702875,-8.616245 0,0 -3.57766,-2.871985 -5.702875,-2.871985 z m 0,14.727996 c 5.661905,0 11.324215,0.925646 17.000035,2.760118 0.23373,1.444711 -0.16209,2.518247 -1.01332,3.511023 -0.95029,1.108206 -2.54535,2.048876 -4.43598,2.757375 -3.78174,1.417779 -8.68567,1.919488 -11.550811,1.919488 -2.865068,0 -7.768785,-0.501709 -11.550368,-1.919406 -1.890884,-0.708459 -3.485728,-1.649045 -4.435978,-2.757457 -0.851599,-0.992776 -1.247578,-2.066066 -1.01353,-3.510901 5.675823,-1.834594 11.338012,-2.76024 16.999876,-2.76024 z m 18.579125,6.129147 c 1.05323,0.255418 2.88853,0.833835 3.21824,1.822723 0.90112,2.702361 -1.81474,6.842149 -3.86862,9.454296 0.56586,-2.360085 0.87089,-4.870473 0.87089,-7.473492 0,-1.293139 -0.0757,-2.563274 -0.22063,-3.803527 z m -37.157763,0 a 32.806488,32.806488 0 0 0 -0.220619,3.803404 c 0,2.603019 0.304942,5.113408 0.870921,7.473492 -2.053909,-2.612146 -4.769869,-6.751934 -3.868614,-9.454296 0.329504,-0.988888 2.165003,-1.567262 3.218106,-1.822683 z m 35.396653,2.056161 c 0.0327,0.576821 0.0511,1.159044 0.0511,1.747162 0,6.368029 -1.9445,12.11507 -5.03048,16.227966 -3.08586,4.112772 -7.26134,6.576005 -11.838577,6.576005 -4.57691,0 -8.752468,-2.463233 -11.838242,-6.576005 -3.08586,-4.112896 -5.030147,-9.859815 -5.030147,-16.227885 0,-0.588323 0.01636,-1.170546 0.05079,-1.747367 0.879476,0.821271 1.953752,1.487364 3.135548,2.041017 -0.457948,1.95207 0.0287,4.380102 1.297559,5.64864 2.335328,2.334175 7.572557,2.334175 9.907992,0 0.723317,-0.723276 1.033587,-1.875608 0.992617,-3.031868 0.529211,0.02456 1.029656,0.03275 1.484085,0.03275 0.454516,0 0.955085,-0.01228 1.484375,-0.03275 -0.0409,1.156138 0.26934,2.308592 0.99274,3.031868 2.33541,2.334175 7.57247,2.334175 9.90779,0 1.26903,-1.268538 1.75551,-3.696202 1.29756,-5.648149 1.18192,-0.553693 2.25636,-1.220237 3.13563,-2.041384 z M 99.137387,71.905179 c -2.476909,3.961445 -7.430682,4.456565 -9.90758,4.456565 2.476778,1.980925 9.90746,1.980925 9.90746,0 0,1.980925 7.431043,1.980925 9.908023,0 -2.47698,0 -7.43099,-0.49512 -9.908023,-4.456565 z"
       id="path7011" />
    <path
       id="path17"
       d="m 50.874968,66.18511 c 2.252315,0 3.747002,1.12421 5.752001,2.237942 1.900167,1.05573 4.289026,1.961074 7.657842,1.273164 1.598704,1.598003 3.222951,3.196333 4.955083,4.278998 1.417447,0.885902 3.010262,1.413481 4.598975,1.164202 -0.455823,3.586462 -2.633673,7.094703 -4.910428,8.93114 -6.00401,-1.98973 -12.023054,-2.985043 -18.042091,-2.985043 -6.024606,0 -12.049093,0.997155 -18.05859,2.990444 -2.279119,-1.834799 -4.460616,-5.346519 -4.916767,-8.936542 1.588389,0.249689 3.181522,-0.278341 4.599013,-1.164079 1.732093,-1.082663 3.356135,-2.680914 4.95503,-4.278917 3.368504,0.68783 5.757688,-0.21776 7.657853,-1.273163 2.005206,-1.114264 3.499775,-2.238147 5.752079,-2.238146 z m 0.01224,2.095579 c -2.125214,0 -5.702629,2.871985 -5.702629,2.871985 0,0 2.275924,8.616245 5.702629,8.616245 3.426953,0 5.702878,-8.616245 5.702878,-8.616245 0,0 -3.577665,-2.871985 -5.702878,-2.871985 z m 0,14.727996 c 5.661907,0 11.324218,0.925646 17.000035,2.760118 0.23373,1.444711 -0.162087,2.518247 -1.013318,3.511023 -0.950297,1.108206 -2.54535,2.048876 -4.435978,2.757377 -3.781748,1.417781 -8.685671,1.919487 -11.550815,1.919487 -2.865068,0 -7.768785,-0.501706 -11.550368,-1.919404 -1.890884,-0.708462 -3.485728,-1.649048 -4.435979,-2.75746 -0.851599,-0.992776 -1.247578,-2.066066 -1.01353,-3.510901 5.675824,-1.834594 11.338013,-2.76024 16.999877,-2.76024 z m 18.579127,6.129147 c 1.053228,0.255418 2.888527,0.833835 3.218239,1.822723 0.901123,2.702365 -1.814742,6.84215 -3.868618,9.454295 0.565856,-2.360081 0.870886,-4.870474 0.870886,-7.473492 0,-1.293138 -0.07568,-2.563273 -0.220633,-3.803526 z m -37.157766,0 a 32.806488,32.806488 0 0 0 -0.220619,3.803401 c 0,2.603026 0.304942,5.113411 0.870921,7.473497 -2.053909,-2.61215 -4.769869,-6.751936 -3.868614,-9.454298 0.329505,-0.988888 2.165003,-1.567262 3.218107,-1.822683 z m 35.396649,2.056161 c 0.03274,0.576821 0.05112,1.159048 0.05112,1.747165 0,6.368027 -1.944495,12.115072 -5.030475,16.227972 -3.085863,4.11277 -7.261343,6.576 -11.838577,6.576 -4.576909,0 -8.752468,-2.46323 -11.838242,-6.576 -3.08586,-4.1129 -5.030147,-9.859828 -5.030147,-16.227897 0,-0.588317 0.01636,-1.170543 0.05079,-1.747364 0.879476,0.821271 1.953752,1.487364 3.135549,2.041017 -0.457949,1.952071 0.0287,4.380105 1.297559,5.648636 2.335327,2.334178 7.572556,2.334178 9.907991,0 0.723317,-0.723274 1.033588,-1.875601 0.992618,-3.031862 0.52921,0.02456 1.029656,0.03274 1.484085,0.03274 0.454515,0 0.955081,-0.01228 1.484377,-0.03274 -0.04094,1.156136 0.269333,2.308588 0.992737,3.031862 2.335403,2.334178 7.572466,2.334178 9.907783,0 1.269033,-1.268531 1.755512,-3.696197 1.297558,-5.648144 1.18193,-0.553695 2.256367,-1.220239 3.135639,-2.041386 z M 50.887249,103.83542 c -2.476909,3.96144 -7.430682,4.45657 -9.907579,4.45657 2.476777,1.98092 9.907459,1.98092 9.907459,0 0,1.98092 7.431043,1.98092 9.908025,0 -2.476982,0 -7.430997,-0.49513 -9.908025,-4.45657 z"
       style="display:inline;opacity:1;vector-effect:none;fill:#ffffff;fill-opacity:1;stroke:none;stroke-width:0.54754561;stroke-linecap:round;stroke-linejoin:round;stroke-miterlimit:4;stroke-dasharray:none;stroke-dashoffset:0;stroke-opacity:1"
       inkscape:connector-curvature="0" />
  </g>
</svg>
