<?xml version="1.0" encoding="UTF-8" standalone="no"?>
<!-- Created with Inkscape (http://www.inkscape.org/) -->

<svg
   xmlns:dc="http://purl.org/dc/elements/1.1/"
   xmlns:cc="http://creativecommons.org/ns#"
   xmlns:rdf="http://www.w3.org/1999/02/22-rdf-syntax-ns#"
   xmlns:svg="http://www.w3.org/2000/svg"
   xmlns="http://www.w3.org/2000/svg"
   xmlns:sodipodi="http://sodipodi.sourceforge.net/DTD/sodipodi-0.dtd"
   xmlns:inkscape="http://www.inkscape.org/namespaces/inkscape"
   width="150"
   height="150"
   viewBox="0 0 150 150"
   version="1.1"
   id="svg5256"
   inkscape:version="0.92.3 (2405546, 2018-03-11)"
   sodipodi:docname="security-camera.svg">
  <defs
     id="defs5250">
    <inkscape:perspective
       sodipodi:type="inkscape:persp3d"
       inkscape:vp_x="0 : 75 : 1"
       inkscape:vp_y="0 : 1000 : 0"
       inkscape:vp_z="150 : 75 : 1"
       inkscape:persp3d-origin="75 : 50 : 1"
       id="perspective5044" />
  </defs>
  <sodipodi:namedview
     id="base"
     pagecolor="#ffffff"
     bordercolor="#666666"
     borderopacity="1.0"
     inkscape:pageopacity="0.0"
     inkscape:pageshadow="2"
     inkscape:zoom="2.8"
     inkscape:cx="1.0745566"
     inkscape:cy="74.684458"
     inkscape:document-units="px"
     inkscape:current-layer="layer1"
     showgrid="false"
     inkscape:pagecheckerboard="true"
     units="px"
     inkscape:window-width="1920"
     inkscape:window-height="1017"
     inkscape:window-x="-8"
     inkscape:window-y="-8"
     inkscape:window-maximized="1"
     inkscape:snap-global="false">
    <sodipodi:guide
       position="135.62899,39.97733"
       orientation="35.02264,-60.62899"
       id="guide4518"
       inkscape:locked="false" />
    <sodipodi:guide
       position="75,4.95469"
       orientation="-35.02264,-60.628989"
       id="guide4520"
       inkscape:locked="false" />
    <sodipodi:guide
       position="14.371011,39.97733"
       orientation="-70.045324,0"
       id="guide4522"
       inkscape:locked="false" />
    <sodipodi:guide
       position="14.371011,110.02265"
       orientation="-35.022659,60.628989"
       id="guide4524"
       inkscape:locked="false" />
    <sodipodi:guide
       position="75,145.04531"
       orientation="35.022659,60.62899"
       id="guide4526"
       inkscape:locked="false" />
    <sodipodi:guide
       position="135.62899,110.02265"
       orientation="70.045324,0"
       id="guide4528"
       inkscape:locked="false" />
  </sodipodi:namedview>
  <metadata
     id="metadata5253">
    <rdf:RDF>
      <cc:Work
         rdf:about="">
        <dc:format>image/svg+xml</dc:format>
        <dc:type
           rdf:resource="http://purl.org/dc/dcmitype/StillImage" />
        <dc:title />
      </cc:Work>
    </rdf:RDF>
  </metadata>
  <g
     inkscape:label="Layer 1"
     inkscape:groupmode="layer"
     id="layer1">
    <path
       id="path823"
       d="M 135.99955,110.03974 75.039999,144.99948 14.00045,110.03974 V 39.960261 L 75.039999,5.0005195 135.99955,40.04026 Z"
       style="fill:#000000;fill-opacity:1;fill-rule:nonzero;stroke:none"
       inkscape:connector-curvature="0" />
    <path
       inkscape:connector-curvature="0"
       style="display:inline;fill:#ffffff;stroke:none;stroke-width:0.79475981;stroke-linecap:round;stroke-linejoin:round;stroke-miterlimit:4;stroke-dasharray:none;stroke-opacity:1"
       d="m 57.21189,48.027073 c -1.760523,-6.08e-4 -3.61303,0.254718 -5.562184,0.823506 a 1.1285512,1.1285512 0 0 0 -0.01816,0.01681 1.1285512,1.1285512 0 0 0 -0.05904,0.02 1.1285512,1.1285512 0 0 0 -0.04677,0.01636 1.1285512,1.1285512 0 0 0 -0.05591,0.02772 1.1285512,1.1285512 0 0 0 -0.04545,0.02273 1.1285512,1.1285512 0 0 0 -0.05495,0.03182 1.1285512,1.1285512 0 0 0 -0.04088,0.02772 1.1285512,1.1285512 0 0 0 -0.05134,0.0368 1.1285512,1.1285512 0 0 0 -0.04088,0.03044 1.1285512,1.1285512 0 0 0 -0.04725,0.04272 1.1285512,1.1285512 0 0 0 -0.03631,0.03363 1.1285512,1.1285512 0 0 0 -0.04545,0.04712 1.1285512,1.1285512 0 0 0 -0.03186,0.03545 1.1285512,1.1285512 0 0 0 -0.04088,0.05363 1.1285512,1.1285512 0 0 0 -0.02729,0.0368 1.1285512,1.1285512 0 0 0 -0.03174,0.05659 1.1285512,1.1285512 0 0 0 -0.02273,0.0409 1.1285512,1.1285512 0 0 0 -0.02729,0.05963 1.1285512,1.1285512 0 0 0 -0.01816,0.04454 1.1285512,1.1285512 0 0 0 -0.02272,0.05963 1.1285512,1.1285512 0 0 0 -0.01359,0.04608 1.1285512,1.1285512 0 0 0 -0.01816,0.08257 l -2.660102,13.300548 a 1.1285512,1.1285512 0 0 0 0.668215,1.260799 l 9.743955,4.107656 3.756271,19.260659 -13.843652,3.007015 a 1.1285512,1.1285512 0 0 0 -0.890933,1.087535 l -0.126335,9.084419 a 1.1285512,1.1285512 0 0 0 1.470087,1.09107 L 66.37003,96.358968 69.235716,95.80332 c 0.02272,0 0.04088,0 0.06312,0 1.182741,0 2.296548,-0.563234 3.074421,-1.481714 0.777283,-0.917445 1.183919,-2.113364 1.18274,-3.345138 v 0 c 6.74e-4,-0.78083 -0.163152,-1.548518 -0.480582,-2.239771 L 70.073119,73.225536 85.01443,79.524002 a 1.1285512,1.1285512 0 0 0 0.01816,0.01816 1.1285512,1.1285512 0 0 0 0.06457,0.02273 1.1285512,1.1285512 0 0 0 0.04088,0.01816 1.1285512,1.1285512 0 0 0 0.06457,0.01816 1.1285512,1.1285512 0 0 0 0.04954,0.01816 1.1285512,1.1285512 0 0 0 0.05723,0.01816 1.1285512,1.1285512 0 0 0 0.05723,0.01816 1.1285512,1.1285512 0 0 0 0.05086,0 1.1285512,1.1285512 0 0 0 0.06409,0 1.1285512,1.1285512 0 0 0 0.04545,0 l 9.90822,-0.627333 a 1.1285512,1.1285512 0 0 0 0.9468,-0.645947 l 6.00171,-12.705675 h 9.6e-4 a 1.1285512,1.1285512 0 0 0 0.002,-0.01683 1.1285512,1.1285512 0 0 0 -0.65427,-1.561601 c -0.92461,-0.518108 -1.87672,-0.873293 -2.84537,-1.097587 L 62.313319,48.810316 a 1.1285512,1.1285512 0 0 0 -0.09547,-0.03182 c -1.582017,-0.456822 -3.250703,-0.714139 -5.011358,-0.715212 z m -3.129898,1.630352 a 1.1285512,1.1285512 0 0 1 0.438078,0.08557 l 34.539648,13.843332 a 1.1295016,1.1295016 0 0 1 0.685433,1.281745 1.1285512,1.1285512 0 0 0 -0.08405,0.173372 l -0.09956,0.245852 a 1.1295016,1.1295016 0 0 1 -1.341203,0.396271 L 53.680851,51.836782 a 1.1285512,1.1285512 0 0 1 0.401273,-2.179399 z M 96.52835,64.906802 c 0.5227,0 1.03945,0.05964 1.55242,0.166194 l 1.75103,0.679469 -2.81188,5.953381 c 0.10809,-0.482073 0.1636,-0.960359 0.15859,-1.408501 -0.0136,-1.037107 -0.34946,-1.894866 -0.93192,-2.32389 -0.58269,-0.42936 -1.38847,-0.413405 -2.18284,0.02958 -0.19587,0.110138 -0.39264,0.245263 -0.58283,0.401044 0.0731,-0.09787 0.14134,-0.204358 0.20041,-0.319426 0.16815,-0.327338 0.26722,-0.706836 0.26358,-1.042915 -0.004,-0.336692 -0.1123,-0.62274 -0.30448,-0.768614 -0.0958,-0.07335 -0.20676,-0.110139 -0.32674,-0.107133 -0.12,0 -0.24995,0.0386 -0.37493,0.110139 -0.25039,0.143697 -0.48465,0.418178 -0.65335,0.746129 -0.16814,0.328433 -0.26721,0.706547 -0.26357,1.043228 0.004,0.336704 0.11218,0.622909 0.30448,0.76877 0.19222,0.145249 0.45125,0.13611 0.70156,-0.01683 -0.40581,0.423096 -0.77759,0.938487 -1.08008,1.510944 -0.54737,1.035267 -0.85839,2.233062 -0.8464,3.270313 0.0136,1.037408 0.35629,1.898534 0.9392,2.32787 0.58256,0.429361 1.38089,0.409594 2.17511,-0.03186 0.49635,-0.27703 0.98484,-0.714952 1.41487,-1.25712 l -0.99905,2.114627 -7.454402,0.475159 4.425482,-10.975633 c 1.73857,-0.919982 3.35858,-1.367667 4.92559,-1.354369 z m -35.410132,4.531425 1.902394,0.802089 3.532001,16.578554 c -0.356737,-0.108215 -0.729753,-0.167697 -1.109756,-0.167697 -0.323562,0 -0.641497,0.04545 -0.948972,0.124062 L 61.118218,69.438696 Z m 4.437339,1.870843 2.021562,0.852108 2.732257,14.116401 c -0.324476,-0.08994 -0.660988,-0.137698 -1.003464,-0.137698 -0.195412,0 -0.388095,0.01816 -0.577916,0.04088 L 65.555689,71.302758 Z m 3.75027,17.096217 c 0.458892,0 0.980968,0.234947 1.362786,0.685938 0.382191,0.450812 0.645406,1.174889 0.64436,1.876182 0.0012,0.701533 -0.262674,1.425466 -0.644215,1.876361 -0.181333,0.214049 -0.394011,0.377646 -0.61632,0.491933 l -0.729753,0.140884 c 0.250397,-0.626408 0.378103,-1.306983 0.377646,-1.998789 v 0 c 4.57e-4,-0.448538 -0.05363,-0.892352 -0.159509,-1.319704 a 1.1285512,1.1285512 0 0 0 -0.02272,-0.267219 l -0.315386,-1.479862 c 0.03631,0 0.06902,-0.01816 0.103645,-0.01816 z m -3.863018,0.510931 c 0.459084,0 0.981281,0.234958 1.363195,0.685902 0.381746,0.450811 0.645045,1.174829 0.644095,1.876181 9.5e-4,0.701665 -0.262674,1.425635 -0.644227,1.876398 -0.381734,0.450811 -0.904027,0.686166 -1.363159,0.686166 -0.458939,0 -0.978058,-0.235403 -1.359828,-0.686166 -0.381734,-0.450811 -0.648411,-1.174733 -0.64745,-1.876398 -9.61e-4,-0.701352 0.265391,-1.425286 0.64745,-1.876181 0.381734,-0.450811 0.900937,-0.685902 1.359828,-0.685902 z m -4.097916,1.258046 c -0.103646,0.423084 -0.156335,0.861402 -0.155878,1.304037 v 0 c -0.0012,1.232086 0.404916,2.427873 1.18238,3.345403 0.09956,0.116391 0.204502,0.229487 0.314472,0.334468 l -12.899344,4.12277 0.0927,-6.619263 11.465341,-2.490734 z"
       id="path6899" />
  </g>
</svg>
