<?xml version="1.0" encoding="UTF-8" standalone="no"?>
<!-- Created with Inkscape (http://www.inkscape.org/) -->

<svg
   xmlns:dc="http://purl.org/dc/elements/1.1/"
   xmlns:cc="http://creativecommons.org/ns#"
   xmlns:rdf="http://www.w3.org/1999/02/22-rdf-syntax-ns#"
   xmlns:svg="http://www.w3.org/2000/svg"
   xmlns="http://www.w3.org/2000/svg"
   xmlns:sodipodi="http://sodipodi.sourceforge.net/DTD/sodipodi-0.dtd"
   xmlns:inkscape="http://www.inkscape.org/namespaces/inkscape"
   width="150"
   height="400"
   viewBox="0 0 150 400"
   id="svg2"
   version="1.1"
   inkscape:version="0.92.0 r15299"
   sodipodi:docname="angry_locksmith.svg">
  <defs
     id="defs4" />
  <sodipodi:namedview
     id="base"
     pagecolor="#ffffff"
     bordercolor="#666666"
     borderopacity="1.0"
     inkscape:pageopacity="0.0"
     inkscape:pageshadow="2"
     inkscape:zoom="1.4"
     inkscape:cx="-56.817748"
     inkscape:cy="223.40578"
     inkscape:document-units="px"
     inkscape:current-layer="layer1"
     showgrid="false"
     units="px"
     inkscape:window-width="1920"
     inkscape:window-height="1017"
     inkscape:window-x="-8"
     inkscape:window-y="-8"
     inkscape:window-maximized="1"
     showguides="true"
     inkscape:guide-bbox="true">
    <sodipodi:guide
       position="240,765.71429"
       orientation="0,1"
       id="guide4708"
       inkscape:locked="false" />
  </sodipodi:namedview>
  <metadata
     id="metadata7">
    <rdf:RDF>
      <cc:Work
         rdf:about="">
        <dc:format>image/svg+xml</dc:format>
        <dc:type
           rdf:resource="http://purl.org/dc/dcmitype/StillImage" />
        <dc:title />
      </cc:Work>
    </rdf:RDF>
  </metadata>
  <g
     inkscape:label="Layer 1"
     inkscape:groupmode="layer"
     id="layer1"
     transform="translate(0,-727.36216)">
    <path
       sodipodi:nodetypes="cccsssscsssssccsssssssssscssscccsssssssssssscssssssssssssssssscssssssssssssssssssscscsssscsssssssccczzszzsssssscccsscccsscsccscscssssscs"
       inkscape:connector-curvature="0"
       id="path4163"
       d="m 72.355196,727.36644 c -0.662043,0.008 -1.355645,0.0314 -2.085069,0.0649 -7.365887,0.12398 -16.920405,2.34571 -19.558941,10.80887 -0.643493,2.5479 -0.02832,12.77129 0.894206,14.86837 0.437765,0.99501 0.04017,1.42895 -1.409429,1.53746 -3.042746,0.22779 -6.619698,3.27884 -6.937902,5.91717 -0.302854,2.51099 2.427783,4.57564 8.058792,4.00147 2.919144,-0.29767 2.995355,1.07177 3.028271,2.60834 0.0073,0.35679 0.166598,1.12399 -0.582827,0.83821 -2.599822,-0.99144 -1.673891,4.97233 1.814492,9.2879 0.852346,1.05444 1.415589,1.59381 2.120649,1.61353 0.628537,0.0177 0.905491,-0.75067 1.032692,-0.5703 0.706783,1.0022 0.709567,3.45956 0.769816,3.62277 1.305692,3.53808 4.281762,6.06393 4.039103,9.53175 -0.295418,2.23134 -2.631086,6.10821 -2.631086,6.10821 -5.745682,6.08204 -10.407337,8.99177 -19.553277,12.20811 -10.558494,3.71306 -15.893113,8.85649 -16.78124,16.17875 -0.237614,1.95912 -1.075027,5.09065 -1.860791,6.95953 -0.785762,1.86889 -1.427879,4.22304 -1.427879,5.23165 0,1.0086 -1.064642,4.07046 -2.366111,6.80437 -1.590742,3.34164 -2.219027,5.88541 -1.914725,7.76076 0.578303,3.5637 -1.330546,13.66041 -3.292933,17.41438 -0.830651,1.58894 -1.510216,3.93972 -1.510216,5.22317 0,1.28333 -0.646165,3.31164 -1.434989,4.50803 -1.9708267,2.98911 -0.9223397,11.63512 1.706092,14.06862 2.034339,1.88343 4.235038,7.33721 4.256692,10.54927 0.0064,1.12783 0.576235,2.03119 1.278856,2.03119 1.156309,0 1.589235,0.56343 2.42853,3.15957 0.160528,0.4965 1.081614,1.71518 2.045332,2.70823 0.96371,0.99304 3.120108,3.90085 4.793217,6.46162 l 3.041716,4.65612 0.133417,12.63552 c 0.07302,6.9498 -0.147076,13.08613 -0.489681,13.63702 -0.98088,1.57719 1.256622,11.09176 3.26881,13.89784 1.759786,2.45431 1.769309,2.68442 0.281045,6.79731 -1.458413,4.03045 -1.451821,4.64148 0.109288,11.45221 0.906983,3.95691 1.612871,9.22626 1.568404,11.70882 -0.225864,12.60042 -2.154677,53.59282 -2.930998,62.28882 -0.487576,5.4615 -0.908517,14.4734 -0.933948,20.0266 -0.02551,5.5534 -0.452336,11.1609 -0.949566,12.4608 -0.497216,1.2996 -1.306815,5.8951 -1.799762,10.2136 -0.797211,6.9838 -1.294819,8.4133 -4.502248,12.9358 -5.833725,8.2257 -6.067983,13.3861 -0.711105,15.7008 4.10585,1.774 6.509131,1.629 10.905027,-0.6561 2.103476,-1.0934 4.131788,-1.9057 4.506504,-1.8055 0.374718,0.101 0.681298,-0.3459 0.681298,-0.9929 0,-2.1162 5.553324,-8.7538 7.323969,-8.7538 2.557961,0 4.819525,-3.981 4.15024,-7.3065 -0.306774,-1.5243 -0.145369,-3.5374 0.359099,-4.4741 0.504483,-0.9367 1.117685,-4.4587 1.3626,-7.8258 0.244933,-3.3669 0.851172,-8.7621 1.346984,-11.9893 1.007536,-6.5583 1.482612,-11.6176 2.33061,-24.8254 0.318778,-4.965 0.830392,-9.4335 1.136925,-9.9301 0.60821,-0.9851 1.513911,-6.8402 2.791894,-18.0548 0.723684,-6.3503 1.550604,-9.5689 5.571042,-21.6655 0.495038,-1.4897 1.534044,-8.3956 2.309304,-15.34662 0.775258,-6.95116 1.777426,-13.85705 2.226996,-15.34668 0.44959,-1.48948 1.389749,-6.00868 2.089331,-10.04286 0.699573,-4.0342 1.560932,-7.79928 1.9133,-8.36584 1.164728,-1.87287 1.927729,-0.30031 2.133331,4.39522 0.111551,2.54788 0.902365,5.93141 1.757169,7.51806 3.473821,6.44799 6.111539,16.09496 7.081255,25.89449 0.318809,3.22193 1.162906,8.08073 1.874985,10.79763 0.71211,2.7168 1.056286,5.6864 0.765036,6.5984 -0.291249,0.9121 -0.154726,2.1468 0.302322,2.7436 0.840651,1.0977 2.132528,6.5476 3.896181,16.4311 0.531595,2.9791 1.579072,7.9611 2.327769,11.0712 0.748729,3.1103 1.122172,6.039 0.830335,6.5081 -0.291837,0.4693 -0.147081,1.5809 0.320778,2.4699 1.569027,2.9818 2.747907,8.7833 3.257453,16.0307 0.479894,6.8258 0.93049,9.9633 3.24468,22.5981 0.54566,2.979 1.48179,8.6378 2.08082,12.5749 1.01311,6.6585 1.27611,7.2332 3.77268,8.2473 1.47612,0.5996 3.14427,0.9144 3.70741,0.6996 1.43489,-0.5472 3.25584,1.8871 3.95579,5.288 0.81225,3.9469 7.56184,7.4019 14.56701,7.4561 4.52719,0.034 4.99414,-0.1522 5.52845,-2.2187 0.83581,-3.2325 -1.18992,-9.3036 -4.4838,-13.4366 -5.96347,-7.4828 -7.9734,-16.6134 -9.16489,-41.6304 -0.4138,-8.6888 -0.98563,-17.626 -1.27033,-19.8604 -1.28754,-10.1034 -2.69136,-31.6871 -2.40726,-37.0121 0.1722,-3.2274 0.29301,-10.1333 0.2697,-15.3466 -0.0232,-5.21332 -0.0597,-13.54106 -0.0809,-18.50607 -0.0214,-4.96513 0.19861,-10.24601 0.48825,-11.73563 1.03693,-5.33251 1.08244,-19.71037 0.0682,-21.59373 -0.55573,-1.03189 -1.11115,-5.71986 -1.23486,-10.41815 -0.21633,-8.21617 -0.12476,-8.66833 2.40301,-11.83998 4.11024,-5.15724 10.34622,-11.06602 13.45849,-12.75262 2.68971,-1.45759 2.8373,-1.82071 2.8373,-6.94396 0,-3.00238 0.45067,-5.68155 1.01345,-6.02724 0.60544,-0.37183 0.83913,-2.14886 0.58195,-4.41635 -0.27141,-2.39295 0.0252,-4.41381 0.80334,-5.47141 1.59653,-2.16974 1.55786,-5.62163 -0.16037,-13.96989 -0.76644,-3.72381 -1.99872,-10.83289 -2.73797,-15.79789 -0.73928,-4.96506 -1.90497,-12.27724 -2.59036,-16.24927 -0.6854,-3.97205 -1.26268,-8.08089 -1.28312,-9.13036 -0.0528,-2.71248 -7.09668,-16.57819 -9.91005,-19.50758 -1.29854,-1.35213 -4.44241,-3.12807 -6.98473,-3.94667 -5.10505,-0.18264 -11.83007,-6.98018 -15.09218,-8.04705 -1.012566,-0.31938 -3.914321,-3.05642 -6.448195,-6.08219 0,0 -3.324259,-3.31639 -3.964954,-5.40987 -0.640697,-2.09348 -0.215887,-4.1646 -0.02064,-6.03093 0.195232,-1.86632 2.376653,-8.47534 2.789207,-9.1772 0,0 -0.252787,-0.64433 1.533269,-0.64722 1.786069,-0.003 0.964375,-13.21609 -1.092779,-12.33023 -2.057145,0.88587 -1.522324,0.0264 -1.484962,-0.46355 0.05625,-0.73837 1.147047,-2.10542 1.629099,-2.36929 0.801938,-0.43895 2.440265,-1.29901 4.087799,-2.88595 2.176478,-2.09639 2.996296,-2.24152 2.996296,-4.3698 0,-3.47504 -0.936953,-4.18795 -6.338917,-4.81838 -3.556403,-0.41505 -4.174328,-0.81469 -4.902506,-3.18215 C 84.93061,730.12746 82.285948,727.23375 72.355261,727.36645 Z M 110.3759,873.17687 c 0.84362,0.28151 0.9689,0.80686 1.45204,1.30614 0.36538,0.37769 0.15136,0.93071 0.40166,1.55159 0.3368,0.83542 0.91253,2.26942 0.82608,3.16526 -0.0866,0.89583 0.44739,1.4952 -0.004,2.27518 -0.27844,0.4807 -0.70363,0.88144 -0.91125,1.39639 -0.62293,1.63655 -0.29143,2.99182 -0.0398,4.35013 0.42651,0.88366 0.94096,1.74598 1.12839,2.70813 0.2096,1.07625 -0.0228,2.22997 -0.63163,3.14414 -0.60873,0.91406 -1.41795,1.57789 -2.49667,1.80686 -0.0765,-1.50503 -0.0815,-3.01387 -0.0144,-4.51931 0.0625,-1.39616 0.18656,-2.79047 0.16607,-4.1879 -0.0191,-1.31135 -0.16535,-2.61967 -0.15612,-3.9311 0.0105,-1.42286 0.20301,-2.83749 0.30232,-4.257 0.11201,-1.60031 0.10465,-3.20933 -0.0227,-4.80851 z m -72.857782,5.81419 c -0.09155,3.69076 0,13.58765 0,13.58765 0,0 -1.560956,-0.27344 -2.019762,-2.96349 -0.458807,-2.69016 -1.329805,-2.91935 -0.779234,-4.65197 0.225885,-0.71088 0.661227,-2.54638 1.198017,-4.27212 0.457929,-1.47206 1.014673,-2.8891 1.305775,-3.18902 0.199359,-0.20544 0.317142,0.60422 0.295204,1.48895 z"
       style="fill:#4d4d4d;fill-opacity:1;stroke-width:1" />
  </g>
</svg>
