<?xml version="1.0" encoding="UTF-8" standalone="no"?>
<!-- Created with Inkscape (http://www.inkscape.org/) -->

<svg
   xmlns:dc="http://purl.org/dc/elements/1.1/"
   xmlns:cc="http://creativecommons.org/ns#"
   xmlns:rdf="http://www.w3.org/1999/02/22-rdf-syntax-ns#"
   xmlns:svg="http://www.w3.org/2000/svg"
   xmlns="http://www.w3.org/2000/svg"
   xmlns:sodipodi="http://sodipodi.sourceforge.net/DTD/sodipodi-0.dtd"
   xmlns:inkscape="http://www.inkscape.org/namespaces/inkscape"
   width="100"
   height="400"
   viewBox="0 0 100 400"
   id="svg2"
   version="1.1"
   inkscape:version="0.92.0 r15299"
   sodipodi:docname="lookout.svg">
  <defs
     id="defs4" />
  <sodipodi:namedview
     id="base"
     pagecolor="#ffffff"
     bordercolor="#666666"
     borderopacity="1.0"
     inkscape:pageopacity="0.0"
     inkscape:pageshadow="2"
     inkscape:zoom="1.979899"
     inkscape:cx="75.616748"
     inkscape:cy="199.43867"
     inkscape:document-units="px"
     inkscape:current-layer="layer1"
     showgrid="false"
     units="px"
     inkscape:window-width="1920"
     inkscape:window-height="1017"
     inkscape:window-x="-8"
     inkscape:window-y="-8"
     inkscape:window-maximized="1"
     showguides="false"
     inkscape:guide-bbox="true">
    <sodipodi:guide
       position="-825.7143,765"
       orientation="0,1"
       id="guide4688"
       inkscape:label=""
       inkscape:color="rgb(0,0,255)"
       inkscape:locked="false" />
    <sodipodi:guide
       position="94.285715,260"
       orientation="0,1"
       id="guide4690"
       inkscape:label=""
       inkscape:color="rgb(0,0,255)"
       inkscape:locked="false" />
    <sodipodi:guide
       position="75.000001,1322.8571"
       orientation="1,0"
       id="guide4692"
       inkscape:label=""
       inkscape:color="rgb(0,0,255)"
       inkscape:locked="false" />
  </sodipodi:namedview>
  <metadata
     id="metadata7">
    <rdf:RDF>
      <cc:Work
         rdf:about="">
        <dc:format>image/svg+xml</dc:format>
        <dc:type
           rdf:resource="http://purl.org/dc/dcmitype/StillImage" />
        <dc:title></dc:title>
      </cc:Work>
    </rdf:RDF>
  </metadata>
  <g
     inkscape:label="Layer 1"
     inkscape:groupmode="layer"
     id="layer1"
     transform="translate(0,-652.36216)">
    <path
       inkscape:connector-curvature="0"
       id="path6240"
       d="m 22.961469,989.05413 c -0.700955,-0.25396 -1.705439,-0.92075 -2.232189,-1.48171 l -0.957705,-1.01987 0.335199,-1.44077 c 0.184364,-0.7924 0.528295,-1.74829 0.764272,-2.12428 0.235998,-0.37591 0.512356,-1.04086 0.614142,-1.47771 0.101817,-0.43678 0.726792,-1.4135 1.3889,-2.17036 0.662108,-0.75695 1.597653,-2.12197 2.078979,-3.03353 0.481338,-0.91155 1.101921,-1.95153 1.379087,-2.31115 0.366869,-0.47591 0.424881,-0.74903 0.213302,-1.00396 -0.428369,-0.51616 -0.209015,-2.89456 0.287863,-3.12113 0.225554,-0.10277 0.840715,-0.41153 1.367034,-0.68602 0.526299,-0.2745 1.21353,-0.62693 1.527168,-0.7833 0.548786,-0.27345 0.530208,-0.32225 -0.49362,-1.29619 l -1.063862,-1.01202 0.147346,-3.78727 c 0.08101,-2.083 0.1766,-4.34089 0.212357,-5.01756 0.03572,-0.67668 -0.09425,-4.18315 -0.288799,-7.79217 -0.194577,-3.60893 -0.347419,-9.58846 -0.339644,-13.28781 0.0105,-4.90432 -0.09404,-7.23688 -0.385467,-8.61229 -0.219795,-1.03742 -0.401753,-2.44604 -0.40437,-3.13026 -0.0021,-0.68422 -0.152389,-1.39162 -0.332824,-1.57209 -0.182462,-0.18248 -1.058083,-0.32809 -1.972601,-0.32809 -1.370692,0 -2.033052,-0.18871 -3.978061,-1.13344 -1.283468,-0.62346 -2.801936,-1.50057 -3.374395,-1.94916 -0.572437,-0.44859 -1.987322,-1.17902 -3.144175,-1.62308 -1.156843,-0.44412 -2.533974,-1.14741 -3.060284,-1.56298 -0.526309,-0.41549 -1.3480682,-0.95766 -1.8261167,-1.2048 -0.478059,-0.24714 -0.9451378,-0.68859 -1.0379399,-0.98098 -0.3287161,-1.0357 0.4540705,-9.56135 1.4830475,-16.1522 0.8890381,-5.6946 1.3216731,-8.88938 1.6476261,-12.16709 0.777302,-7.81634 2.010555,-14.67766 3.980403,-22.14547 0.793746,-3.0091 0.903066,-3.7719 0.712712,-4.9729 -0.123662,-0.78023 -0.124356,-2.13359 -0.0021,-3.00748 0.320803,-2.28251 -0.104865,-4.29017 -1.165775,-5.4985 -0.940073,-1.07069 -1.17875,-1.57818 -3.047506,-6.47984 -2.2950591,-6.01988 -2.6666353,-7.1345 -2.9683892,-8.90436 -0.2369648,-1.3898 -0.5202046,-2.02397 -1.3508737,-3.02454 -0.7363331,-0.88693 -1.1857802,-1.80238 -1.5009838,-3.05721 -0.4468096,-1.77875 -0.445265,-1.80138 0.2226221,-3.26024 0.4415456,-0.96445 0.6283897,-1.76993 0.5439725,-2.34507 -0.1584633,-0.84555 0.2379525,-1.50965 0.2488804,-2.27116 0.030577,-2.13324 -1.7582594,-4.97841 -0.5143835,-6.37967 0.2164647,-0.15828 0.4783323,-0.55484 0.5819256,-0.88123 0.1036037,-0.3264 0.4966467,-1.04774 0.8734556,-1.60301 0.6232305,-0.91838 0.6468513,-1.05182 0.2615419,-1.47759 -0.5449708,-0.60217 -0.5333285,-0.8141 0.082484,-1.50097 0.2783118,-0.31044 0.6572222,-1.12678 0.8420278,-1.81407 0.1847951,-0.68732 0.8798343,-1.97674 1.5445263,-2.8654 0.664683,-0.88868 1.221044,-1.7412 1.236353,-1.89454 0.01524,-0.15333 0.06788,-1.03651 0.116759,-1.9626 0.558284,-2.56787 -0.151749,-3.82468 0.0021,-4.90855 0.105075,-0.73505 0.437364,-2.01311 0.738435,-2.84017 0.30106,-0.82706 0.696152,-2.36497 0.877984,-3.41759 0.292487,-1.69324 0.525301,-2.31198 1.491643,-3.96439 0.557064,-1.04188 0.918659,-2.02641 1.457892,-3.11058 1.029103,-2.68963 1.581261,-5.88066 3.437839,-8.23582 0.966962,-1.16895 2.243432,-2.05055 2.968974,-2.05055 0.342807,0 1.55764,-0.37116 2.699636,-0.8248 1.141984,-0.45367 2.1819,-0.75959 2.310921,-0.67985 0.393169,0.243 5.097149,-1.09131 5.592052,-1.58621 0.25489,-0.25488 0.688303,-0.46343 0.963137,-0.46343 0.755856,0 3.266189,-1.81308 5.609977,-4.05179 l 2.095172,-2.0012 -0.551643,-1.82649 c -0.303393,-1.00456 -0.539465,-2.01101 -0.524586,-2.23658 0.07513,-1.14017 -0.05474,-1.29283 -1.07397,-1.26151 -0.957484,0.0294 -1.052251,-0.0462 -1.67585,-1.33585 -0.986957,-2.04125 -1.957186,-4.94167 -1.957186,-5.85082 0,-0.62058 -0.214248,-0.93546 -0.942858,-1.38577 -2.065341,-1.27645 -4.387758,-4.90505 -4.608541,-7.20049 -0.21823,-2.26895 1.054311,-4.95551 2.898847,-6.11991 1.980934,-2.20019 2.106761,-1.46232 4.724417,-2.3495 l 2.20859,-0.75679 0.798894,-1.68642 c 0.857516,-1.81017 3.258802,-5.14567 4.446347,-6.17619 0.399873,-0.347 1.430993,-0.99294 2.291347,-1.43539 1.333273,-0.68567 1.875806,-0.80448 3.673521,-0.80448 5.570312,0 11.005214,2.87107 11.842051,6.25572 0.171724,0.69465 0.578668,1.81662 0.904274,2.49331 0.6373,1.32446 0.640264,1.33567 0.702594,2.66571 0.02753,0.58592 0.180287,0.88857 0.448658,0.88857 0.599695,0 4.793147,3.05471 5.947499,4.33243 1.499482,1.65973 1.908717,2.65944 2.045913,4.99795 0.10455,1.78132 0.04634,2.1827 -0.379131,2.61429 -0.276452,0.28042 -0.81019,0.87686 -1.186127,1.32542 -0.375936,0.44854 -1.39096,1.3664 -2.25561,2.03969 -0.864651,0.67328 -1.572088,1.32443 -1.572088,1.44701 0,0.12259 -0.379341,0.35514 -0.843026,0.51677 -0.597224,0.20819 -0.807143,0.43114 -0.719952,0.76458 0.06777,0.25888 -0.167468,0.95072 -0.5226,1.53739 -0.355122,0.58668 -0.648648,1.25124 -0.652283,1.4768 -0.01502,0.93517 -1.669261,3.04882 -2.772768,3.54287 -0.837163,0.37481 -1.240419,0.78529 -1.633074,1.66231 -0.28677,0.64054 -0.447492,1.23856 -0.357149,1.32896 0.09036,0.0904 0.621928,0.34888 1.181304,0.57445 0.660638,0.26638 1.899165,1.38311 3.534277,3.18671 1.384445,1.52713 2.866294,2.89829 3.29293,3.04703 0.426657,0.14873 1.395614,0.89028 2.153215,1.64789 1.182827,1.18284 1.705186,1.47744 3.696743,2.0849 4.962528,1.51367 10.207265,4.17681 12.274739,6.23277 1.381744,1.37408 2.160706,3.84876 2.345175,7.45039 0.101608,1.98371 0.262382,2.87341 0.585887,3.24178 0.381947,0.43494 0.447556,1.35558 0.457812,6.42506 0.01072,5.32121 0.07281,6.11008 0.61517,7.83034 0.369643,1.17231 0.603183,2.61669 0.603183,3.73055 0,1.14726 0.226877,2.50879 0.615171,3.69186 0.571565,1.74145 0.615171,2.35876 0.615171,8.70957 v 6.83527 l -0.751086,1.50364 c -0.725594,1.45266 -0.733894,1.51792 -0.245181,1.92507 1.234104,1.02808 1.458379,3.05394 0.724386,6.5432 -0.434201,2.06412 -0.910884,3.1693 -1.96532,4.55661 -0.365145,0.48045 -0.759229,1.51479 -0.895059,2.34922 -0.662224,4.06888 -3.865462,12.41494 -5.26093,13.7074 -0.840588,0.77856 -0.863442,0.78265 -3.296901,0.59229 l -2.450462,-0.1917 0.182989,2.00509 c 0.246967,2.70605 1.162968,11.57498 1.647227,15.94882 0.216453,1.95486 0.58577,5.89192 0.820707,8.74902 0.234959,2.8571 0.669117,8.14753 0.964776,11.75649 0.295681,3.60898 0.679005,10.44213 0.851821,15.18475 0.407953,11.19552 0.55923,10.86445 -5.310903,11.62515 -4.76174,0.61712 -9.480872,1.39145 -9.677404,1.58802 -0.09803,0.098 -0.272249,1.99189 -0.387064,4.20848 -0.213334,4.11863 -0.868223,10.7667 -1.326202,13.4627 -0.140517,0.82705 -0.389334,3.59532 -0.552967,6.1517 -0.163612,2.55634 -0.426962,5.74159 -0.585203,7.07835 -0.213692,1.80539 -0.204592,2.72733 0.03541,3.5845 0.269496,0.96267 0.243858,1.44361 -0.154722,2.90095 -0.262792,0.96083 -0.636785,2.06703 -0.831089,2.45819 -0.450835,0.90764 -1.942099,2.22035 -3.038019,2.6743 -1.316378,0.54531 -1.395824,1.84779 -0.248102,4.06719 0.244308,0.47247 0.444214,1.09548 0.444214,1.38451 0,0.90013 1.320969,4.62303 2.181123,6.14722 0.71764,1.27149 0.829713,1.76131 0.891917,3.8978 0.0642,2.2047 0.0042,2.54844 -0.612376,3.51795 -1.018995,1.60184 -2.649137,3.08045 -3.636767,3.29857 -3.521647,0.77792 -7.457614,0.25748 -8.824859,-1.16658 -1.278813,-1.33209 -1.485989,-2.1846 -1.287765,-5.29942 0.259577,-4.07902 0.16626,-9.74513 -0.200325,-12.16348 -0.243869,-1.60884 -0.240936,-2.35979 0.01282,-3.26608 0.294157,-1.05052 0.265671,-1.30848 -0.265797,-2.40643 -0.591025,-1.22087 -0.593295,-1.2878 -0.318472,-9.37873 0.188893,-5.56112 0.461111,-9.40809 0.85718,-12.11347 0.319197,-2.18045 0.67974,-5.50235 0.801217,-7.382 0.136482,-2.11214 0.403498,-3.8876 0.699011,-4.64792 0.583196,-1.50061 0.677039,-4.67696 0.156698,-5.30394 -0.399327,-0.48116 -2.716069,-0.5796 -6.10611,-0.25945 l -1.845503,0.17434 -0.0021,4.40334 c -0.0021,2.42179 -0.119291,5.44906 -0.262339,6.72727 -0.236262,2.11095 -0.443469,21.23289 -0.254786,23.51299 0.11036,1.33355 -0.491719,5.0622 -0.965281,5.978 -0.296437,0.57325 -0.32963,1.02527 -0.134737,1.83421 0.354133,1.46996 0.343437,4.63023 -0.01797,5.30547 -0.253451,0.47359 -0.487253,3.29898 -0.537331,6.49335 -0.0095,0.62437 -0.208889,1.0105 -0.680223,1.31934 -0.428864,0.28103 -0.606997,0.59146 -0.499726,0.87099 0.119281,0.31082 0.06399,0.3708 -0.194672,0.211 -0.220122,-0.1361 -0.478711,-0.0695 -0.661636,0.17122 -0.523934,0.68833 -2.902335,2.14959 -3.498897,2.14959 -0.315614,0 -0.975768,0.41385 -1.467013,0.91973 -0.491246,0.50578 -2.097683,1.51745 -3.569866,2.24806 -2.508556,1.24496 -2.823413,1.33208 -5.012689,1.38752 -1.634009,0.0415 -2.719002,-0.0803 -3.610477,-0.40251 z m 3.365368,-143.35724 c 0.559208,-0.55921 0.579446,-0.75768 0.425217,-4.16988 -0.323841,-7.1645 -1.092053,-10.56075 -2.152711,-9.51704 -0.295848,0.29112 -0.199158,0.80534 0.55011,2.92564 1.032013,2.9204 0.991822,3.40021 -0.394136,4.70437 -0.762466,0.71748 -0.929482,1.07522 -0.929482,1.99099 0,0.61399 0.184554,1.55804 0.410107,2.09787 0.225565,0.53984 0.410118,1.18797 0.410118,1.44029 0,0.4793 0.498769,1.11491 0.874895,1.11491 0.1203,0 0.482955,-0.26421 0.805882,-0.58715 z m 51.459986,-21.30524 c 0.396216,-0.31167 0.720393,-0.66874 0.720393,-0.79348 0,-0.18108 -1.419971,-0.82713 -1.817931,-0.82713 -0.05275,0 -0.09593,0.49214 -0.09593,1.09363 0,1.24465 0.180035,1.32414 1.19345,0.52698 z m -53.144956,-4.0448 c 0.0042,-0.53828 -0.09919,-0.61934 -0.610968,-0.4822 -0.338351,0.0907 -0.791981,0.16655 -1.008088,0.1686 -0.255825,0.002 -0.118525,0.29011 0.393558,0.82463 0.84496,0.88194 1.217491,0.72659 1.225498,-0.51103 z"
       style="fill:#4d4d4d;fill-opacity:1;stroke-width:0.99999994"
       sodipodi:nodetypes="cscssccssssssscssssscsssssssssssscsssssscacsssssscccsscccsscssscssssssscccsssscscsssssssssscsscsssssssccsssscsssccsscsssssscsscccscssssscsssscsssssssccsssssscccsscscccsssssssssscsssccscsc" />
  </g>
</svg>
