<?xml version="1.0" encoding="UTF-8" standalone="no"?>
<!-- Created with Inkscape (http://www.inkscape.org/) -->

<svg
   xmlns:dc="http://purl.org/dc/elements/1.1/"
   xmlns:cc="http://creativecommons.org/ns#"
   xmlns:rdf="http://www.w3.org/1999/02/22-rdf-syntax-ns#"
   xmlns:svg="http://www.w3.org/2000/svg"
   xmlns="http://www.w3.org/2000/svg"
   xmlns:sodipodi="http://sodipodi.sourceforge.net/DTD/sodipodi-0.dtd"
   xmlns:inkscape="http://www.inkscape.org/namespaces/inkscape"
   width="100"
   height="400"
   viewBox="0 0 100 400"
   id="svg2"
   version="1.1"
   inkscape:version="0.92.0 r15299"
   sodipodi:docname="script kiddie.svg">
  <defs
     id="defs4" />
  <sodipodi:namedview
     id="base"
     pagecolor="#ffffff"
     bordercolor="#666666"
     borderopacity="1.0"
     inkscape:pageopacity="0.0"
     inkscape:pageshadow="2"
     inkscape:zoom="1.4"
     inkscape:cx="74.539236"
     inkscape:cy="217.90278"
     inkscape:document-units="px"
     inkscape:current-layer="layer1"
     showgrid="false"
     units="px"
     inkscape:window-width="1920"
     inkscape:window-height="1017"
     inkscape:window-x="-8"
     inkscape:window-y="-8"
     inkscape:window-maximized="1"
     showguides="false"
     inkscape:guide-bbox="true">
    <sodipodi:guide
       position="-1008.5714,760"
       orientation="0,1"
       id="guide4139"
       inkscape:label=""
       inkscape:color="rgb(0,0,255)"
       inkscape:locked="false" />
    <sodipodi:guide
       position="-760.00001,260"
       orientation="0,1"
       id="guide4141"
       inkscape:label=""
       inkscape:color="rgb(0,0,255)"
       inkscape:locked="false" />
    <sodipodi:guide
       position="75.000001,517.14286"
       orientation="1,0"
       id="guide4143"
       inkscape:label=""
       inkscape:color="rgb(0,0,255)"
       inkscape:locked="false" />
  </sodipodi:namedview>
  <metadata
     id="metadata7">
    <rdf:RDF>
      <cc:Work
         rdf:about="">
        <dc:format>image/svg+xml</dc:format>
        <dc:type
           rdf:resource="http://purl.org/dc/dcmitype/StillImage" />
        <dc:title></dc:title>
      </cc:Work>
    </rdf:RDF>
  </metadata>
  <g
     inkscape:label="Layer 1"
     inkscape:groupmode="layer"
     id="layer1"
     transform="translate(0,-652.36216)">
    <path
       style="fill:#4d4d4d;fill-opacity:1;stroke-width:1"
       d="m 63.380988,714.05641 c -0.273783,0.0191 -0.345631,0.064 -0.437557,0.15037 -0.241719,0.22709 -0.686887,0.35812 -1.21643,0.35812 -0.224309,0 -0.550019,0.0417 -0.723652,0.0927 -0.173621,0.051 -0.539234,0.12829 -0.812608,0.17172 -0.273351,0.0434 -0.842678,0.16377 -1.265147,0.26758 -0.422468,0.10388 -1.004035,0.23336 -1.292329,0.28769 -0.455051,0.0857 -0.599625,0.16929 -1.096767,0.63435 -0.316572,0.29613 -0.56726,0.60615 -0.560395,0.69311 0.0072,0.0866 -0.03907,0.14684 -0.101953,0.13414 -0.07298,-0.0147 -0.211841,0.23173 -0.495808,0.42585 -0.251384,0.17186 -0.644433,0.28178 -0.796882,0.44025 -0.127814,0.13283 -0.432797,0.42899 -0.677761,0.65833 -0.460737,0.43134 -0.938355,1.30054 -1.12484,2.04687 -0.05759,0.23063 -0.250771,0.55925 -0.480948,0.81844 -0.211553,0.23818 -0.440358,0.57314 -0.508504,0.74429 -0.06805,0.17115 -0.39062,0.79916 -0.716594,1.3956 -0.536709,0.982 -0.598098,1.14839 -0.649868,1.76215 -0.03354,0.39864 -0.01924,0.76137 0.03487,0.88074 0.07154,0.15766 0.05735,0.24147 -0.06384,0.37541 -0.133513,0.14752 -0.138803,0.20059 -0.03679,0.3673 0.101353,0.16576 0.09763,0.21098 -0.02441,0.30235 -0.279301,0.20933 -0.364206,0.49966 -0.303407,1.03711 0.04172,0.36893 0.0048,0.77987 -0.128139,1.42136 -0.31109,1.50174 -0.323389,1.74915 -0.110489,2.24279 0.113735,0.2638 0.188505,0.62993 0.188505,0.92485 0,0.68632 0.113255,1.16187 0.571864,2.40005 l 0.188325,0.50833 -0.479902,0.55402 c -0.536156,0.6189 -0.519997,0.49005 -0.244988,1.9535 0.07466,0.39763 0.138058,0.92313 0.140679,1.16772 0.0036,0.24564 0.06107,0.50859 0.130784,0.5874 0.147615,0.16698 0.416192,0.92963 0.416192,1.18202 0,0.0959 0.05603,0.30804 0.124605,0.47125 0.193482,0.46041 0.307314,0.88705 0.372586,1.39647 0.03595,0.2805 0.12749,0.52825 0.228926,0.62004 0.09294,0.0842 0.213416,0.36716 0.267735,0.62887 0.08055,0.388 0.17789,0.55071 0.52756,0.8818 l 0.428901,0.40594 0.114337,1.07366 c 0.127466,1.19589 0.37754,2.21324 0.701939,2.85523 0.118424,0.23443 0.215508,0.50657 0.215508,0.60469 0,0.0982 0.03944,0.20291 0.08789,0.23281 0.04833,0.0298 0.158172,0.20508 0.243918,0.38935 0.08572,0.18429 0.234024,0.44325 0.329701,0.57557 0.144658,0.20006 0.181148,0.44367 0.216218,1.44589 0.06552,1.8717 -0.194517,4.25437 -0.504789,4.62625 -0.07141,0.0856 -0.257143,0.1486 -0.437894,0.1486 -0.361116,0 -0.717652,0.2254 -1.268152,0.80165 -0.211348,0.22123 -0.536661,0.47732 -0.722942,0.56905 -0.186305,0.0917 -0.481032,0.25768 -0.65499,0.36871 -0.229443,0.14645 -0.516775,0.21745 -1.045946,0.25874 -0.584176,0.0457 -0.862107,0.12231 -1.395233,0.38496 -0.366166,0.18039 -0.701422,0.32793 -0.745004,0.32793 -0.04352,0 -0.21504,0.10364 -0.381063,0.23033 -0.166022,0.12663 -0.458164,0.2541 -0.649158,0.28328 -0.191018,0.0291 -0.672507,0.20593 -1.070125,0.3929 -0.397629,0.18695 -0.905941,0.39266 -1.129601,0.45713 -0.22366,0.0644 -0.499306,0.17573 -0.612453,0.24728 -0.149371,0.0944 -0.378898,0.11758 -0.837856,0.0846 -0.347723,-0.0249 -0.650686,-0.0154 -0.673168,0.021 -0.04112,0.0665 -0.700111,0.1461 -2.124872,0.25681 -0.752098,0.0584 -0.776528,0.0678 -1.101889,0.4213 -0.205601,0.22336 -0.354997,0.49148 -0.391137,0.70159 -0.06288,0.36581 -0.247609,0.51839 -0.627265,0.51839 -0.152978,0 -0.352953,0.11962 -0.570794,0.34153 -0.214354,0.21829 -0.544969,0.4178 -0.916762,0.55314 -0.447777,0.16301 -0.71015,0.33908 -1.140362,0.76548 -1.034597,1.02549 -1.833379,1.68378 -2.270323,1.87109 -0.407765,0.17478 -0.92822,0.64083 -1.12377,1.00622 -0.04773,0.089 -0.164376,0.16167 -0.259452,0.16167 -0.09498,0 -0.428035,0.21247 -0.740075,0.47213 -0.312015,0.25968 -0.622372,0.48028 -0.689579,0.49015 -0.279061,0.041 -0.359421,0.12393 -0.417071,0.43119 -0.041,0.21875 -0.110489,0.32454 -0.214618,0.3267 -0.244304,0.005 -0.563809,0.21691 -0.680587,0.45113 -0.05903,0.11843 -0.290109,0.35318 -0.513433,0.52191 -0.223323,0.16874 -0.442799,0.38419 -0.48768,0.47867 -0.04485,0.0945 -0.126203,0.17241 -0.180727,0.17333 -0.05458,10e-4 -0.267086,0.17372 -0.472495,0.38405 -0.205398,0.21034 -0.736264,0.75064 -1.179725,1.20056 -0.443436,0.44993 -0.865027,0.8996 -0.936864,0.99935 -0.185463,0.25756 -1.071507,0.9388 -1.221022,0.9388 -0.06889,0 -0.422517,0.29482 -0.785774,0.65517 -0.363256,0.36034 -0.917507,0.83814 -1.231795,1.06182 -0.314287,0.22366 -0.764517,0.57947 -1.000404,0.79071 -0.235887,0.21123 -0.465174,0.38433 -0.50973,0.3846 -0.136555,10e-4 -0.696228,0.58181 -1.029872,1.06941 -0.173958,0.25423 -0.364832,0.46325 -0.42414,0.46437 -0.05927,10e-4 -0.160973,0.0748 -0.225909,0.16379 -0.158664,0.21744 -0.65767,0.56109 -0.814724,0.56109 -0.06949,0 -0.313097,0.1183 -0.541158,0.26299 -0.30515,0.19353 -0.444085,0.3546 -0.526141,0.60999 -0.06132,0.19086 -0.169786,0.41378 -0.240925,0.49543 -0.07118,0.0816 -0.159482,0.26156 -0.19644,0.39977 -0.07142,0.26711 -0.102434,0.29013 -0.735651,0.54751 -0.430764,0.17508 -1.48473,1.18042 -2.236082,2.133 -0.224574,0.28472 -0.626568,0.6826 -0.893438,0.88409 -0.266882,0.20149 -0.485204,0.4246 -0.485204,0.49578 0,0.13441 -0.17855,0.36131 -0.732115,0.93069 -0.178972,0.18408 -0.351751,0.44299 -0.383888,0.57539 -0.0321,0.13239 -0.296626,0.45772 -0.587746,0.72294 -0.291108,0.26522 -0.6361379,0.65327 -0.7668978,0.86238 -0.1307478,0.20909 -0.3150091,0.42158 -0.4094722,0.47214 -0.2159052,0.11553 -0.5774666,0.71785 -0.5203223,0.86679 0.023565,0.0613 -0.096423,0.24656 -0.2665212,0.41142 -0.1700984,0.16486 -0.3092261,0.37164 -0.3092261,0.4596 0,0.17276 -0.1832274,0.63984 -0.465775,1.18715 -0.097505,0.18877 -0.3197581,0.7581 -0.4938601,1.26515 -0.17409,0.50705 -0.3486609,1.00318 -0.3879394,1.10259 -0.039314,0.0994 -0.1282952,0.32306 -0.197859,0.49701 -0.081154,0.20285 -0.1222237,0.62422 -0.1146974,1.1748 0.00962,0.72527 0.062398,1.01167 0.3388743,1.84549 0.1799692,0.5428 0.3272363,1.05667 0.3272363,1.14194 0,0.14654 0.5028412,1.1786 1.0101067,2.07317 0.1268164,0.22366 0.3625593,0.65065 0.5238571,0.94887 0.1612857,0.29821 0.3619821,0.62353 0.4460094,0.72294 0.2518414,0.29798 0.6406945,0.90709 0.6406945,1.00358 0,0.0495 0.1568132,0.33197 0.3485892,0.62764 0.191775,0.29566 0.379655,0.63927 0.417419,0.76353 0.09474,0.31164 0.522919,1.08025 1.374758,2.46749 0.158568,0.25821 0.376505,0.66137 0.484314,0.8959 0.107844,0.23451 0.252659,0.47338 0.321754,0.53073 0.06913,0.0574 0.125674,0.21995 0.125674,0.36148 0,0.18094 0.08019,0.31666 0.270224,0.45713 0.148614,0.10989 0.293488,0.27355 0.322115,0.36376 0.02861,0.0903 0.231475,0.37411 0.450602,0.63081 0.219115,0.25671 0.583334,0.74247 0.809434,1.07947 0.372983,0.55595 1.317217,1.64036 2.470635,2.83743 0.239458,0.24851 0.500786,0.55827 0.580689,0.68834 0.07995,0.13007 0.793192,0.90273 1.585145,1.717 0.791977,0.81427 1.719752,1.78546 2.061704,2.15823 0.34194,0.37278 0.688858,0.67905 0.770769,0.68059 0.08188,0.002 0.561561,0.42857 1.065881,0.94886 3.840716,3.96234 5.861434,5.8786 6.669763,6.32489 0.275742,0.15223 0.384056,0.26957 0.384056,0.416 0,0.22795 0.137131,0.35811 0.225932,0.21445 0.03631,-0.0588 0.138935,-0.0296 0.27656,0.0787 0.12036,0.0946 0.369713,0.20048 0.554215,0.2351 0.184501,0.0346 0.488233,0.1409 0.674935,0.23616 0.442871,0.22592 0.636871,0.21864 1.41376,-0.0528 0.825689,-0.28847 0.939112,-0.28433 1.399296,0.0517 0.209149,0.15272 0.691804,0.45652 1.072409,0.67511 l 0.691876,0.39748 -0.04244,0.56744 c -0.06047,0.81005 -0.08007,0.87435 -0.437533,1.42595 -0.310958,0.47983 -0.320083,0.51792 -0.263359,1.09889 0.04665,0.47791 0.02849,0.64481 -0.08777,0.81084 -0.08055,0.11494 -0.146317,0.29252 -0.146317,0.39466 0,0.10207 -0.05639,0.26594 -0.125133,0.36411 -0.15085,0.21534 -0.507434,1.34262 -0.507434,1.60386 0,0.10268 -0.05446,0.25087 -0.120913,0.32934 -0.06649,0.0784 -0.173345,0.38661 -0.237402,0.68482 -0.06408,0.29821 -0.192618,0.63918 -0.285746,0.75772 -0.09306,0.11855 -0.169257,0.29996 -0.169257,0.40313 0,0.10315 -0.119987,0.43317 -0.266701,0.73335 -0.523292,1.07096 -0.673325,1.77148 -0.677942,3.16571 -0.0036,1.32566 0.02344,1.4489 0.491216,2.17412 0.224525,0.34806 0.371925,1.32646 0.401008,2.66127 0.01635,0.75561 0.06348,1.11773 0.17225,1.32693 0.12345,0.23737 0.151752,0.60645 0.161514,2.10863 l 0.01202,1.82078 0.401357,1.14459 c 0.220726,0.6296 0.477689,1.42946 0.571155,1.77737 0.24726,0.92047 0.596198,2.02833 0.760357,2.41451 0.07851,0.18479 0.142795,0.49281 0.142795,0.68465 0,0.19183 0.09714,0.58973 0.216037,0.88408 0.118785,0.29436 0.265728,0.77915 0.326515,1.07737 0.154577,0.75833 0.493139,1.57357 1.069415,2.57548 0.317714,0.55239 0.566875,1.1324 0.698945,1.62662 0.267531,1.00124 0.619787,2.05196 0.963687,2.87554 0.151944,0.36388 0.348156,0.91287 0.436139,1.21997 0.08789,0.30711 0.222253,0.74143 0.298285,0.96509 0.07598,0.22367 0.241514,0.83365 0.367825,1.35552 0.271487,1.12163 0.488679,1.90321 0.953973,3.434 0.767005,2.52338 0.807198,2.71473 0.995992,4.73231 0.06408,0.68473 0.141772,1.05397 0.256626,1.21998 0.236548,0.34181 0.251072,0.39493 0.641933,2.35236 0.195082,0.97691 0.40185,1.89718 0.459607,2.04492 0.103636,0.26517 0.135509,2.45748 0.04004,2.75818 -0.02573,0.0808 0.05963,0.30347 0.189383,0.49471 0.130892,0.19292 0.247742,0.50626 0.262445,0.70355 0.01455,0.19569 0.06504,0.38132 0.112053,0.41246 0.04713,0.0313 0.132034,0.19251 0.188854,0.35849 0.05675,0.16601 0.203461,0.38048 0.325817,0.47673 0.122332,0.0963 0.250868,0.26538 0.285578,0.37593 0.03475,0.11049 0.159037,0.29069 0.276392,0.40014 0.117342,0.10941 0.213392,0.30263 0.213392,0.42925 0,0.26298 0.06685,0.33575 1.025292,1.11563 0.384693,0.31306 0.733883,0.65984 0.776071,0.7708 0.04917,0.12922 0.02501,0.40081 -0.06745,0.75562 -0.128776,0.49425 -0.130808,0.66869 -0.01803,1.62376 0.06949,0.58857 0.13118,1.76143 0.136963,2.60642 0.006,0.9528 0.06973,1.91548 0.166083,2.53505 0.131337,0.84409 0.142518,1.24053 0.07286,2.55837 -0.04821,0.91176 -0.04893,1.69799 -0.0024,1.89295 0.04412,0.18337 0.140787,0.74006 0.214967,1.23708 0.07418,0.49701 0.21629,1.19847 0.315755,1.55887 0.09955,0.36032 0.257155,0.92965 0.350368,1.26514 0.09318,0.33551 0.276175,0.81916 0.406647,1.07489 0.130471,0.25569 0.237209,0.55195 0.237209,0.65816 0,0.10616 0.05783,0.33118 0.12832,0.50001 0.07057,0.16881 0.155635,0.52685 0.189214,0.79547 0.04929,0.39466 0.03162,0.51778 -0.09197,0.64141 -0.120901,0.12093 -0.13052,0.18051 -0.04545,0.28312 0.06985,0.084 0.08596,0.25949 0.04569,0.49754 -0.03811,0.22585 -0.02392,0.41386 0.03703,0.48731 0.306328,0.3691 0.75455,1.38994 0.781012,1.77896 0.01611,0.23649 0.113014,0.59442 0.215509,0.79532 0.102434,0.20085 0.186389,0.49357 0.186389,0.65039 0.0096,0.67575 0.393939,1.35374 0.543274,2.02641 0.04148,0.1491 0.199145,0.61674 0.350344,1.03921 0.151198,0.42246 0.276271,0.85848 0.277979,0.96898 0.0024,0.11049 0.07947,0.37484 0.172623,0.58737 0.257264,0.58701 0.385871,0.97812 0.469309,1.42579 0.04172,0.2237 0.122344,0.61001 0.179164,0.85849 0.05675,0.24853 0.112894,0.6349 0.124604,0.8587 0.01202,0.22376 0.06877,0.49571 0.126721,0.60417 0.178514,0.33356 0.13528,0.50682 -0.114578,0.45904 -0.677965,-0.12056 -0.4223,0.35177 0.112053,0.499 0.499414,0.0988 0.78724,0.45245 0.868899,1.06801 0.03487,0.26287 0.12137,0.58183 0.192208,0.70859 0.136807,0.24494 0.281309,0.79417 0.631341,2.39937 0.119266,0.54673 0.261207,1.13639 0.315406,1.31033 0.05422,0.17398 0.131998,0.66129 0.172972,1.08282 l 0.07454,0.76637 -0.343828,0.3908 c -0.383034,0.43514 -0.628684,1.04906 -0.628684,1.57138 0,0.26351 -0.07154,0.42528 -0.302337,0.68425 -0.166251,0.18656 -0.443929,0.56275 -0.617226,0.83611 -0.173296,0.27336 -0.49059,0.69964 -0.705112,0.94724 -0.404687,0.46706 -0.634527,0.90628 -0.634527,1.21309 0,0.098 -0.162644,0.36616 -0.361465,0.59587 -0.198809,0.2297 -0.361477,0.45585 -0.361477,0.50249 0,0.0469 -0.09738,0.0849 -0.216387,0.0849 -0.132551,0 -0.383647,0.15788 -0.647583,0.40718 -0.237065,0.22391 -0.637689,0.51146 -0.890444,0.63907 -0.813486,0.41083 -1.00002,0.51815 -1.092174,0.62801 -0.04965,0.0593 -0.284544,0.15959 -0.52191,0.22307 -0.237366,0.0636 -0.453535,0.15093 -0.480262,0.19418 -0.02669,0.0433 -0.168283,0.14049 -0.314696,0.2162 -0.207778,0.10748 -0.308301,0.1153 -0.458021,0.0349 -0.168884,-0.0904 -0.23353,-0.057 -0.541314,0.27979 -0.192292,0.21035 -0.349647,0.41667 -0.349647,0.45851 0,0.13125 -1.676493,1.3589 -2.0933,1.53294 -0.132707,0.0553 -0.265427,0.19943 -0.295977,0.3212 -0.03342,0.13314 -0.180173,0.28041 -0.369424,0.37066 -0.172659,0.0822 -0.313807,0.18275 -0.313807,0.22329 0,0.0406 -0.07923,0.1528 -0.175989,0.24957 -0.25635,0.25636 -0.426485,0.62703 -0.499836,1.08919 -0.06757,0.42512 -0.384789,1.05789 -0.634515,1.26515 -0.259824,0.21562 -0.413043,0.73448 -0.398892,1.35092 0.0072,0.32559 -0.01599,0.7971 -0.05206,1.04787 -0.05891,0.40962 -0.0416,0.48433 0.16892,0.73459 0.15073,0.17915 0.379211,0.31495 0.640334,0.38072 0.299235,0.0753 0.440959,0.16986 0.538861,0.35919 0.0731,0.14123 0.278712,0.3848 0.45695,0.54131 0.257973,0.22651 0.404735,0.28452 0.719949,0.28452 0.336518,0 0.45356,0.0539 0.780303,0.35846 0.211433,0.19715 0.530013,0.42304 0.70795,0.50197 0.177925,0.079 0.437762,0.20586 0.577322,0.28224 0.194012,0.10616 0.417444,0.12671 0.948863,0.087 1.310725,-0.0981 1.811366,-0.26387 3.044615,-1.00801 0.559216,-0.33743 0.583587,-0.34343 0.755945,-0.18745 0.202777,0.18348 0.373669,0.1885 0.373669,0.0108 0,-0.0745 -0.03811,-0.13554 -0.0844,-0.13554 -0.04641,0 -0.111331,-0.0856 -0.14455,-0.19026 -0.04581,-0.1444 0.02236,-0.27498 0.283269,-0.54224 0.189046,-0.19359 0.387097,-0.35193 0.440022,-0.35193 0.0529,0 0.237822,-0.0933 0.410903,-0.20737 0.173056,-0.1141 0.497683,-0.28647 0.721343,-0.38318 0.59627,-0.25794 1.916625,-1.15075 2.414164,-1.63248 0.237787,-0.23016 0.696757,-0.63265 1.019821,-0.89414 0.323077,-0.2615 0.81107,-0.73119 1.08442,-1.04379 0.273362,-0.31264 0.565552,-0.64037 0.649339,-0.72827 0.0838,-0.0879 0.165121,-0.31485 0.180738,-0.50443 0.02597,-0.31588 0.0529,-0.34697 0.322115,-0.37296 0.243257,-0.0234 0.293693,-0.0661 0.293693,-0.24847 0,-0.19073 0.04172,-0.22032 0.310993,-0.22032 0.171012,0 0.339103,-0.0459 0.373644,-0.10159 0.03451,-0.056 0.319217,-0.21781 0.632579,-0.3599 0.313374,-0.14206 0.602787,-0.31558 0.642991,-0.38563 0.04016,-0.0701 0.43662,-0.31725 0.880898,-0.5491 0.44429,-0.23188 0.89975,-0.5209 1.012235,-0.6423 0.112533,-0.1214 0.267423,-0.22062 0.344357,-0.22062 0.07695,0 0.139957,-0.037 0.139957,-0.0822 0,-0.12848 0.916004,-1.04854 1.239213,-1.24464 0.416578,-0.25276 0.806404,-0.78145 0.870149,-1.18006 0.0303,-0.18895 0.156176,-0.48064 0.279747,-0.64815 0.1899,-0.25741 0.216109,-0.36895 0.170314,-0.72097 -0.02982,-0.22903 -0.09378,-0.46687 -0.142434,-0.52865 -0.185042,-1.33953 -0.08127,-2.38276 -0.59092,-3.78099 -0.306797,-0.43735 -0.01443,-1.38582 -0.144009,-1.95103 -0.717736,-2.5786 -0.649218,-4.14707 -0.643519,-6.45491 -0.04268,-0.19596 -0.0036,-0.41699 0.134306,-0.7346 0.177,-0.41537 0.108325,-1.93683 0.04713,-2.58857 -0.04352,-0.10063 -0.02489,-0.30258 0.04593,-0.49703 0.149624,-0.41094 0.132311,-1.46901 -0.02609,-1.59272 -1.093701,-0.94889 0.05795,-5.02961 -0.159194,-6.66131 0.06204,-0.2421 0.0868,-0.57907 0.05506,-0.74868 -0.03174,-0.16959 -0.01828,-0.38135 0.02994,-0.47056 0.177168,-0.32715 0.243005,-0.71398 0.187099,-1.09888 -0.06612,-0.45576 -0.04641,-0.71206 0.09919,-1.27732 0.05759,-0.22369 0.112894,-0.54902 0.122849,-0.72295 0.02621,-0.45695 0.134162,-0.72295 0.293332,-0.72295 0.115178,0 0.129437,-0.0886 0.0838,-0.51962 -0.0844,-0.79766 -0.118064,-1.20145 -0.102675,-1.2376 0.0048,-0.012 0.01563,0.0167 0.03162,0.0855 0.04869,0.20951 0.119747,0.27771 0.3124,0.29988 0.427014,0.049 0.659571,0.69217 0.928929,2.56806 0.06937,0.48397 0.102795,0.94145 0.07394,1.01667 -0.0036,0.008 1.018896,2.04561 0.716402,2.7742 0.170748,0.23095 0.179849,0.29846 0.08669,0.6469 -0.106763,0.39934 -0.04449,1.12533 0.152497,1.77578 0.124844,0.41213 0.121334,0.45236 -0.03992,0.45236 -0.1855,0 -0.170183,0.20282 0.03511,0.46382 0.300726,0.38236 0.457659,0.8621 0.375592,1.1483 -0.08572,0.29888 -0.01912,1.07896 0.09823,1.15148 0.107844,0.0667 0.09883,0.46628 -0.01202,0.53484 -0.143516,0.0886 -0.108686,0.82119 0.04521,0.94885 0.163233,0.13547 0.175148,0.55549 0.02729,0.96419 -0.09798,0.27091 -0.08091,0.35412 0.180727,0.87966 0.158917,0.31934 0.288932,0.70873 0.288932,0.86539 0,0.17153 0.09883,0.41453 0.248523,0.61068 0.257059,0.33707 0.275418,0.45519 0.322643,2.06492 0.0096,0.31061 0.07033,0.61559 0.140487,0.70052 0.07622,0.0922 0.103756,0.25224 0.07142,0.41354 -0.03559,0.17789 -0.0072,0.30018 0.08656,0.37823 0.08007,0.0664 0.122055,0.20404 0.09895,0.32459 -0.02537,0.13288 0.03703,0.29898 0.171216,0.45518 0.116261,0.13521 0.256795,0.47061 0.3124,0.74518 0.138683,0.68483 0.409881,1.66377 0.517137,1.86718 0.04881,0.0925 0.203762,0.62932 0.344525,1.1928 0.238231,0.95364 0.245192,1.03054 0.10063,1.11141 0.246083,1.29347 1.187588,3.33522 1.279093,3.87349 0.258045,1.54822 0.474359,2.69166 0.557377,2.94579 0.05025,0.15395 0.06829,0.34046 0.03991,0.41442 -0.02837,0.0739 0.0072,0.31395 0.07899,0.53338 0.0719,0.21937 0.158052,0.64288 0.191499,0.94107 0.03354,0.29826 0.11602,0.74556 0.183564,0.99409 0.06757,0.24848 0.148433,0.65681 0.179849,0.90738 0.03138,0.25056 0.07009,0.55555 0.08584,0.67772 0.01575,0.12224 0.116621,0.6289 0.224165,1.12591 0.196344,0.90765 0.477809,4.24385 0.387242,4.59025 -0.02813,0.10773 0.01202,0.22454 0.09895,0.28824 0.117343,0.0857 0.142602,0.25349 0.127081,0.84452 -0.01659,0.63457 -0.04148,0.73798 -0.177565,0.73798 -0.09113,0 -0.158135,0.0684 -0.158135,0.16094 0,0.24028 0.258117,0.56234 0.450782,0.56234 0.176867,0 0.32488,0.29339 0.227495,0.45094 -0.03102,0.0501 -0.0725,0.37353 -0.09234,0.71889 -0.01984,0.34535 -0.07502,0.70125 -0.122332,0.79088 -0.114697,0.21718 -0.374894,1.70035 -0.37398,2.13371 0.001,0.70778 -0.358496,2.71024 -0.583695,3.24921 -0.141376,0.33835 -0.433037,0.57041 -0.592868,0.4716 -0.174523,-0.10784 -0.1987,0.24232 -0.03739,0.54188 -0.455579,1.66873 -0.01851,2.25756 -1.219796,4.30535 -0.09197,0.42847 -0.219572,0.87576 -0.283641,0.99403 -0.143132,0.26429 -0.248512,0.7914 -0.359169,1.79644 -0.212467,1.92968 -0.444002,2.86298 -0.736889,2.97134 -0.148013,0.0547 -0.192653,0.17711 -0.237222,0.6492 -0.03018,0.31989 -0.05158,0.7818 -0.04773,1.02652 0.006,0.40076 0.04304,0.47704 0.368005,0.76808 1.022935,0.91625 1.426841,1.23078 1.728108,1.3455 0.47258,0.17993 1.526858,0.17221 1.885546,-0.0136 0.385403,-0.19986 0.815602,-0.18932 1.24716,0.0308 0.463407,0.23627 1.3759,0.24171 2.042973,0.012 0.37885,-0.13031 0.651527,-0.15807 1.203385,-0.1227 0.631052,0.0406 0.758806,0.0208 1.106289,-0.16887 0.326046,-0.17811 0.412779,-0.284 0.509213,-0.6227 l 0.11614,-0.40827 0.727524,0.0317 c 0.598326,0.0261 0.792229,0 1.092703,-0.15458 0.472748,-0.24117 0.928231,-0.85472 0.928231,-1.25033 0,-0.33487 0.263251,-0.65993 0.534437,-0.65993 0.0951,0 0.268012,-0.08 0.384068,-0.17759 0.11602,-0.0976 0.344646,-0.28547 0.507963,-0.41741 0.421459,-0.34049 0.555525,-0.65586 0.619691,-1.45823 0.03102,-0.38668 0.115299,-0.84534 0.187616,-1.01927 0.285288,-0.68586 0.39698,-1.3039 0.336938,-1.86473 0,0 0.701735,-1.64192 -0.763723,-5.00307 0,-0.26803 -0.03126,-0.34399 -0.12654,-0.30748 -0.147123,0.0565 -0.324507,-0.39915 -0.320167,-0.82229 0.0036,-0.27075 0.0024,-0.40764 -0.0036,-0.79073 -0.0024,-0.11181 0.006,-0.854 0.01755,-1.64921 0.0404,-2.81035 0.02777,-3.01673 -0.227675,-3.77428 -0.130207,-0.38599 -0.33831,-0.87508 -0.462445,-1.08688 -0.14378,-0.24536 -0.206515,-0.45826 -0.172972,-0.5865 0.02898,-0.11073 0.001,-0.26345 -0.06216,-0.3394 -0.156921,-0.18912 -0.155947,-2.95293 0.001,-3.51432 0.06745,-0.24065 0.085,-0.50843 0.0434,-0.65801 -0.03859,-0.13866 -0.07827,-0.47583 -0.08825,-0.7492 -0.0096,-0.27336 -0.0642,-0.74106 -0.120733,-1.03925 -0.05651,-0.29821 -0.103275,-0.70695 -0.103275,-0.90827 0,-0.20128 -0.04677,-0.41208 -0.103276,-0.46864 -0.07683,-0.0768 -0.06252,-0.25849 0.05663,-0.71852 0.08777,-0.33857 0.171061,-0.92595 0.18532,-1.30537 0.01587,-0.42263 0.08476,-0.80357 0.177732,-0.98329 0.09763,-0.18854 0.134992,-0.41005 0.10508,-0.62038 -0.02573,-0.17994 -0.07526,-0.51971 -0.11037,-0.7549 0,0 -0.906831,-1.80536 0.772561,-3.51677 0.05927,-0.36544 0.106161,-0.83386 0.103997,-1.04119 -0.0024,-0.22291 0.04953,-0.42126 0.126913,-0.48553 0.07202,-0.0598 0.130771,-0.24457 0.130771,-0.41074 0.02657,-0.88226 0.349816,-0.69347 0.297408,-2.12024 -0.01082,-0.24264 0.02008,-0.46529 0.06781,-0.49477 0.115659,-0.0714 0.595128,-0.71838 0.477605,-0.83591 -0.426027,-0.88881 0.45071,-1.67974 0.308541,-2.65509 0.01202,-0.2656 0.04605,-0.69552 0.07622,-0.95538 0.05158,-0.44473 0.04112,-0.4787 -0.17968,-0.57928 -0.187459,-0.19548 0.09173,-1.53366 0.228241,-1.64093 0.22687,-0.17753 0.299271,-0.31927 0.360948,-0.70756 0.06853,-0.4316 0.05687,-0.50077 -0.104118,-0.62285 -0.142578,-0.10808 -0.168607,-0.19954 -0.122668,-0.42925 0.0321,-0.16057 0.114337,-0.29194 0.182686,-0.29194 0.159699,0 0.161202,-0.3668 0.0036,-0.58387 -0.06096,-0.73344 -0.09366,-1.30319 -0.05891,-2.37531 0,-0.11662 -0.101713,-0.40289 -0.225908,-0.6363 -0.255941,-0.48079 -0.289737,-0.81379 -0.09041,-0.89028 0.153795,-0.059 0.189551,-0.62117 0.04509,-0.71042 -0.04965,-0.0308 -0.09041,-0.25329 -0.09041,-0.49473 -0.532141,-0.80909 -0.204328,-1.13379 -0.319109,-1.86207 -0.0505,-0.30117 -0.02296,-0.64261 -0.178611,-0.88479 -0.157222,-0.23991 -0.110369,-0.63051 0.10556,-0.87983 0.185103,-0.24743 -0.143107,-0.27623 -0.150008,-0.51966 0,-0.22849 -0.365709,-2.15055 -0.561272,-2.94979 -0.09726,-0.39763 -0.238881,-0.98729 -0.314516,-1.31038 -0.07562,-0.32304 -0.173934,-0.658 -0.218322,-0.74429 -0.04448,-0.0863 -0.08067,-0.23075 -0.08067,-0.32084 0,-0.0902 -0.044,-0.20779 -0.09763,-0.26142 -0.05362,-0.0536 -0.136002,-0.27519 -0.183023,-0.49242 -0.111211,-0.51392 -0.429129,-1.32531 -0.63841,-1.62893 -0.09089,-0.13193 -0.165373,-0.30597 -0.165373,-0.38673 0,-0.0807 -0.116381,-0.37943 -0.258575,-0.6638 -0.142181,-0.28438 -0.368955,-0.86261 -0.503899,-1.28508 -0.134956,-0.42247 -0.323569,-0.97227 -0.419198,-1.22174 -0.09558,-0.24948 -0.17385,-0.54857 -0.17385,-0.66468 0,-0.11614 -0.06011,-0.44282 -0.133441,-0.72595 -0.0945,-0.36481 -0.12345,-0.84263 -0.09919,-1.63972 0.0214,-0.70548 -0.001,-1.16801 -0.06095,-1.24079 -0.06745,-0.0822 -0.06156,-0.17894 0.0202,-0.33163 0.145391,-0.27165 0.04472,-1.03765 -0.155671,-1.18414 -0.08801,-0.0643 -0.157066,-0.29497 -0.183384,-0.61247 -0.03414,-0.41214 -0.01431,-0.51997 0.104358,-0.5655 0.165806,-0.0636 0.197366,-0.35622 0.04833,-0.44829 -0.06204,-0.0381 0.001,-0.16542 0.170675,-0.34437 0.147868,-0.15594 0.330194,-0.40561 0.40524,-0.55493 0.178599,-0.35516 0.348373,-1.7499 0.2381,-1.95597 -0.140403,-0.26231 -0.09534,-0.50448 0.103396,-0.55649 0.174607,-0.0459 0.178201,-0.0654 0.05386,-0.30586 -0.07346,-0.14206 -0.111452,-0.36952 -0.08488,-0.5085 0.03487,-0.18239 -0.0084,-0.3116 -0.15727,-0.47004 -0.195623,-0.2082 -0.202248,-0.26184 -0.141713,-1.14073 0.03487,-0.50718 0.09678,-0.98625 0.137144,-1.06462 0.0404,-0.0784 0.120396,-0.81342 0.177901,-1.63352 0.05747,-0.82009 0.14954,-1.78364 0.204388,-2.14111 0.05482,-0.35747 0.07634,-0.73944 0.04761,-0.84895 -0.05122,-0.19585 0.119987,-1.47413 0.298646,-2.22991 0.05013,-0.21197 0.09113,-0.50865 0.09113,-0.65921 0,-0.2513 0.06661,-0.59114 0.362186,-1.84725 0.05855,-0.24854 0.137156,-0.71619 0.17474,-1.03927 0.03763,-0.32302 0.133909,-0.97369 0.214077,-1.44587 0.08019,-0.47217 0.157403,-1.05975 0.171746,-1.30573 l 0.02609,-0.44724 0.542216,-0.0988 c 0.576445,-0.10508 1.892483,-0.61398 2.130691,-0.82389 0.07839,-0.0691 0.20048,-0.12532 0.271114,-0.12532 0.116741,0 1.168507,-0.51386 2.703986,-1.32181 0.5782,-0.30425 1.174782,-0.85525 1.174782,-1.08511 0,-0.26591 0.308878,-1.00091 0.530554,-1.26252 0.130652,-0.15419 0.309443,-0.41302 0.397305,-0.57504 0.04821,-0.547 -0.124195,-1.00747 0.60221,-1.73164 -0.07899,-0.14742 -0.05603,-0.21049 0.128668,-0.35581 0.366731,-0.28848 0.677099,-0.94154 0.740243,-1.55727 0.03162,-0.30832 0.09618,-0.70288 0.143672,-0.87684 0.278628,-1.0225 0.360684,-2.89642 0.181977,-4.15693 -0.05987,-0.42247 -0.129557,-0.97145 -0.154793,-1.21996 -0.02525,-0.24852 -0.08476,-0.63484 -0.132035,-0.8585 -0.04737,-0.22366 -0.128379,-0.73199 -0.180197,-1.12959 -0.05182,-0.39762 -0.134631,-0.92629 -0.183913,-1.1748 -0.318748,-1.60682 -0.274468,-2.66129 0.172611,-4.11173 0.227941,-0.73949 0.274132,-1.07147 0.332707,-2.39476 0.102074,-2.30538 0.112654,-2.47118 0.165734,-2.55696 0.02693,-0.0435 0.113856,-0.51577 0.193086,-1.04929 0.07923,-0.53352 0.18758,-1.079 0.240937,-1.2122 0.05338,-0.13317 0.106041,-0.40482 0.116982,-0.60363 0.04316,-0.78061 0.402186,-2.64375 0.589501,-3.05892 0.108686,-0.24102 0.175268,-0.52384 0.147905,-0.62851 -0.02741,-0.1046 0.02982,-0.49451 0.127261,-0.86644 0.09751,-0.37193 0.177204,-0.79794 0.177204,-0.94658 0,-0.14863 0.03811,-0.39522 0.08452,-0.54784 0.109888,-0.36063 0.453079,-2.24428 0.499499,-2.74212 0.01984,-0.21239 0.07899,-0.51739 0.131481,-0.67775 0.05254,-0.16036 0.133621,-0.65757 0.180378,-1.10488 0.04677,-0.44733 0.12672,-1.15897 0.177733,-1.58144 0.221291,-1.83228 0.306665,-2.63343 0.375075,-3.52435 0.08103,-1.05616 0.03619,-17.26528 -0.0529,-19.11282 -0.03114,-0.64613 -0.0648,-2.49642 -0.07478,-4.11175 -0.01779,-2.89691 -0.06156,-3.34362 -0.327766,-3.34362 -0.120985,0 -0.379162,-0.52952 -0.311522,-0.63894 0.03102,-0.0503 0.131866,-0.0675 0.223972,-0.0381 0.0921,0.0292 0.241202,0.0153 0.331288,-0.0309 0.09005,-0.0462 0.366263,-0.13183 0.613692,-0.19026 0.625558,-0.14768 1.356531,-0.58746 1.581441,-0.95134 0.285854,-0.47048 0.105681,-1.29875 -0.05735,-1.89649 -0.082,-0.21771 -0.112173,-0.47646 -0.07731,-0.66257 0.03703,-0.19755 0.01214,-0.37459 -0.07021,-0.50127 -0.07009,-0.10772 -0.156452,-0.46024 -0.192028,-0.78331 -0.03559,-0.32306 -0.148277,-0.89238 -0.250447,-1.26515 -0.422877,-1.54271 -0.524758,-1.9631 -0.571503,-2.35857 -0.02705,-0.22865 -0.09246,-0.55397 -0.145091,-0.72294 -0.212984,-0.68293 -0.371697,-1.50445 -0.364471,-1.88589 0.006,-0.29419 -0.04412,-0.45914 -0.183383,-0.60735 -0.158485,-0.16869 -0.17159,-0.22713 -0.0761,-0.34224 0.0933,-0.11253 0.09318,-0.21747 -0.001,-0.55349 -0.06384,-0.228 -0.119747,-0.59365 -0.124424,-0.81261 -0.0048,-0.21896 -0.0345,-0.39816 -0.06637,-0.39818 -0.03174,-10e-6 -0.08043,-0.13217 -0.107965,-0.29371 -0.147351,-0.86456 -0.221893,-1.15599 -0.328294,-1.2842 -0.07779,-0.0938 -0.09943,-0.27376 -0.06384,-0.53267 0.02946,-0.21506 0.01407,-0.4305 -0.03414,-0.47885 -0.04833,-0.0483 -0.09306,-0.30708 -0.09895,-0.57486 -0.006,-0.26779 -0.06649,-0.61972 -0.134318,-0.78208 -0.06781,-0.16234 -0.123198,-0.43971 -0.123198,-0.61652 0,-0.1768 -0.07803,-0.54346 -0.173332,-0.81471 -0.108085,-0.30756 -0.150021,-0.58078 -0.111211,-0.72594 l 0.0624,-0.23282 0.216218,0.23016 c 0.62961,0.61877 0.03932,-0.87504 -0.26509,-0.43436 0,0.12011 -0.02453,0.12621 -0.135557,0.0342 -0.08572,-0.0712 -0.135557,-0.27045 -0.135557,-0.5422 0,-0.34294 0.04112,-0.4587 0.203317,-0.57311 l 0.203341,-0.14349 -0.292995,-0.25168 c -0.321369,-0.27614 -0.473373,-0.75906 -0.303407,-0.96387 0.07983,-0.0962 0.07418,-0.13657 -0.02441,-0.17438 -0.189179,-0.0726 -0.555814,-1.2263 -0.429779,-1.35235 0.07202,-0.0719 0.06192,-0.14026 -0.03679,-0.24922 -0.07466,-0.0826 -0.197823,-0.36987 -0.273554,-0.6384 -0.583045,-2.0668 -0.886933,-3.02451 -1.003062,-3.16111 -0.06673,-0.0784 -0.121261,-0.22189 -0.121261,-0.31876 0,-0.0969 -0.0624,-0.26513 -0.138539,-0.37383 -0.0761,-0.10868 -0.194685,-0.35721 -0.263516,-0.55225 -0.06877,-0.19506 -0.284182,-0.59297 -0.478495,-0.88428 -0.194336,-0.29131 -0.408306,-0.71267 -0.475501,-0.93632 -0.082,-0.27293 -0.265463,-0.54459 -0.557906,-0.82621 -0.239662,-0.23077 -0.435597,-0.457 -0.435597,-0.50267 0,-0.13172 -0.478423,-0.45016 -0.773775,-0.51502 -0.148229,-0.0326 -0.471798,-0.21884 -0.719239,-0.41408 -0.247441,-0.19521 -0.68465,-0.49822 -0.971466,-0.67333 -0.286791,-0.17513 -0.846512,-0.58298 -1.243793,-0.90633 -0.39727,-0.32336 -0.89446,-0.67579 -1.104883,-0.78314 -0.692404,-0.36091 -1.222573,-0.96198 -1.984397,-1.21237 -1.088989,-0.41091 -1.531343,-0.67107 -2.148172,-1.26304 -0.363762,-0.3491 -0.845936,-0.69347 -1.26392,-0.90261 -0.403665,-0.20198 -0.949548,-0.58788 -1.35551,-0.95841 -0.373836,-0.34118 -0.918829,-0.7479 -1.210983,-0.90367 -0.292106,-0.15578 -0.877087,-0.54418 -1.299916,-0.86309 -0.42283,-0.31889 -0.905797,-0.63706 -1.073299,-0.70705 -0.169689,-0.0709 -0.387134,-0.26712 -0.491011,-0.44319 -0.102554,-0.17382 -0.397088,-0.45597 -0.65464,-0.62694 -0.257553,-0.17096 -0.598098,-0.49138 -0.756655,-0.71217 -0.158544,-0.2208 -0.422877,-0.49457 -0.587397,-0.60821 -0.36583,-0.25273 -0.796005,-0.89902 -0.796005,-1.1958 0,-0.12029 -0.03571,-0.25742 -0.07923,-0.30463 -0.04352,-0.0471 -0.165578,-0.3211 -0.271114,-0.60875 -0.158208,-0.43118 -0.191848,-0.72523 -0.191848,-1.67427 0,-2.20706 0.190417,-2.98063 1.027396,-4.1737 0.405793,-0.57843 0.999069,-2.60597 1.110545,-3.79545 0.06925,-0.73901 0.09991,-0.79887 0.460845,-0.89909 0.185993,-0.0516 0.501375,-0.0941 0.700881,-0.0944 0.346497,-4.5e-4 0.372286,-0.0208 0.578212,-0.45449 0.173417,-0.36526 0.196705,-0.4955 0.119146,-0.66576 -0.07875,-0.1728 -0.05675,-0.27593 0.119266,-0.5625 0.118665,-0.19302 0.216975,-0.41436 0.218514,-0.49173 0.0036,-0.16143 0.882473,-1.44076 0.990161,-1.44076 0.06552,0 0.91039,-1.88323 0.91039,-2.02905 0,-0.0843 0.437798,-1.22603 0.546964,-1.42629 0.127057,-0.2331 0.103637,-0.85649 -0.04292,-1.13984 -0.07069,-0.13668 -0.216759,-0.52145 -0.324579,-0.85514 -0.12036,-0.3726 -0.265475,-0.64397 -0.376121,-0.70317 -0.322992,-0.17287 -0.435934,-0.63226 -0.435946,-1.77331 -1.2e-5,-0.60394 -0.06168,-1.37769 -0.142627,-1.78776 -0.114216,-0.57942 -0.130688,-1.04728 -0.0826,-2.35628 0.06276,-1.7078 0.02693,-2.02085 -0.327934,-2.87183 -0.100631,-0.2412 -0.222662,-0.68853 -0.271282,-0.99405 -0.08789,-0.55251 -0.246407,-0.95791 -1.082123,-2.76946 -0.240757,-0.52186 -0.479253,-1.11153 -0.530025,-1.31033 -0.221123,-0.86584 -1.184858,-2.90594 -1.609683,-3.40751 -0.138647,-0.16369 -0.367669,-0.454 -0.509021,-0.64528 -0.141352,-0.19127 -0.539283,-0.57759 -0.884265,-0.85849 -0.378609,-0.30829 -0.751412,-0.71427 -0.940386,-1.02422 -0.262674,-0.43085 -0.437966,-0.58875 -1.088832,-0.98047 -1.349763,-0.81235 -1.756458,-0.91028 -3.958179,-0.95258 -0.899569,-0.0173 -1.375275,-0.0239 -1.649058,-0.005 z m 19.30527,78.60053 c 0.123955,0.0435 0.237667,0.34871 0.375376,0.92947 0.19424,0.81906 0.300642,4.03407 0.134896,6.028 -0.120108,2.49599 -0.276464,4.11917 -0.347303,3.60697 -0.04064,-0.29414 0.378562,25.50497 -0.756281,10.95871 -0.15394,-1.97325 -0.266173,-5.19583 -0.269623,-8.65232 -0.0036,-2.93386 0.91366,-5.24134 1.081979,-7.56218 0.154228,-2.12669 -0.763508,-4.38221 -0.6563,-4.66293 0.179319,-0.46954 0.313289,-0.68922 0.437256,-0.64572 z m -47.753355,-2.37252 c 0.09943,0.001 0.465342,0.14188 0.813317,0.31417 0.347952,0.1723 0.795236,0.36208 0.994045,0.42167 0.678794,0.20345 0.676222,0.20039 1.032349,1.26107 0.108445,0.32308 0.360106,1.03472 0.559143,1.58145 0.287994,0.79107 0.368319,1.14704 0.393603,1.74312 0.01755,0.41195 0.07851,0.80533 0.135725,0.8742 0.06108,0.0735 0.08091,0.24935 0.04797,0.42572 -0.03547,0.19063 -0.0024,0.42985 0.09233,0.65411 0.1058,0.25244 0.145331,0.60132 0.138009,1.21996 -0.006,0.47651 -0.01082,1.39509 -0.01082,2.04122 -10e-4,1.32621 -0.04208,2.04789 -0.136795,2.38822 -0.03559,0.12787 -0.07743,0.59843 -0.09282,1.04577 -0.03727,1.07799 -0.174595,2.0607 -0.321057,2.29521 -0.09498,0.15218 -0.0963,0.22553 -0.006,0.36941 0.134138,0.21477 0.143888,0.53854 0.02561,0.84966 -0.06084,0.15995 -0.04557,0.38319 0.05146,0.75137 0.08813,0.33467 0.117703,0.68893 0.08212,0.98098 -0.03066,0.25142 -0.01443,0.56542 0.03583,0.69771 0.07394,0.19449 0.0624,0.25676 -0.06047,0.32546 -0.132503,0.0742 -0.136543,0.11397 -0.03078,0.3117 0.07899,0.14742 0.101593,0.36353 0.06492,0.61811 -0.03102,0.21526 -0.01779,0.4513 0.02934,0.52473 0.05927,0.0925 0.03979,0.18432 -0.06384,0.29882 -0.130339,1.12196 -0.795837,0.74074 -0.663634,3.22572 0.23305,0.33271 -0.419102,2.24534 -1.095012,2.96625 -0.66611,0.71046 -1.383739,1.19028 -1.787752,1.19543 -0.124256,0.002 -0.304898,0.0625 -0.401381,0.13555 -0.170171,0.12872 -0.694485,0.16807 -0.939148,0.0705 -0.06625,-0.0264 -0.196826,-0.22666 -0.290339,-0.4448 -0.109167,-0.25456 -0.227916,-0.39744 -0.331468,-0.39888 -0.208355,-0.004 -1.374494,-1.09904 -1.223139,-1.14973 0.200805,-0.0673 0.120264,-0.36639 -0.16892,-0.62708 -0.155082,-0.13981 -0.416746,-0.38634 -0.581398,-0.54787 -0.16464,-0.16152 -0.342842,-0.2937 -0.395874,-0.2937 -0.05302,0 -0.0963,-0.0316 -0.0963,-0.0702 0,-0.0386 -0.162668,-0.28662 -0.361477,-0.5512 -0.198797,-0.26459 -0.361598,-0.52778 -0.361646,-0.58491 0,-0.144 -0.4368,-0.57793 -0.79354,-0.78842 -0.163209,-0.0963 -0.322595,-0.24604 -0.354239,-0.33272 -0.03162,-0.0867 -0.152317,-0.25468 -0.268109,-0.37328 -0.118785,-0.12175 -0.210555,-0.32562 -0.210555,-0.46827 0,-0.17333 -0.05675,-0.27076 -0.180738,-0.31011 -0.09943,-0.0316 -0.180727,-0.0886 -0.180727,-0.12672 0,-0.13472 -0.668539,-0.92559 -0.872975,-1.03271 -0.246972,-0.1294 -1.407231,-1.65085 -1.704471,-2.235 -0.115418,-0.2268 -0.271402,-0.46337 -0.346629,-0.52581 -0.07526,-0.0624 -0.162055,-0.22854 -0.192929,-0.36906 -0.0309,-0.14052 -0.135161,-0.32701 -0.23174,-0.41442 -0.09654,-0.0874 -0.175617,-0.20468 -0.175617,-0.26052 0,-0.0559 -0.142325,-0.39842 -0.316283,-0.76141 -0.173958,-0.363 -0.316296,-0.70427 -0.316296,-0.75842 0,-0.0541 -0.05699,-0.16282 -0.126552,-0.24128 -0.06961,-0.0784 -0.357197,-0.61026 -0.639275,-1.18184 -0.902864,-1.82946 -1.268501,-2.44873 -1.753717,-2.97016 -0.339379,-0.36474 -0.871219,-1.4139 -0.843302,-1.66367 0.01082,-0.0944 -0.06685,-0.19291 -0.187616,-0.23881 -0.120228,-0.0457 -0.31252,-0.28952 -0.462961,-0.58686 -0.141557,-0.27978 -0.292815,-0.53048 -0.336061,-0.55721 -0.176808,-0.10928 -0.04701,-0.27515 0.366947,-0.46914 0.518483,-0.24293 1.281557,-0.79201 1.984566,-1.42823 0.278809,-0.25234 0.669561,-0.55427 0.868382,-0.67089 0.198797,-0.11662 0.593601,-0.41854 0.877375,-0.67087 1.439669,-1.28017 2.005197,-1.6858 2.401276,-1.72246 0.614437,-0.0569 0.869428,-0.14607 2.053048,-0.71872 1.228212,-0.5942 1.570092,-0.73364 2.168839,-0.88479 0.198809,-0.0501 0.540268,-0.13724 0.75877,-0.19344 0.288283,-0.0742 0.540821,-0.2446 0.920261,-0.62127 0.371792,-0.36909 0.567006,-0.5022 0.675644,-0.4605 0.0951,0.0365 0.184406,0.002 0.236525,-0.0909 0.04605,-0.0822 0.149118,-0.14949 0.229262,-0.14949 0.08019,0 0.331493,-0.10881 0.558447,-0.24181 0.40078,-0.23487 0.951916,-0.40165 1.320222,-0.39959 z"
       id="path4222"
       inkscape:connector-curvature="0"
       sodipodi:nodetypes="ccssssssccscscccscccccsscscccscsssccccccsssccscsscssscsssscscsccssssscccsccssccssssssccscssccscsssssccccccscssccsssscsccsscsccccscsscsssscccscccccccssscsssccssccccscsccsssssssscccccccsscssscsscscccsccsccccccscccsccsccccccccscccscccscssccccscccscscscccccsscssssccscsscsscsssccscssscccsssccccccccccsccscsscscccscccsssssccssssscccccsscscccccsscssscscsscscccccccscccscsscsscccsssscsscccccscccccccscssccscccccccccccccccsccssccccccsccssccscscscscccsssccsccccccscccsscsccsccssscccscscsccssscccccsscscsssssccccccccccssccscccscsccccsccccccsccccccsscsscscsssscsccssscssscccsscsscscccccssccscscscsscccssssscscccssscssscscscsccssccccccccscccscscccssssssscccssscscccssscsccccccssssssssccsssss" />
  </g>
</svg>
