<?xml version="1.0" encoding="UTF-8" standalone="no"?>
<!-- Created with Inkscape (http://www.inkscape.org/) -->

<svg
   xmlns:dc="http://purl.org/dc/elements/1.1/"
   xmlns:cc="http://creativecommons.org/ns#"
   xmlns:rdf="http://www.w3.org/1999/02/22-rdf-syntax-ns#"
   xmlns:svg="http://www.w3.org/2000/svg"
   xmlns="http://www.w3.org/2000/svg"
   xmlns:sodipodi="http://sodipodi.sourceforge.net/DTD/sodipodi-0.dtd"
   xmlns:inkscape="http://www.inkscape.org/namespaces/inkscape"
   width="100"
   height="400"
   viewBox="0 0 100 400"
   id="svg2"
   version="1.1"
   inkscape:version="0.92.0 r15299"
   sodipodi:docname="thug.svg">
  <defs
     id="defs4" />
  <sodipodi:namedview
     id="base"
     pagecolor="#ffffff"
     bordercolor="#666666"
     borderopacity="1.0"
     inkscape:pageopacity="0.0"
     inkscape:pageshadow="2"
     inkscape:zoom="0.98994949"
     inkscape:cx="-266.40212"
     inkscape:cy="176.61122"
     inkscape:document-units="px"
     inkscape:current-layer="layer1"
     showgrid="false"
     units="px"
     inkscape:window-width="1920"
     inkscape:window-height="1017"
     inkscape:window-x="-8"
     inkscape:window-y="-8"
     inkscape:window-maximized="1"
     showguides="false"
     inkscape:guide-bbox="true">
    <sodipodi:guide
       position="57.142858,260"
       orientation="0,1"
       id="guide4689"
       inkscape:label=""
       inkscape:color="rgb(0,0,255)"
       inkscape:locked="false" />
    <sodipodi:guide
       position="197.14286,760"
       orientation="0,1"
       id="guide4691"
       inkscape:label=""
       inkscape:color="rgb(0,0,255)"
       inkscape:locked="false" />
    <sodipodi:guide
       position="75.000001,545.71429"
       orientation="1,0"
       id="guide4699"
       inkscape:label=""
       inkscape:color="rgb(0,0,255)"
       inkscape:locked="false" />
  </sodipodi:namedview>
  <metadata
     id="metadata7">
    <rdf:RDF>
      <cc:Work
         rdf:about="">
        <dc:format>image/svg+xml</dc:format>
        <dc:type
           rdf:resource="http://purl.org/dc/dcmitype/StillImage" />
        <dc:title></dc:title>
      </cc:Work>
    </rdf:RDF>
  </metadata>
  <g
     inkscape:label="Layer 1"
     inkscape:groupmode="layer"
     id="layer1"
     transform="translate(0,-727.36216)">
    <path
       id="path2991"
       d="m 51.746974,932.46597 c -0.89882,-0.225 -2.02234,-0.675 -2.24706,-0.9 -0.78646,-0.45 -0.78646,-0.6751 -0.78646,-2.3627 -0.2247,-1.35 0,-1.9125 0.44941,-2.8126 0.33705,-0.45 0.56177,-1.125 0.56177,-1.9126 -0.22472,-0.9 0,-1.1251 0.67411,-1.8001 0.67411,-0.675 0.67411,-1.0126 0.67411,-2.3626 -0.2247,-1.6877 -0.2247,-2.3627 -1.12352,-3.0377 -0.44942,-0.4501 -0.44942,-0.9001 -0.44942,-2.8127 0,-2.5876 -1.01116,-5.85034 -1.68528,-5.85034 -0.2247,-0.22497 -0.2247,0.22502 -0.2247,2.58764 0,3.0377 -0.22471,4.3878 -0.89882,5.1753 -0.78647,0.675 -4.2694,2.0251 -5.61762,2.0251 -1.01118,0.225 -1.23588,0 -1.91,-0.45 -0.89882,-0.675 -1.46058,-0.675 -2.3594,0.225 -0.89882,1.2376 -3.25822,2.5877 -6.06703,3.2627 -1.91,0.5626 -2.58411,0.5626 -5.84233,0.5626 -3.48293,0 -3.81999,0 -4.94351,-0.5626 -1.90999,-0.9 -2.80882,-3.4877 -2.35941,-4.8378 0.44942,-1.0125 0.44942,-1.0125 3.81999,-1.9126 5.05586,-1.125 9.10055,-3.93769 9.54996,-7.08789 0.44941,-2.02508 -0.2247,-12.37571 -1.12353,-16.53844 -0.33705,-1.0126 -0.78646,-3.37522 -1.46058,-5.17534 -0.44941,-2.1376 -1.12352,-4.72524 -1.34822,-5.85035 -0.33707,-1.68755 -0.78647,-2.81266 -1.23588,-4.05023 -1.57294,-2.81265 -1.91,-3.71268 -1.57294,-8.43798 0,-6.07531 0,-5.62533 -1.01117,-6.52541 -0.44941,-0.44999 -0.89882,-0.67501 -1.79764,-0.90004 -2.1347,-0.33747 -3.81999,-1.46253 -5.16821,-3.37516 -0.22471,-0.45004 -0.44941,-0.67506 -0.78647,-0.90009 0.33706,-1.12505 0.33706,-2.13759 0.33706,-3.26265 0.2247,-1.68761 0.2247,-3.48773 0.2247,-3.71275 0,-0.33753 0,-1.23756 0.22471,-1.91257 0.2247,-0.67507 0.44941,-2.13766 0.44941,-3.48773 0,-2.81267 -0.44941,-3.82521 -2.35941,-4.27525 -1.12352,-0.44999 -3.25822,-2.36268 -3.48292,-3.03769 -0.22471,-0.67501 0.44941,-1.35007 1.34823,-1.68755 0.78647,-0.22502 1.23588,-0.45005 1.23588,-0.90009 0,-0.22502 -0.22471,-0.22502 -0.44941,-0.22502 -0.33706,0 -1.46059,-0.90003 -3.5952896,-2.81264 -0.2247,0 -0.44941,-0.22503 -0.67411,-0.45004 0.2247,-0.90006 0.2247,-1.91261 0.44941,-2.81266 0.67411,-4.72528 0.67411,-6.07536 0.44941,-7.31293 -0.22471,-0.90005 0,-1.35008 0.2247,-2.81266 0.5617696,-0.90006 0.5617696,-2.36264 0.5617696,-3.26269 0,-1.12507 0.2247,-2.58766 0.2247,-3.26269 0,-0.67504 0,-1.91261 0,-2.58765 -0.2247,-0.67504 0,-1.6876 0.22471,-2.13763 0.2247,-0.90006 0.44941,-1.8001 0.44941,-3.93773 -0.22471,-2.13762 0,-2.81266 0.2247,-3.26269 0.22471,-0.45002 0.44941,-1.46258 0.44941,-2.36263 0,-0.90006 0,-2.13763 0.22471,-2.58766 0,-0.22502 0.2247,-2.13762 0.2247,-3.71272 0.22471,-6.86289 0.56177,-9.67556 1.23588,-11.81318 0.44941,-1.12507 0.89882,-2.25013 0.89882,-2.47514 0,-0.78755 0.89882,-4.27525 1.68529,-5.96285 0.44941,-0.90006 0.67411,-1.35008 1.57293,-1.80011 0.44941,-0.22501 1.23588,-0.67504 1.46058,-1.01256 0.22471,-0.22501 1.34824,-0.67504 2.58411,-1.12507 1.79764,-0.90005 2.80881,-1.35007 3.25822,-2.58765 0.22471,-0.22501 0.67412,-0.90005 1.12353,-1.57509 0.78647,-0.78754 1.23588,-1.23757 1.23588,-1.46258 0,0 -0.44941,-0.90005 -0.78648,-1.6876 -0.4494,-0.90005 -1.12352,-2.81266 -1.79763,-4.16274 -0.44942,-1.6876 -1.01118,-3.03768 -1.23588,-3.03768 0,-0.22501 -0.67412,-0.45003 -1.34823,-0.67504 -0.44941,-0.22502 -1.68528,-0.78754 -2.3594,-1.46259 -2.35941,-1.35007 -2.80882,-3.03767 -2.1347,-6.75039 1.46058,-5.1753 5.61763,-10.12559 10.56113,-12.26321 1.68529,-0.67504 2.1347,-0.67504 4.71881,-0.67504 0.67411,0 1.57293,-0.22502 2.58411,-0.22502 0.67411,0.45003 1.12352,0.67505 1.79763,0.90006 1.01117,0.56253 2.1347,1.46258 3.03352,1.91261 1.23588,0.67504 1.23588,0.90005 2.1347,2.81267 0.67412,1.91261 0.67412,2.36263 0.67412,4.72527 0,1.12506 0.22469,2.81266 0.22469,3.4877 0.78648,1.6876 0.33707,4.16275 -0.4494,5.85035 -0.89882,1.9126 -0.89882,2.81266 -0.22471,3.71271 0.22471,0.56254 1.01118,1.46259 1.46059,2.13762 2.3594,3.2627 4.60644,4.72528 9.54996,5.62533 2.13469,0.45003 3.48292,0.90006 4.7188,1.46258 0.89882,0.45003 1.79764,0.67504 2.1347,0.67504 0.2247,0 0.67411,0.45003 1.12352,0.90006 0.67412,0.67504 1.12352,1.01256 1.90999,1.01256 0.89883,0 1.57293,0.33752 1.57293,1.35007 0.11236,2.58766 1.91,5.85035 1.46059,7.31293 -0.22471,0.67504 1.12353,3.71272 2.58411,6.52538 0.2247,0.67504 0.4494,1.12507 0.67411,1.35008 0,0.56253 1.57294,5.1753 2.1347,5.62533 0.2247,0 0.67411,1.23757 0.89881,2.58766 0.22471,1.23756 1.12353,3.03767 1.6853,4.50025 0.67411,1.35008 1.12352,2.81266 1.34822,4.16275 0.44941,2.13762 0.44941,2.36263 0,3.82522 -0.2247,0.67504 -0.67411,1.8001 -0.67411,2.36264 0,0.22501 -0.2247,1.35007 -0.67411,2.25013 -0.33706,1.01256 -0.56177,2.13762 -0.56177,2.58765 0,0.56253 -0.44941,1.46259 -1.34823,2.36263 -0.67411,1.01256 -1.23587,1.91262 -1.46058,2.81267 -0.22471,0.67504 -0.89882,2.36264 -1.57294,3.82523 -1.01116,1.35007 -1.68528,3.03767 -1.68528,3.26268 -0.2247,0.45003 -0.67412,1.35008 -1.34823,2.36264 -1.90999,2.47514 -1.90999,2.81267 -0.44941,7.87547 0.67411,2.58765 1.34823,5.1753 1.57294,5.62534 0,0.22502 0.44941,1.68761 0.44941,2.81261 0,1.91268 0,2.13765 -0.22471,2.81266 -0.67412,0.78758 -3.03352,1.91263 -4.38175,2.13765 -1.68529,0.22502 -1.90999,0.45005 -1.68529,4.7253 0.22471,1.80006 0.44942,3.48767 0.44942,3.48767 0.2247,0.45004 -0.44942,8.88803 -0.89882,11.47573 -0.67412,3.48768 -0.67412,7.08786 0,9.6755 0.4494,1.57509 0.67411,3.03768 1.57293,7.42549 0.33706,1.01255 0.78647,4.72524 1.23588,8.21291 0.44941,3.48773 0.89881,7.31294 1.12352,8.21303 0,0.90003 0.22471,2.58764 0.22471,3.71269 0,4.05023 0.56176,8.21303 1.23587,9.45054 0.22471,0.45 0.44941,1.1251 0.44941,1.1251 0,0.225 -0.44941,0.675 -1.12352,1.2376 -0.78647,0.675 -1.01118,0.9 -1.01118,1.8 0,1.0126 0,1.0126 -0.89881,1.4626 -0.67412,0.4501 -0.89882,0.6751 -0.89882,1.5751 1.90999,4.5003 -0.33706,1.4626 0.2247,4.2753 0.44941,1.8001 0.67412,2.3626 0.44941,3.7127 -0.2247,1.2375 -0.2247,1.4626 -2.1347,3.2627 -2.3594,2.3626 -2.8088,2.5876 -4.7188,3.0377 -3.03352,0.5625 -3.70763,0.225 -5.61762,-0.2251 z"
       style="fill:#4d4d4d;fill-opacity:1;fill-rule:evenodd;stroke:none;stroke-width:1"
       inkscape:connector-curvature="0"
       inkscape:export-filename="G:\apmeneel\Documents\Board Games\Masters of the Heist\decks\svg\crew\png\persuasion specialist.png"
       inkscape:export-xdpi="49.740002"
       inkscape:export-ydpi="49.740002" />
  </g>
</svg>
