<?xml version="1.0" encoding="UTF-8" standalone="no"?>
<!-- Created with Inkscape (http://www.inkscape.org/) -->

<svg
   xmlns:dc="http://purl.org/dc/elements/1.1/"
   xmlns:cc="http://creativecommons.org/ns#"
   xmlns:rdf="http://www.w3.org/1999/02/22-rdf-syntax-ns#"
   xmlns:svg="http://www.w3.org/2000/svg"
   xmlns="http://www.w3.org/2000/svg"
   xmlns:sodipodi="http://sodipodi.sourceforge.net/DTD/sodipodi-0.dtd"
   xmlns:inkscape="http://www.inkscape.org/namespaces/inkscape"
   width="150"
   height="150"
   viewBox="0 0 150 150"
   version="1.1"
   id="svg5256"
   inkscape:version="0.92.3 (2405546, 2018-03-11)"
   sodipodi:docname="3k.svg">
  <defs
     id="defs5250">
    <inkscape:perspective
       sodipodi:type="inkscape:persp3d"
       inkscape:vp_x="0 : 75 : 1"
       inkscape:vp_y="0 : 1000 : 0"
       inkscape:vp_z="150 : 75 : 1"
       inkscape:persp3d-origin="75 : 50 : 1"
       id="perspective5044" />
  </defs>
  <sodipodi:namedview
     id="base"
     pagecolor="#ffffff"
     bordercolor="#666666"
     borderopacity="1.0"
     inkscape:pageopacity="0.0"
     inkscape:pageshadow="2"
     inkscape:zoom="2.8"
     inkscape:cx="-32.675443"
     inkscape:cy="62.184458"
     inkscape:document-units="px"
     inkscape:current-layer="layer1"
     showgrid="false"
     inkscape:pagecheckerboard="true"
     units="px"
     inkscape:window-width="1920"
     inkscape:window-height="1017"
     inkscape:window-x="-8"
     inkscape:window-y="-8"
     inkscape:window-maximized="1"
     inkscape:snap-global="false">
    <sodipodi:guide
       position="135.62899,39.97733"
       orientation="35.02264,-60.62899"
       id="guide4518"
       inkscape:locked="false" />
    <sodipodi:guide
       position="75,4.95469"
       orientation="-35.02264,-60.628989"
       id="guide4520"
       inkscape:locked="false" />
    <sodipodi:guide
       position="14.371011,39.97733"
       orientation="-70.045324,0"
       id="guide4522"
       inkscape:locked="false" />
    <sodipodi:guide
       position="14.371011,110.02265"
       orientation="-35.022659,60.628989"
       id="guide4524"
       inkscape:locked="false" />
    <sodipodi:guide
       position="75,145.04531"
       orientation="35.022659,60.62899"
       id="guide4526"
       inkscape:locked="false" />
    <sodipodi:guide
       position="135.62899,110.02265"
       orientation="70.045324,0"
       id="guide4528"
       inkscape:locked="false" />
  </sodipodi:namedview>
  <metadata
     id="metadata5253">
    <rdf:RDF>
      <cc:Work
         rdf:about="">
        <dc:format>image/svg+xml</dc:format>
        <dc:type
           rdf:resource="http://purl.org/dc/dcmitype/StillImage" />
        <dc:title />
      </cc:Work>
    </rdf:RDF>
  </metadata>
  <g
     inkscape:label="Layer 1"
     inkscape:groupmode="layer"
     id="layer1">
    <path
       id="path823"
       d="M 135.99955,110.03974 75.039999,144.99948 14.00045,110.03974 V 39.960257 L 75.039999,5.0005193 135.99955,40.040257 Z"
       style="fill:#000000;fill-opacity:1;fill-rule:nonzero;stroke:none"
       inkscape:connector-curvature="0" />
    <g
       aria-label="$3k"
       style="font-style:normal;font-variant:normal;font-weight:normal;font-stretch:normal;font-size:40px;line-height:1.25;font-family:'Archivo Narrow';-inkscape-font-specification:'Archivo Narrow';letter-spacing:0px;word-spacing:0px;fill:#ffffff;fill-opacity:1;stroke:none;stroke-width:0.83532661"
       id="text822"
       transform="matrix(1.1971366,0,0,1.1971366,-14.785244,-14.785244)">
      <path
         d="m 57.556876,59.560003 h -1.96 v 4.28 c -3.4,0.44 -5.48,2.6 -5.48,5.92 0,3.92 2.8,5.04 5.48,5.96 v 7.16 c -1.56,-0.36 -2.64,-1.52 -2.64,-3.76 v -0.4 h -3.28 c 0,0.08 -0.04,0.32 -0.04,0.88 0,2.92 1.68,5.76 5.96,6.12 v 4.72 h 1.96 v -4.72 c 3.48,-0.28 5.96,-2.28 5.96,-6.44 0,-4.28 -3.16,-5.4 -5.96,-6.32 v -6.32 c 1.72,0.4 2.28,1.84 2.28,3.28 v 0.36 h 3.24 c 0,-0.08 0.04,-0.48 0.04,-0.76 0,-2.92 -1.96,-5.44 -5.56,-5.72 z m 0,16.88 c 1.52,0.68 2.68,1.56 2.68,3.32 0,1.88 -1.16,2.92 -2.68,3.16 z m -1.96,-4.24 c -1.28,-0.56 -2.2,-1.28 -2.2,-2.68 0,-1.04 0.4,-2.52 2.2,-2.88 z"
         id="path826"
         inkscape:connector-curvature="0"
         style="stroke-width:0.77025032" />
      <path
         d="m 74.720001,60.560003 c -4.16,0 -7.12,2.96 -7.12,7.52 v 0.72 h 3.36 v -0.36 c 0,-3.4 1.6,-4.96 3.8,-4.96 2,0 3.76,1.4 3.76,4.8 0,3.24 -1.84,4.8 -3.96,4.8 h -2.36 v 2.92 h 2.28 c 2.32,0 4.52,1 4.52,4.88 0,3.6 -1.8,5.16 -4.4,5.16 -2.68,0 -4.12,-1.8 -4.12,-5.2 v -0.44 h -3.36 v 0.32 c 0,5 2.72,8.24 7.72,8.24 4.4,0 7.52,-2.96 7.52,-7.84 0,-3.64 -1.72,-5.84 -4.04,-6.72 v -0.16 c 2.04,-1.16 3.56,-2.92 3.56,-6.16 0,-4.88 -2.88,-7.52 -7.16,-7.52 z"
         id="path828"
         inkscape:connector-curvature="0"
         style="stroke-width:0.77025032" />
      <path
         d="m 89.603126,59.560003 h -3.28 v 28.92 h 3.28 v -7.16 l 2.24,-2.44 4.8,9.6 h 3.720004 l -6.520004,-12.4 6.200004,-8.64 h -3.640004 l -6.8,9.76 z"
         id="path830"
         inkscape:connector-curvature="0"
         style="stroke-width:0.77025032" />
    </g>
    <flowRoot
       xml:space="preserve"
       id="flowRoot824"
       style="fill:black;fill-opacity:1;stroke:none;font-family:'Archivo Narrow';font-style:normal;font-weight:normal;font-size:40px;line-height:1.25;letter-spacing:0px;word-spacing:0px;-inkscape-font-specification:'Archivo Narrow';font-stretch:normal;font-variant:normal"><flowRegion
         id="flowRegion826"><rect
           id="rect828"
           width="278.57144"
           height="240.71428"
           x="-105"
           y="-14.285714" /></flowRegion><flowPara
         id="flowPara830" /></flowRoot>  </g>
</svg>
