<?xml version="1.0" encoding="UTF-8" standalone="no"?>
<!-- Created with Inkscape (http://www.inkscape.org/) -->

<svg
   xmlns:dc="http://purl.org/dc/elements/1.1/"
   xmlns:cc="http://creativecommons.org/ns#"
   xmlns:rdf="http://www.w3.org/1999/02/22-rdf-syntax-ns#"
   xmlns:svg="http://www.w3.org/2000/svg"
   xmlns="http://www.w3.org/2000/svg"
   xmlns:sodipodi="http://sodipodi.sourceforge.net/DTD/sodipodi-0.dtd"
   xmlns:inkscape="http://www.inkscape.org/namespaces/inkscape"
   width="150"
   height="150"
   viewBox="0 0 150 150"
   version="1.1"
   id="svg5256"
   inkscape:version="0.92.3 (2405546, 2018-03-11)"
   sodipodi:docname="entrance-left.svg">
  <defs
     id="defs5250">
    <inkscape:perspective
       sodipodi:type="inkscape:persp3d"
       inkscape:vp_x="0 : 75 : 1"
       inkscape:vp_y="0 : 1000 : 0"
       inkscape:vp_z="150 : 75 : 1"
       inkscape:persp3d-origin="75 : 50 : 1"
       id="perspective5044" />
  </defs>
  <sodipodi:namedview
     id="base"
     pagecolor="#ffffff"
     bordercolor="#666666"
     borderopacity="1.0"
     inkscape:pageopacity="0.0"
     inkscape:pageshadow="2"
     inkscape:zoom="2.8"
     inkscape:cx="26.074556"
     inkscape:cy="55.398744"
     inkscape:document-units="px"
     inkscape:current-layer="layer1"
     showgrid="false"
     inkscape:pagecheckerboard="true"
     units="px"
     inkscape:window-width="1920"
     inkscape:window-height="1017"
     inkscape:window-x="-8"
     inkscape:window-y="-8"
     inkscape:window-maximized="1"
     inkscape:snap-global="false">
    <sodipodi:guide
       position="135.62899,39.97733"
       orientation="35.02264,-60.62899"
       id="guide4518"
       inkscape:locked="false" />
    <sodipodi:guide
       position="75,4.95469"
       orientation="-35.02264,-60.628989"
       id="guide4520"
       inkscape:locked="false" />
    <sodipodi:guide
       position="14.371011,39.97733"
       orientation="-70.045324,0"
       id="guide4522"
       inkscape:locked="false" />
    <sodipodi:guide
       position="14.371011,110.02265"
       orientation="-35.022659,60.628989"
       id="guide4524"
       inkscape:locked="false" />
    <sodipodi:guide
       position="75,145.04531"
       orientation="35.022659,60.62899"
       id="guide4526"
       inkscape:locked="false" />
    <sodipodi:guide
       position="135.62899,110.02265"
       orientation="70.045324,0"
       id="guide4528"
       inkscape:locked="false" />
  </sodipodi:namedview>
  <metadata
     id="metadata5253">
    <rdf:RDF>
      <cc:Work
         rdf:about="">
        <dc:format>image/svg+xml</dc:format>
        <dc:type
           rdf:resource="http://purl.org/dc/dcmitype/StillImage" />
        <dc:title />
      </cc:Work>
    </rdf:RDF>
  </metadata>
  <g
     inkscape:label="Layer 1"
     inkscape:groupmode="layer"
     id="layer1">
    <g
       id="g839"
       transform="rotate(120,85.173275,92.228412)">
      <rect
         ry="9.3204432"
         transform="rotate(-30)"
         y="117.16645"
         x="-18.985935"
         height="61.194847"
         width="62.222382"
         id="rect832"
         style="opacity:1;vector-effect:none;fill:#000000;fill-opacity:1;stroke:none;stroke-width:1.99999988;stroke-linecap:butt;stroke-linejoin:miter;stroke-miterlimit:4;stroke-dasharray:none;stroke-dashoffset:0;stroke-opacity:1" />
      <path
         inkscape:connector-curvature="0"
         id="path11026"
         d="M 67.83352,102.09527 92.982455,145.6545 104.59298,133.52321 84.144797,98.105914 Z m 17.207831,-6.509451 0.134581,0.218608 1.638516,2.837993 1.573128,-0.908246 -1.765555,-3.058033 -1.580616,0.909594 z m -25.359044,14.643371 6.470424,11.20711 1.769847,-1.02182 -5.477242,-9.48686 6.095812,-3.51942 -0.993184,-1.72025 z m 28.124987,-9.86693 0.882936,1.52929 1.572563,-0.90792 -0.882936,-1.529294 z m 1.876121,3.24953 13.021015,22.55306 1.57257,-0.90792 -13.021012,-22.55304 z m -26.161527,18.81812 -2.513944,8.876 8.944136,2.26142 -1.946134,-3.37081 9.438788,-5.44949 -2.537924,-4.39581 -9.438787,5.44949 z m 18.215951,-2.38126 c 0.651547,-0.37617 1.77261,0.34584 2.50395,1.61255 0.731331,1.26671 0.796088,2.5986 0.14454,2.97477 -0.651542,0.37617 -1.772622,-0.34585 -2.503954,-1.61256 -0.73134,-1.26672 -0.796078,-2.59859 -0.144536,-2.97476 z m -8.842372,8.97912 1.946452,3.37136 -9.438227,5.44915 2.537925,4.39582 9.438227,-5.44916 1.946133,3.3708 2.514188,-8.87687 z m 5.091835,12.9066 3.378727,5.85213 1.769847,-1.02182 -3.378727,-5.85213 z m 25.710298,-14.04929 0.77237,1.33778 1.57256,-0.90792 -0.77237,-1.33778 z m 1.76556,3.05802 1.26913,2.19821 1.57257,-0.90792 -1.26912,-2.19818 z m -31.38162,23.9793 0.993182,1.72024 16.41896,-9.47949 -0.993181,-1.72025 z m 28.57621,-16.49848 -4.905928,5.12609 21.368888,-12.33732 -0.99319,-1.72025 z"
         style="fill:#ffffff;stroke-width:0.99999994" />
      <path
         inkscape:connector-curvature="0"
         style="fill:none;fill-opacity:1;fill-rule:nonzero;stroke:#868686;stroke-opacity:1"
         d="M 136.35669,144.68268 75.397142,179.64242 14.357593,144.68268 V 74.603198 L 75.397142,39.643457 136.35669,74.683188 Z"
         id="path823-6" />
    </g>
  </g>
</svg>
