<?xml version="1.0" encoding="UTF-8" standalone="no"?>
<!-- Created with Inkscape (http://www.inkscape.org/) -->

<svg
   xmlns:dc="http://purl.org/dc/elements/1.1/"
   xmlns:cc="http://creativecommons.org/ns#"
   xmlns:rdf="http://www.w3.org/1999/02/22-rdf-syntax-ns#"
   xmlns:svg="http://www.w3.org/2000/svg"
   xmlns="http://www.w3.org/2000/svg"
   xmlns:sodipodi="http://sodipodi.sourceforge.net/DTD/sodipodi-0.dtd"
   xmlns:inkscape="http://www.inkscape.org/namespaces/inkscape"
   width="150"
   height="150"
   viewBox="0 0 150 150"
   version="1.1"
   id="svg5256"
   inkscape:version="0.92.3 (2405546, 2018-03-11)"
   sodipodi:docname="entrance-lower-right.svg">
  <defs
     id="defs5250">
    <inkscape:perspective
       sodipodi:type="inkscape:persp3d"
       inkscape:vp_x="0 : 75 : 1"
       inkscape:vp_y="0 : 1000 : 0"
       inkscape:vp_z="150 : 75 : 1"
       inkscape:persp3d-origin="75 : 50 : 1"
       id="perspective5044" />
  </defs>
  <sodipodi:namedview
     id="base"
     pagecolor="#ffffff"
     bordercolor="#666666"
     borderopacity="1.0"
     inkscape:pageopacity="0.0"
     inkscape:pageshadow="2"
     inkscape:zoom="1.979899"
     inkscape:cx="-67.894462"
     inkscape:cy="49.579138"
     inkscape:document-units="px"
     inkscape:current-layer="layer1"
     showgrid="false"
     inkscape:pagecheckerboard="true"
     units="px"
     inkscape:window-width="1920"
     inkscape:window-height="1017"
     inkscape:window-x="-8"
     inkscape:window-y="-8"
     inkscape:window-maximized="1"
     inkscape:snap-global="false">
    <sodipodi:guide
       position="135.62899,39.97733"
       orientation="35.02264,-60.62899"
       id="guide4518"
       inkscape:locked="false" />
    <sodipodi:guide
       position="75,4.95469"
       orientation="-35.02264,-60.628989"
       id="guide4520"
       inkscape:locked="false" />
    <sodipodi:guide
       position="14.371011,39.97733"
       orientation="-70.045324,0"
       id="guide4522"
       inkscape:locked="false" />
    <sodipodi:guide
       position="14.371011,110.02265"
       orientation="-35.022659,60.628989"
       id="guide4524"
       inkscape:locked="false" />
    <sodipodi:guide
       position="75,145.04531"
       orientation="35.022659,60.62899"
       id="guide4526"
       inkscape:locked="false" />
    <sodipodi:guide
       position="135.62899,110.02265"
       orientation="70.045324,0"
       id="guide4528"
       inkscape:locked="false" />
  </sodipodi:namedview>
  <metadata
     id="metadata5253">
    <rdf:RDF>
      <cc:Work
         rdf:about="">
        <dc:format>image/svg+xml</dc:format>
        <dc:type
           rdf:resource="http://purl.org/dc/dcmitype/StillImage" />
        <dc:title />
      </cc:Work>
    </rdf:RDF>
  </metadata>
  <g
     inkscape:label="Layer 1"
     inkscape:groupmode="layer"
     id="layer1">
    <g
       id="g852">
      <rect
         ry="9.3204432"
         transform="rotate(-30)"
         y="86.986214"
         x="-1.9737626"
         height="61.194847"
         width="62.222382"
         id="rect832"
         style="opacity:1;vector-effect:none;fill:#000000;fill-opacity:1;stroke:none;stroke-width:1.99999988;stroke-linecap:butt;stroke-linejoin:miter;stroke-miterlimit:4;stroke-dasharray:none;stroke-dashoffset:0;stroke-opacity:1" />
      <path
         inkscape:connector-curvature="0"
         id="path11026"
         d="M 67.476377,67.452337 92.625312,111.01156 104.23584,98.880272 83.787654,63.462978 Z m 17.207831,-6.509454 0.134581,0.218608 1.638516,2.837993 1.573128,-0.908246 -1.765555,-3.058033 -1.580616,0.909594 z m -25.359044,14.643375 6.470424,11.207105 1.769847,-1.021821 -5.477242,-9.48686 6.095812,-3.519418 -0.993184,-1.720245 z M 87.450151,65.71932 88.333087,67.24861 89.90565,66.340691 89.022714,64.8114 Z m 1.876121,3.249536 13.021018,22.553061 1.57257,-0.907921 -13.021015,-22.553041 z m -26.161527,18.818115 -2.513944,8.876001 8.944136,2.26142 -1.946134,-3.370803 9.438788,-5.449491 -2.537924,-4.39581 -9.438787,5.449489 z m 18.215951,-2.381258 c 0.651547,-0.376172 1.77261,0.345837 2.50395,1.612555 0.731331,1.266704 0.796088,2.598593 0.14454,2.974768 -0.651542,0.376166 -1.772622,-0.345856 -2.503954,-1.61256 -0.73134,-1.266717 -0.796078,-2.598596 -0.144536,-2.974763 z m -8.842372,8.979126 1.946452,3.371353 -9.438227,5.449148 2.537925,4.39582 9.438227,-5.44916 1.946133,3.3708 2.514188,-8.876868 z m 5.091835,12.906591 3.378727,5.85213 1.769847,-1.02182 -3.378727,-5.85213 z m 25.710301,-14.049288 0.77237,1.337785 1.57256,-0.907921 -0.77237,-1.337785 z m 1.76556,3.058027 1.26913,2.198203 1.57257,-0.90792 -1.26912,-2.198178 z m -31.381623,23.979291 0.993182,1.72024 16.41896,-9.47949 -0.993181,-1.72025 z m 28.576213,-16.49848 -4.905931,5.12609 21.368891,-12.337318 -0.99319,-1.720243 z"
         style="fill:#ffffff;stroke-width:0.99999994" />
      <path
         inkscape:connector-curvature="0"
         style="fill:none;fill-opacity:1;fill-rule:nonzero;stroke:#868686;stroke-opacity:1"
         d="M 135.99955,110.03974 75.039999,144.99948 14.00045,110.03974 V 39.960262 L 75.039999,5.0005213 135.99955,40.040252 Z"
         id="path823" />
    </g>
  </g>
</svg>
