<?xml version="1.0" encoding="UTF-8" standalone="no"?>
<!-- Created with Inkscape (http://www.inkscape.org/) -->

<svg
   xmlns:dc="http://purl.org/dc/elements/1.1/"
   xmlns:cc="http://creativecommons.org/ns#"
   xmlns:rdf="http://www.w3.org/1999/02/22-rdf-syntax-ns#"
   xmlns:svg="http://www.w3.org/2000/svg"
   xmlns="http://www.w3.org/2000/svg"
   xmlns:sodipodi="http://sodipodi.sourceforge.net/DTD/sodipodi-0.dtd"
   xmlns:inkscape="http://www.inkscape.org/namespaces/inkscape"
   width="150"
   height="150"
   viewBox="0 0 150 150"
   version="1.1"
   id="svg5256"
   inkscape:version="0.92.3 (2405546, 2018-03-11)"
   sodipodi:docname="entrance-lower-right.svg">
  <defs
     id="defs5250">
    <inkscape:perspective
       sodipodi:type="inkscape:persp3d"
       inkscape:vp_x="0 : 75 : 1"
       inkscape:vp_y="0 : 1000 : 0"
       inkscape:vp_z="150 : 75 : 1"
       inkscape:persp3d-origin="75 : 50 : 1"
       id="perspective5044" />
  </defs>
  <sodipodi:namedview
     id="base"
     pagecolor="#ffffff"
     bordercolor="#666666"
     borderopacity="1.0"
     inkscape:pageopacity="0.0"
     inkscape:pageshadow="2"
     inkscape:zoom="1.979899"
     inkscape:cx="20.746423"
     inkscape:cy="49.579138"
     inkscape:document-units="px"
     inkscape:current-layer="layer1"
     showgrid="false"
     inkscape:pagecheckerboard="true"
     units="px"
     inkscape:window-width="1920"
     inkscape:window-height="1017"
     inkscape:window-x="-8"
     inkscape:window-y="-8"
     inkscape:window-maximized="1"
     inkscape:snap-global="false">
    <sodipodi:guide
       position="135.62899,39.97733"
       orientation="35.02264,-60.62899"
       id="guide4518"
       inkscape:locked="false" />
    <sodipodi:guide
       position="75,4.95469"
       orientation="-35.02264,-60.628989"
       id="guide4520"
       inkscape:locked="false" />
    <sodipodi:guide
       position="14.371011,39.97733"
       orientation="-70.045324,0"
       id="guide4522"
       inkscape:locked="false" />
    <sodipodi:guide
       position="14.371011,110.02265"
       orientation="-35.022659,60.628989"
       id="guide4524"
       inkscape:locked="false" />
    <sodipodi:guide
       position="75,145.04531"
       orientation="35.022659,60.62899"
       id="guide4526"
       inkscape:locked="false" />
    <sodipodi:guide
       position="135.62899,110.02265"
       orientation="70.045324,0"
       id="guide4528"
       inkscape:locked="false" />
  </sodipodi:namedview>
  <metadata
     id="metadata5253">
    <rdf:RDF>
      <cc:Work
         rdf:about="">
        <dc:format>image/svg+xml</dc:format>
        <dc:type
           rdf:resource="http://purl.org/dc/dcmitype/StillImage" />
        <dc:title />
      </cc:Work>
    </rdf:RDF>
  </metadata>
  <g
     inkscape:label="Layer 1"
     inkscape:groupmode="layer"
     id="layer1">
    <rect
       style="opacity:1;vector-effect:none;fill:#000000;fill-opacity:1;stroke:none;stroke-width:1.99999988;stroke-linecap:butt;stroke-linejoin:miter;stroke-miterlimit:4;stroke-dasharray:none;stroke-dashoffset:0;stroke-opacity:1"
       id="rect832"
       width="72.792831"
       height="71.590736"
       x="-8.7550755"
       y="92.565285"
       transform="rotate(-30)"
       ry="10.903817" />
    <path
       style="fill:#ffffff;stroke-width:0.99999994"
       d="M 68.757833,74.168307 98.179114,125.12746 111.76205,110.93527 87.840099,69.501229 Z m 20.131128,-7.615292 0.157444,0.255746 1.91687,3.320116 1.840374,-1.06254 -2.065491,-3.577537 -1.849134,1.064117 z m -29.667084,17.131018 7.569632,13.110988 2.070511,-1.19541 -6.407725,-11.098505 7.131379,-4.117303 -1.161908,-2.012483 z m 32.90291,-11.543151 1.032931,1.789089 1.839713,-1.062159 -1.032931,-1.789089 z m 2.19484,3.801573 15.233053,26.384415 1.83971,-1.06216 -15.233038,-26.384392 z m -30.605894,22.01497 -2.941017,10.383875 10.463582,2.64559 -2.276747,-3.94344 11.042266,-6.37526 -2.969071,-5.142578 -11.042265,6.375258 z m 21.310509,-2.785791 c 0.762234,-0.440076 2.073745,0.404589 2.929326,1.886499 0.855571,1.481894 0.931329,3.040047 0.169095,3.480127 -0.762227,0.44007 -2.073759,-0.40461 -2.929331,-1.886504 -0.855581,-1.48191 -0.931317,-3.04005 -0.16909,-3.480122 z m -10.344529,10.504516 2.277118,3.94408 -11.04161,6.37488 2.969073,5.14259 11.041609,-6.37488 2.276746,3.94344 2.941303,-10.3849 z m 5.956845,15.0992 3.952711,6.8463 2.070511,-1.19541 -3.952711,-6.8463 z m 30.078012,-16.43602 0.90358,1.56505 1.83971,-1.06216 -0.90358,-1.56505 z m 2.06549,3.57753 1.48473,2.57164 1.83972,-1.06216 -1.48472,-2.57161 z m -36.712782,28.05295 1.161905,2.01248 19.208243,-11.08989 -1.161905,-2.01248 z m 33.430782,-19.30127 -5.73935,5.99692 24.99907,-14.43322 -1.16191,-2.01248 z"
       id="path11026"
       inkscape:connector-curvature="0" />
  </g>
</svg>
