<?xml version="1.0" encoding="UTF-8" standalone="no"?>
<!-- Created with Inkscape (http://www.inkscape.org/) -->

<svg
   xmlns:dc="http://purl.org/dc/elements/1.1/"
   xmlns:cc="http://creativecommons.org/ns#"
   xmlns:rdf="http://www.w3.org/1999/02/22-rdf-syntax-ns#"
   xmlns:svg="http://www.w3.org/2000/svg"
   xmlns="http://www.w3.org/2000/svg"
   xmlns:sodipodi="http://sodipodi.sourceforge.net/DTD/sodipodi-0.dtd"
   xmlns:inkscape="http://www.inkscape.org/namespaces/inkscape"
   width="150"
   height="150"
   viewBox="0 0 150 150"
   version="1.1"
   id="svg5256"
   inkscape:version="0.92.4 (5da689c313, 2019-01-14)"
   sodipodi:docname="gate-d.svg">
  <defs
     id="defs5250">
    <inkscape:perspective
       sodipodi:type="inkscape:persp3d"
       inkscape:vp_x="0 : 75 : 1"
       inkscape:vp_y="0 : 1000 : 0"
       inkscape:vp_z="150 : 75 : 1"
       inkscape:persp3d-origin="75 : 50 : 1"
       id="perspective5044" />
  </defs>
  <sodipodi:namedview
     id="base"
     pagecolor="#ffffff"
     bordercolor="#666666"
     borderopacity="1.0"
     inkscape:pageopacity="0.0"
     inkscape:pageshadow="2"
     inkscape:zoom="2.8"
     inkscape:cx="16.788842"
     inkscape:cy="84.327315"
     inkscape:document-units="px"
     inkscape:current-layer="layer1"
     showgrid="false"
     inkscape:pagecheckerboard="true"
     units="px"
     inkscape:window-width="3840"
     inkscape:window-height="2066"
     inkscape:window-x="2869"
     inkscape:window-y="-11"
     inkscape:window-maximized="1"
     inkscape:snap-global="false">
    <sodipodi:guide
       position="135.62899,39.97733"
       orientation="35.02264,-60.62899"
       id="guide4518"
       inkscape:locked="false" />
    <sodipodi:guide
       position="75,4.95469"
       orientation="-35.02264,-60.628989"
       id="guide4520"
       inkscape:locked="false" />
    <sodipodi:guide
       position="14.371011,39.97733"
       orientation="-70.045324,0"
       id="guide4522"
       inkscape:locked="false" />
    <sodipodi:guide
       position="14.371011,110.02265"
       orientation="-35.022659,60.628989"
       id="guide4524"
       inkscape:locked="false" />
    <sodipodi:guide
       position="75,145.04531"
       orientation="35.022659,60.62899"
       id="guide4526"
       inkscape:locked="false" />
    <sodipodi:guide
       position="135.62899,110.02265"
       orientation="70.045324,0"
       id="guide4528"
       inkscape:locked="false" />
  </sodipodi:namedview>
  <metadata
     id="metadata5253">
    <rdf:RDF>
      <cc:Work
         rdf:about="">
        <dc:format>image/svg+xml</dc:format>
        <dc:type
           rdf:resource="http://purl.org/dc/dcmitype/StillImage" />
        <dc:title />
      </cc:Work>
    </rdf:RDF>
  </metadata>
  <g
     inkscape:label="Layer 1"
     inkscape:groupmode="layer"
     id="layer1">
    <path
       id="path823"
       d="M 135.99955,110.03974 75.039997,144.99948 14.000448,110.03974 V 39.960261 L 75.039997,5.0005193 135.99955,40.04026 Z"
       style="fill:#000000;fill-opacity:1;fill-rule:nonzero;stroke:none"
       inkscape:connector-curvature="0" />
    <g
       aria-label="D"
       style="font-style:normal;font-variant:normal;font-weight:normal;font-stretch:normal;font-size:40px;line-height:1.25;font-family:'Archivo Black';-inkscape-font-specification:'Archivo Black, ';letter-spacing:0px;word-spacing:0px;fill:#ffffff;fill-opacity:1;stroke:none"
       id="text17">
      <path
         d="m 73.740001,73.12286 q 14.44,0 14.44,13.76 0,13.76 -14.44,13.76 h -11.92 v -27.52 z m -3.08,20.92 h 2.92 q 5.56,0 5.56,-5.96 v -2.4 q 0,-5.96 -5.56,-5.96 h -2.92 z"
         style=""
         id="path29" />
    </g>
    <path
       id="path5133"
       style="font-style:normal;font-variant:normal;font-weight:normal;font-stretch:normal;font-size:medium;line-height:18.45709038px;font-family:'Archivo Black';-inkscape-font-specification:'Archivo Black, ';letter-spacing:0px;word-spacing:0px;display:inline;fill:#ffffff;fill-opacity:1;stroke:none;stroke-width:0.66666663;stroke-linecap:butt;stroke-linejoin:miter;stroke-miterlimit:4;stroke-dasharray:none;stroke-opacity:1"
       d="m 71.92995,29.292547 c -1.19619,0.0323 -3.03617,0.54485 -2.84296,1.29107 0.62362,0.6669 1.00259,1.61834 1.44641,2.47329 0.98973,1.90645 1.7508,4.053 2.36055,6.59642 0.56245,0.39715 0.76502,0.33809 1.59042,0.15178 0.55101,-0.12425 1.02634,-0.19693 1.20042,-0.62739 0.24738,-0.70213 0.41331,-1.39026 0.6079,-2.09823 0.2157,-0.78539 0.46728,-1.59196 0.90537,-2.40119 0.90364,-1.6689 1.82637,-3.0538 2.32201,-4.35847 0.18274,-0.53776 -1.23986,-0.76167 -1.81376,-0.7642 -1.22856,-0.006 -2.79175,0.0367 -5.08391,-0.20589 -0.17436,-0.0463 -0.41653,-0.0648 -0.69261,-0.0573 z m -4.25781,0.74167 c -0.13931,-0.016 -0.27786,0.0128 -0.40235,0.0787 -1.66073,0.90414 -3.28961,0.21871 -4.52451,1.38573 -0.41192,0.38952 -0.52303,1.03559 -0.13037,1.44467 2.38912,2.48892 2.53637,3.29727 4.68803,7.31372 1.57621,1.1163 3.33137,0.26127 3.81766,0.0538 0.51759,-0.22926 0.89677,-0.70531 0.73357,-1.24939 -0.31684,-3.51526 -1.75475,-5.24014 -3.34063,-8.21141 -0.006,-0.42615 -0.42391,-0.77949 -0.84141,-0.81543 z m 12.92106,0.39402 c -0.41747,0.0358 -0.83394,0.38991 -0.84134,0.8161 -1.58587,2.97124 -3.02392,4.69607 -3.34065,8.21135 -0.16319,0.54413 0.21579,1.02021 0.73355,1.24943 2.62083,1.16074 1.7284,0.352 2.88855,0.53984 0.55856,0.0905 0.95544,-0.0932 1.22355,-0.59335 2.15172,-4.01642 2.29891,-4.8249 4.68807,-7.31381 0.39265,-0.40908 0.28176,-1.0558 -0.13038,-1.44526 -1.23489,-1.1672 -3.1583,-0.48102 -4.81898,-1.38512 -0.12372,-0.0683 -0.2633,-0.0912 -0.40227,-0.0791 z m -19.8062,1.86846 c -0.13922,0.0162 -0.27249,0.0596 -0.38345,0.14755 -1.48127,1.17741 -3.49349,0.83338 -4.5103,2.19641 -0.33926,0.45476 -0.34844,1.12487 0.1189,1.44585 2.88169,1.98058 3.58811,2.50883 5.87011,6.39528 1.7438,0.8274 3.61649,-0.36798 4.05994,-0.65651 0.47061,-0.31546 0.76296,-0.84988 0.50891,-1.35783 -0.91345,-3.40826 -2.62508,-4.85938 -4.69571,-7.51254 -0.0803,-0.41851 -0.55079,-0.69504 -0.96824,-0.65833 z m 26.60305,0.70479 c -0.41797,-0.032 -0.8845,0.25297 -0.95869,0.67264 -2.03171,2.68337 -3.7224,4.15903 -4.58616,7.58037 -0.24643,0.5115 0.0533,1.04169 0.52852,1.35001 0.44729,0.28269 2.3379,1.45002 4.06943,0.59706 2.7543,-3.62609 3.026524,-4.40103 5.775914,-6.48102 0.45195,-0.3419 0.44373,-0.99721 0.0975,-1.44706 -1.03654,-1.348 -3.043374,-0.97485 -4.541714,-2.13034 -0.11221,-0.0862 -0.24526,-0.13244 -0.38507,-0.14196 z m -32.97863,2.66072 c -0.21356,0.006 -0.42003,0.0858 -0.55993,0.24591 -1.24561,1.42654 -3.28554,1.45302 -4.04099,2.97798 -0.25219,0.50879 -0.13738,1.16141 0.37565,1.40064 3.1588,1.47268 4.41672,1.8359 7.18256,5.1744 1.86377,0.49793 3.23058,-0.96552 3.615,-1.3297 0.40643,-0.39538 0.59746,-0.97398 0.25656,-1.4274 -1.5104,-3.18689 -3.45425,-4.30371 -5.96729,-6.53818 -0.12849,-0.33088 -0.50551,-0.51585 -0.86153,-0.50355 z m 39.273014,0.94702 c -0.35598,-0.0161 -0.73371,0.17196 -0.86215,0.50302 -2.51302,2.23448 -4.456904,3.35129 -5.967274,6.53818 -0.34097,0.45349 -0.14979,1.03258 0.25658,1.42797 0.38453,0.3641 2.01196,1.87943 3.875704,1.38152 3.40448,-3.01769 3.82188,-4.31562 6.92188,-5.81788 0.50953,-0.24687 0.62829,-0.8924 0.37626,-1.4012 -0.7554,-1.52497 -2.79602,-0.95919 -4.04163,-2.38569 -0.14037,-0.16019 -0.3458,-0.23846 -0.55936,-0.24594 z m -44.713554,3.66556 c -0.35611,-0.0256 -0.73832,0.14631 -0.87455,0.47437 -0.72772,1.75112 -2.25178,2.29421 -2.88916,3.87264 -0.21266,0.5266 -0.0491,1.17179 0.48171,1.3679 0.96965,0.35814 5.49672,2.1646 6.39274,2.65833 0.93859,0.51748 0.60542,0.5885 2.19386,1.24828 0.51465,0.21431 0.97241,0.19177 1.25736,-0.0679 0.96909,-0.88245 1.67314,-1.72283 2.22013,-2.54406 0.25943,-0.50491 -0.19475,-0.93716 -0.66183,-1.25774 -2.44304,-2.53641 -4.47493,-4.17661 -7.56594,-5.48929 -0.13612,-0.16384 -0.34032,-0.24843 -0.55409,-0.26306 z m 51.44758,0.0564 c -0.21367,0.016 -0.41794,0.0996 -0.554056,0.26288 -3.09109,1.31277 -5.75138,3.58427 -8.19454,6.12088 -0.97838,0.72054 1.15894,4.14424 3.02424,3.98632 2.69236,-1.90721 5.646696,-3.10251 9.214906,-4.42026 0.531,-0.19627 0.69378,-0.84121 0.48113,-1.36788 -0.63737,-1.57839 -2.36931,-2.35727 -3.09714,-4.10835 -0.13615,-0.32766 -0.51837,-0.49822 -0.87456,-0.47376 z m -27.69868,1.29582 c -1.44978,0.0865 -2.85105,0.28756 -4.18794,0.59942 l 2e-5,4.81312 h -4.47059 l 1e-5,-3.27502 c -1.53305,0.71417 -2.93838,1.58268 -4.18738,2.58219 l 1e-5,0.69283 h -0.81296 c -1.39171,1.24702 -2.56133,2.66338 -3.46328,4.20664 l 4.27623,1e-5 v 4.53093 l -6.05263,2e-5 c -0.0377,0.17226 -0.0763,0.34438 -0.10774,0.51847 l -0.66483,3.68871 h 6.82526 v 5.50241 l 2.0934,6.60007 2.09399,-6.60006 v -5.5024 l 4.47056,-2e-5 v 5.5024 l 2.094,6.60009 2.09393,-6.60006 2e-5,-5.50243 h 4.47116 l 2e-5,5.50241 2.09402,6.60006 2.09277,-6.60006 -3e-5,-5.50241 h 4.47117 v 5.5024 l 2.094,6.60008 2.093984,-6.60006 2e-5,-5.50242 h 6.74878 l -0.73472,-2.97862 c -2e-5,-0.39798 -0.0557,-0.80841 -0.16032,-1.22858 l -5.85357,1e-5 1e-5,-4.53096 3.19549,10e-6 c -1.8695,-2.12845 -4.501024,-4.21526 -7.383394,-5.90186 v 1.69522 h -4.47123 l 2e-5,-3.88992 c -1.41716,-0.56395 -2.82936,-0.99391 -4.1868,-1.26188 l 1e-5,5.15183 -4.47117,10e-6 v -5.41257 z m 32.85007,4.70895 c -0.14029,0.006 -0.276,0.0451 -0.39166,0.1268 -2.88688,1.03512 -5.936656,2.67524 -9.492206,3.7822 -0.53377,0.18826 -0.69302,0.77637 -0.57232,1.33161 0.6114,2.81108 1.42329,2.49239 1.58557,3.62147 0.081,0.56244 0.86266,0.90226 1.32553,0.57553 2.690106,-1.89853 5.331816,-3.44416 9.492216,-3.78161 0.56388,-0.0455 0.74953,-0.79221 0.57294,-1.33219 -0.52918,-1.61831 -1.33438,-1.74078 -1.5862,-3.62142 -0.0568,-0.4225 -0.51355,-0.71855 -0.93386,-0.70235 z m -61.78886,0.0554 c -0.42021,-0.0162 -0.87786,0.28083 -0.93439,0.703 -0.25181,1.88064 -1.00416,1.7943 -1.53347,3.41257 -0.17663,0.53988 0.0286,1.17216 0.57237,1.33154 3.64908,1.07134 6.80753,1.80111 9.62259,3.52026 0.48376,0.29458 1.2446,-0.016 1.32543,-0.57556 0.16226,-1.12908 0.79231,-0.3396 1.40372,-3.15067 0.12041,-0.55526 -0.0388,-1.14393 -0.57297,-1.33216 -3.01344,-1.815 -6.16758,-3.3173 -9.49161,-3.78158 -0.11531,-0.0819 -0.25202,-0.12109 -0.39168,-0.12743 z m 20.28027,4.85483 h 4.47059 l -1e-5,4.53099 -4.47056,2e-5 z m 8.65851,-10e-6 4.47119,10e-6 10e-6,4.531 -4.4712,2e-5 z m 8.65797,10e-6 4.47119,1e-5 v 4.53099 l -4.47117,1e-5 z m 26.9112,1.02088 c -0.14061,0.002 -0.27761,0.0383 -0.39523,0.11719 -3.33458,0.37984 -6.52593,1.80198 -9.584036,3.53995 -0.53836,0.17419 -0.66037,0.75104 -0.60553,1.31663 0.1546,1.59291 0.0224,2.37971 -0.16893,3.50426 -0.0951,0.56009 0.43088,0.53939 0.98128,0.40764 3.204766,-0.76671 6.493706,-0.22574 10.293896,-0.11879 0.5655,0.016 0.95461,-0.52214 0.95224,-1.0905 -0.009,-1.70332 -0.35314,-5.06425 -0.55763,-6.95063 -0.046,-0.42369 -0.4955,-0.73165 -0.91599,-0.72626 z m -67.66728,0.32673 c -0.41998,0.0225 -0.84848,0.35873 -0.86685,0.78456 -0.0822,1.89579 -0.20877,4.85394 -0.10677,6.55421 0.0338,0.56728 0.45827,1.07848 1.02148,1.02558 3.78522,-0.35555 6.96331,-0.5555 10.21094,2e-5 0.55763,0.0955 1.15274,-0.47282 1.02152,-1.02561 -0.2636,-1.10962 -0.44665,-1.46769 -0.39586,-3.06728 0.0191,-0.568 -0.14151,-1.1354 -0.69022,-1.27441 -3.16418,-1.53439 -6.44108,-2.74497 -9.79319,-2.90597 -0.12264,-0.0708 -0.26111,-0.0982 -0.40113,-0.0913 z m 5.33507,8.62921 c -1.71559,-0.0224 -3.38702,0.0919 -4.97303,0.403 -0.55021,-0.13218 -0.89892,0.4708 -1.02154,1.02565 -0.3836,1.73597 -0.3865,3.23721 0,4.97321 0.12368,0.55463 0.46027,1.09682 1.02152,1.02567 3.79176,-0.48116 6.88918,-0.36767 10.21093,-2e-5 0.56236,0.0622 1.1528,-0.47282 1.02152,-1.02566 -0.26331,-1.10959 0.46331,-2.13371 -3e-5,-4.97321 -0.0918,-0.56085 -0.45621,-1.04833 -1.02151,-1.02565 -1.76288,-0.2267 -3.52228,-0.38189 -5.23786,-0.40299 z m 57.74491,2e-5 c -1.7156,0.0224 -3.47562,0.17611 -5.238546,0.40298 -0.56515,-0.0225 -0.92939,0.46477 -1.02088,1.02566 -0.46323,2.83951 0.26328,4.09875 -2e-5,5.20836 -0.13122,0.5528 0.45709,1.07172 1.0209,1.02558 3.358296,-0.27475 6.452716,-0.6861 10.211596,0 0.55652,0.10159 0.89743,-0.47093 1.0209,-1.02559 0.38649,-1.73596 0.38363,-3.47238 0,-5.20837 -0.12274,-0.55479 -0.47076,-1.15806 -1.0209,-1.02564 -1.58605,-0.31089 -3.25744,-0.42406 -4.97305,-0.40298 z m -0.0558,7.69951 c -1.71557,0.0224 -3.47554,0.17708 -5.238476,0.40355 -0.56531,-0.0223 -0.82032,0.49421 -1.02086,1.0256 -0.99178,2.62713 0.0915,3.68022 -4e-5,4.85897 -0.0441,0.56651 0.45697,0.98092 1.02094,1.0256 3.411556,0.27025 6.545456,0.69656 10.211486,1e-5 0.55585,-0.10599 0.89741,-0.47095 1.02097,-1.02562 0.38647,-1.73597 0.3836,-3.12295 -1e-5,-4.85896 -0.12272,-0.55478 -0.47079,-1.15805 -1.02095,-1.02561 -1.58601,-0.31092 -3.25748,-0.42467 -4.97306,-0.40354 z m -57.52982,0.13096 c -1.71541,-0.0225 -3.42094,0.049 -5.0767,0.27245 -0.55015,-0.13244 -0.89889,0.4708 -1.0215,1.02558 -0.38363,1.73602 -0.38652,3.47239 -1e-5,5.20839 0.12337,0.55458 0.45774,0.97823 1.02152,1.02555 3.6663,0.30838 6.79947,0.20978 10.21092,0 0.56468,-0.0346 1.06544,-0.45901 1.02153,-1.02556 -0.0915,-1.17877 0.9917,-2.58127 1e-5,-5.20839 -0.2005,-0.53136 -0.45629,-1.04831 -1.02154,-1.02559 -1.69386,-0.13993 -3.41878,-0.25168 -5.13419,-0.27251 z m 62.70733,7.67684 c -0.0673,-0.006 -0.13576,1.4e-4 -0.2045,0.0191 -3.62153,0.87191 -6.74761,0.13929 -10.211556,-1e-5 -0.56531,-0.0223 -1.05463,0.45889 -1.02089,1.02617 0.15585,2.62716 0.28494,4.02902 -1e-5,5.20775 -0.13332,0.5522 0.45541,1.01024 1.0209,1.02568 3.028716,0.0826 6.346826,0.46546 10.211536,0 0.56166,-0.0678 0.92145,-0.46617 1.02095,-1.02569 0.30852,-1.73593 -0.20273,-3.47174 -2e-5,-5.20774 0.0575,-0.49384 -0.34611,-1.01018 -0.81647,-1.04281 z m -67.98907,0.31378 c -0.4703,0.0322 -0.87408,0.54899 -0.81659,1.0428 0.20271,1.73596 -0.30852,3.15805 0,4.89404 0.0995,0.55948 0.45639,1.00027 1.02152,1.0256 3.86476,0.17355 7.18223,-0.50938 10.21092,1e-5 0.55795,0.0942 1.15501,-0.4733 1.02153,-1.02562 -0.28493,-1.1787 -0.15586,-2.26685 0,-4.89398 0.0335,-0.56728 -0.45626,-1.04899 -1.02153,-1.02625 -3.46397,0.13926 -6.58933,0.87198 -10.2109,-3e-5 -0.0691,-0.0185 -0.13774,-0.0224 -0.20491,-0.0193 z m 7.82545,7.2393 c -2.53754,0.006 -4.95619,0.40024 -7.62041,0.16365 -0.56351,-0.05 -0.93905,0.464 -1.02155,1.0262 -0.25465,1.73605 -0.74022,3.4718 1e-5,5.20777 0.22247,0.52246 0.45603,0.85906 1.02157,0.84283 3.86473,-0.11015 8.06104,-0.45614 10.47104,0.0522 0.55358,0.117 1.01024,-0.458 1.0215,-1.02617 0.0255,-1.17878 0.27921,-2.44968 -0.26011,-5.07681 -0.11441,-0.55661 -0.46116,-0.94818 -1.02151,-1.02622 -0.88567,-0.12324 -1.74464,-0.16524 -2.59049,-0.16395 z m 49.747654,0.16368 c -0.56476,-0.0336 -0.90667,0.4696 -1.0209,1.02617 -0.53934,2.62716 -0.0255,4.02907 1e-5,5.20779 0.0129,0.56821 0.45656,1.06559 1.02091,1.02562 3.028716,-0.21453 6.346756,-0.11015 10.211486,0 0.56549,0.016 0.79818,-0.50318 1.02096,-1.02565 0.74009,-1.736 0.25469,-3.47171 1e-5,-5.20775 -0.0825,-0.56219 -0.45929,-1.09386 -1.02097,-1.02621 -3.55224,0.42777 -6.66884,0.21264 -10.211506,3e-5 z m -49.747664,7.33281 c -2.53754,0.006 -4.95617,0.40026 -7.62038,0.16361 -0.56354,-0.05 -0.93908,0.46339 -1.02155,1.02564 -0.25467,1.73599 -0.74025,3.158743 0,4.894733 0.22249,0.52239 0.46268,0.9373 1.02152,1.02557 3.86474,0.61045 7.18224,0.0758 10.21093,-2e-5 0.56555,-0.016 1.01025,-0.45742 1.02153,-1.02557 0.0255,-1.17873 0.5393,-2.267563 -10e-6,-4.894713 -0.11442,-0.5566 -0.46118,-0.94757 -1.02152,-1.02561 -0.88566,-0.12333 -1.74464,-0.16525 -2.59052,-0.16364 z m 49.747684,0.16363 c -0.56392,-0.0457 -0.90666,0.46903 -1.02094,1.02564 -0.5393,2.62711 -0.0255,4.029613 5e-5,5.208363 0.0129,0.56816 0.45535,1.01149 1.02089,1.0256 3.028716,0.0759 6.346766,0.6105 10.211476,3e-5 0.55892,-0.0883 0.79819,-0.50313 1.02098,-1.02563 0.7401,-1.73602 0.25466,-3.472373 0,-5.208373 -0.0825,-0.56222 -0.45891,-1.09044 -1.02097,-1.02562 -1.76604,0.20395 -3.33123,0.0925 -4.9908,0.0781 -1.68478,-0.016 -3.46384,0.0653 -5.220686,-0.0781 z M 40.8384,99.43229 c -0.44725,0.0484 -0.74848,0.54138 -0.82062,1.03339 -0.25463,1.73601 -0.74022,3.47232 2e-5,5.2084 0.22248,0.52238 0.47021,0.89821 1.02151,1.02557 2.96067,0.68406 6.49158,0.0619 10.21096,0 0.56566,-0.009 1.01025,-0.45742 1.02151,-1.02561 0.0255,-1.17876 0.53929,-2.58119 1e-5,-5.20838 -0.11443,-0.55658 -0.45946,-1.09012 -1.02155,-1.02557 -3.25491,0.37382 -6.54395,0.66084 -10.2109,-3e-5 -0.0697,-0.0158 -0.13716,-0.0159 -0.20076,-0.009 z m 67.98074,0.20909 c -0.0641,-0.006 -0.13074,-0.006 -0.20024,0.009 -3.66689,0.66088 -6.9566,0.37382 -10.211496,1e-5 -0.56204,-0.0644 -0.90669,0.46961 -1.02096,1.02615 -0.53933,2.6272 -0.0255,4.02908 0,5.20786 0.0126,0.56815 0.46089,1.10563 1.02098,1.02556 3.403736,-0.4868 6.807666,-0.0864 10.211436,1e-5 0.56559,0.016 0.79824,-0.50322 1.02095,-1.02559 0.74016,-1.7361 0.25469,-3.4718 4e-5,-5.20782 -0.0721,-0.49193 -0.37342,-0.98554 -0.82067,-1.03391 z m -74.05587,7.20421 c -0.82258,-0.006 -1.47242,0.80364 -1.47242,1.65893 l -10e-6,1.44054 c -1e-5,0.91237 0.73421,1.5675 1.63898,1.64704 5.24444,0.46063 10.39165,0.84296 15.47429,0.92681 15.0529,0.29394 33.39414,0.22829 50.59729,-0.0666 5.3798,-0.11364 8.60267,-0.74569 14.06889,-0.86011 0.9079,-0.0192 1.63886,-0.73469 1.63887,-1.64705 l -1e-5,-1.44046 c 2e-5,-0.91233 -0.73272,-1.70724 -1.63885,-1.64706 -3.42583,0.22765 -6.86071,0.65849 -10.30997,0.56847 -13.628306,-0.35559 -27.97934,1.09487 -42.56386,-0.0941 -8.92638,-0.72766 -17.92546,0.8145 -27.26669,-0.47441 -0.0558,-0.0108 -0.11198,-0.0131 -0.16676,-0.0129 z"
       inkscape:connector-curvature="0"
       sodipodi:nodetypes="cccccccccccccccccccccccccccccccccccccccccccccccccccccccccccccccccccccccccccccccccccccccccccccccccccccccccccccccccccccccccccccccccccccccccccccccccccccccccccccccccccccccccccccccccccccccccccccccccccccccccccccccccccccccccccccccccccccccccccccccccccccccccccccccccccccccccccccccccccccccccccccccccccccccccccccccccccccccccccccccccccccccccccccccccccccccc" />
  </g>
</svg>
