<?xml version="1.0" encoding="UTF-8" standalone="no"?>
<!-- Created with Inkscape (http://www.inkscape.org/) -->

<svg
   xmlns:dc="http://purl.org/dc/elements/1.1/"
   xmlns:cc="http://creativecommons.org/ns#"
   xmlns:rdf="http://www.w3.org/1999/02/22-rdf-syntax-ns#"
   xmlns:svg="http://www.w3.org/2000/svg"
   xmlns="http://www.w3.org/2000/svg"
   xmlns:sodipodi="http://sodipodi.sourceforge.net/DTD/sodipodi-0.dtd"
   xmlns:inkscape="http://www.inkscape.org/namespaces/inkscape"
   width="150"
   height="150"
   viewBox="0 0 150 150"
   version="1.1"
   id="svg5256"
   inkscape:version="0.92.0 r15299"
   sodipodi:docname="security-guard.svg">
  <defs
     id="defs5250">
    <inkscape:perspective
       sodipodi:type="inkscape:persp3d"
       inkscape:vp_x="0 : 75 : 1"
       inkscape:vp_y="0 : 1000 : 0"
       inkscape:vp_z="150 : 75 : 1"
       inkscape:persp3d-origin="75 : 50 : 1"
       id="perspective5044" />
  </defs>
  <sodipodi:namedview
     id="base"
     pagecolor="#ffffff"
     bordercolor="#666666"
     borderopacity="1.0"
     inkscape:pageopacity="0.0"
     inkscape:pageshadow="2"
     inkscape:zoom="2.8"
     inkscape:cx="28.931699"
     inkscape:cy="37.541601"
     inkscape:document-units="px"
     inkscape:current-layer="layer1"
     showgrid="false"
     inkscape:pagecheckerboard="true"
     units="px"
     inkscape:window-width="1920"
     inkscape:window-height="1137"
     inkscape:window-x="1912"
     inkscape:window-y="-8"
     inkscape:window-maximized="1" />
  <metadata
     id="metadata5253">
    <rdf:RDF>
      <cc:Work
         rdf:about="">
        <dc:format>image/svg+xml</dc:format>
        <dc:type
           rdf:resource="http://purl.org/dc/dcmitype/StillImage" />
        <dc:title />
      </cc:Work>
    </rdf:RDF>
  </metadata>
  <g
     inkscape:label="Layer 1"
     inkscape:groupmode="layer"
     id="layer1">
    <path
       style="opacity:1;vector-effect:none;fill:none;fill-opacity:1;stroke:#e40000;stroke-width:1.33333337;stroke-linecap:round;stroke-linejoin:round;stroke-miterlimit:4;stroke-dasharray:none;stroke-dashoffset:0;stroke-opacity:1"
       d="M 135.62899,110.02267 75,145.04531 14.371011,110.02267 V 39.977346 L 75,4.9546871 135.62899,39.977346 Z"
       id="path5060"
       inkscape:connector-curvature="0" />
    <path
       inkscape:connector-curvature="0"
       style="display:inline;opacity:1;vector-effect:none;fill:#000000;fill-opacity:1;stroke:none;stroke-width:0.65551883;stroke-linecap:round;stroke-linejoin:round;stroke-miterlimit:4;stroke-dasharray:none;stroke-dashoffset:0;stroke-opacity:1"
       d="m 75.000047,45.333499 c 2.69646,0 4.485892,1.345899 6.886268,2.679253 2.274868,1.263914 5.134799,2.347788 9.16793,1.524225 1.913955,1.913121 3.858496,3.826635 5.932201,5.122795 1.696962,1.060597 3.603864,1.692212 5.505864,1.393777 -0.54571,4.293694 -3.15302,8.493742 -5.878731,10.692315 C 89.4256,64.36377 82.219637,63.172186 75.013674,63.172186 c -7.212628,0 -14.425113,1.193789 -21.619653,3.580146 -2.72855,-2.196612 -5.340227,-6.400826 -5.886329,-10.698783 1.901612,0.298925 3.808903,-0.333228 5.505916,-1.393629 2.073653,-1.29616 4.017948,-3.209577 5.932137,-5.122698 4.032755,0.823466 6.893075,-0.260702 9.167943,-1.524225 2.400622,-1.333991 4.189912,-2.679498 6.886359,-2.679498 z m 0.01465,2.508816 c -2.544295,0 -6.827158,3.438327 -6.827158,3.438327 0,0 2.724725,10.315324 6.827158,10.315324 4.102731,0 6.827456,-10.315324 6.827456,-10.315324 0,0 -4.283161,-3.438327 -6.827456,-3.438327 z m 0,17.632283 c 6.778407,0 13.557293,1.108179 20.352361,3.304399 0.279812,1.729601 -0.194058,3.014833 -1.213147,4.203379 -1.137687,1.326739 -3.047273,2.452904 -5.310731,3.301116 -4.527486,1.697357 -10.398438,2.298001 -13.828574,2.298001 -3.430045,0 -9.30075,-0.600644 -13.828042,-2.297903 -2.263757,-0.848164 -4.173096,-1.974229 -5.310731,-3.301214 -1.01953,-1.188546 -1.493594,-2.473484 -1.213393,-4.203233 6.795067,-2.196366 13.573811,-3.304545 20.352166,-3.304545 z m 22.242835,7.337784 c 1.260925,0.305785 3.458128,0.998263 3.852858,2.182154 1.07882,3.235254 -2.172597,8.191387 -4.631486,11.318636 0.677444,-2.825482 1.042622,-5.830906 1.042622,-8.947227 0,-1.548139 -0.09063,-3.068738 -0.264137,-4.553563 z m -44.485087,0 a 39.275762,39.275762 0 0 0 -0.264124,4.553416 c 0,3.116321 0.365075,6.121746 1.042662,8.947227 -2.458929,-3.127248 -5.710463,-8.083382 -4.631485,-11.318636 0.394481,-1.183891 2.591931,-1.876318 3.852701,-2.182106 z m 42.376685,2.461625 c 0.03916,0.690567 0.0612,1.387602 0.0612,2.091694 0,7.623772 -2.327936,14.504101 -6.022455,19.428039 -3.694377,4.92379 -8.693244,7.87276 -14.173085,7.87276 -5.479453,0 -10.478411,-2.94897 -14.172684,-7.87276 C 57.14773,91.869801 54.82004,84.989619 54.82004,77.365798 c 0,-0.704337 0.01958,-1.401372 0.06081,-2.091939 1.052904,0.983221 2.339022,1.780664 3.753863,2.443495 -0.548254,2.337008 0.03436,5.243836 1.553431,6.762523 2.795842,2.794463 9.065826,2.794463 11.861797,0 0.865952,-0.865902 1.237406,-2.245468 1.188357,-3.629737 0.633568,0.02941 1.232699,0.03921 1.776739,0.03921 0.544144,0 1.143418,-0.0147 1.777089,-0.03921 -0.04901,1.384123 0.322444,2.763835 1.1885,3.629737 2.795932,2.794463 9.065721,2.794463 11.86155,0 1.51928,-1.518687 2.101685,-4.425074 1.553431,-6.761935 1.414997,-0.662879 2.701309,-1.460862 3.753967,-2.443935 z M 75.01475,90.408253 c -2.965343,4.742622 -8.895975,5.335377 -11.861304,5.335377 2.965186,2.371555 11.861161,2.371555 11.861161,0 0,2.371555 8.896403,2.371555 11.861836,0 -2.965433,0 -8.896351,-0.592755 -11.861836,-5.335377 z"
       id="path7011" />
  </g>
</svg>
