<?xml version="1.0" encoding="UTF-8" standalone="no"?>
<!-- Created with Inkscape (http://www.inkscape.org/) -->

<svg
   xmlns:dc="http://purl.org/dc/elements/1.1/"
   xmlns:cc="http://creativecommons.org/ns#"
   xmlns:rdf="http://www.w3.org/1999/02/22-rdf-syntax-ns#"
   xmlns:svg="http://www.w3.org/2000/svg"
   xmlns="http://www.w3.org/2000/svg"
   xmlns:sodipodi="http://sodipodi.sourceforge.net/DTD/sodipodi-0.dtd"
   xmlns:inkscape="http://www.inkscape.org/namespaces/inkscape"
   width="150"
   height="150"
   viewBox="0 0 150 150"
   version="1.1"
   id="svg5256"
   inkscape:version="0.92.3 (2405546, 2018-03-11)"
   sodipodi:docname="watchtower.svg">
  <defs
     id="defs5250">
    <inkscape:perspective
       sodipodi:type="inkscape:persp3d"
       inkscape:vp_x="0 : 75 : 1"
       inkscape:vp_y="0 : 1000 : 0"
       inkscape:vp_z="150 : 75 : 1"
       inkscape:persp3d-origin="75 : 50 : 1"
       id="perspective5044" />
    <pattern
       y="0"
       x="0"
       height="6"
       width="6"
       patternUnits="userSpaceOnUse"
       id="EMFhbasepattern" />
  </defs>
  <sodipodi:namedview
     id="base"
     pagecolor="#ffffff"
     bordercolor="#666666"
     borderopacity="1.0"
     inkscape:pageopacity="0.0"
     inkscape:pageshadow="2"
     inkscape:zoom="2.8"
     inkscape:cx="51.253128"
     inkscape:cy="63.61303"
     inkscape:document-units="px"
     inkscape:current-layer="layer1"
     showgrid="false"
     inkscape:pagecheckerboard="true"
     units="px"
     inkscape:window-width="1920"
     inkscape:window-height="1017"
     inkscape:window-x="-8"
     inkscape:window-y="-8"
     inkscape:window-maximized="1"
     inkscape:snap-global="false">
    <sodipodi:guide
       position="135.62899,39.97733"
       orientation="35.02264,-60.62899"
       id="guide4518"
       inkscape:locked="false" />
    <sodipodi:guide
       position="75,4.95469"
       orientation="-35.02264,-60.628989"
       id="guide4520"
       inkscape:locked="false" />
    <sodipodi:guide
       position="14.371011,39.97733"
       orientation="-70.045324,0"
       id="guide4522"
       inkscape:locked="false" />
    <sodipodi:guide
       position="14.371011,110.02265"
       orientation="-35.022659,60.628989"
       id="guide4524"
       inkscape:locked="false" />
    <sodipodi:guide
       position="75,145.04531"
       orientation="35.022659,60.62899"
       id="guide4526"
       inkscape:locked="false" />
    <sodipodi:guide
       position="135.62899,110.02265"
       orientation="70.045324,0"
       id="guide4528"
       inkscape:locked="false" />
  </sodipodi:namedview>
  <metadata
     id="metadata5253">
    <rdf:RDF>
      <cc:Work
         rdf:about="">
        <dc:format>image/svg+xml</dc:format>
        <dc:type
           rdf:resource="http://purl.org/dc/dcmitype/StillImage" />
        <dc:title />
      </cc:Work>
    </rdf:RDF>
  </metadata>
  <g
     inkscape:label="Layer 1"
     inkscape:groupmode="layer"
     id="layer1">
    <path
       id="path823"
       d="M 135.99955,110.03974 75.039999,144.99948 14.000451,110.03974 V 39.960263 L 75.039999,5.000522 135.99955,40.040262 Z"
       style="fill:#000000;fill-opacity:1;fill-rule:nonzero;stroke:none"
       inkscape:connector-curvature="0" />
    <path
       style="display:inline;fill:#ffffff;fill-opacity:1;stroke:none;stroke-width:0.66666669;stroke-miterlimit:4;stroke-dasharray:none;stroke-opacity:1"
       inkscape:connector-curvature="0"
       d="M 75.000112,28.482577 55.496616,38.23425 h 4.672592 v 14.424529 h -6.501166 v 10.158085 h 6.286867 l -5.401058,48.605206 -0.132663,0.096 0.106206,0.14589 -0.848239,7.63219 -0.202205,1.81682 3.634431,0.40445 0.202205,-1.81758 0.541606,-4.87487 H 92.14473 l 0.54157,4.87453 0.2022,1.81735 3.63455,-0.40445 -0.202209,-1.81712 -0.847971,-7.63223 0.1062,-0.14589 -0.13266,-0.096 -5.40102,-48.604902 h 6.28705 V 52.658401 H 89.83128 V 38.234136 h 4.67259 z m -9.751749,13.002407 h 6.501128 v 9.751672 h -6.501128 z m 13.002331,0 h 6.501165 v 9.751672 H 78.250694 Z M 57.325037,56.315547 h 2.844209 v 2.844284 h -2.844209 z m 6.501205,0 h 2.844206 v 2.844284 h -2.844206 z m 6.501127,0 h 2.844283 v 2.844284 h -2.844283 z m 6.501203,0 h 2.844283 v 2.844284 h -2.844283 z m 6.501128,0 h 2.84428 v 2.844284 H 83.3297 Z m 6.501241,0 h 2.84424 v 2.844284 h -2.84424 z m -23.0239,6.501317 h 16.386141 l -8.193033,7.28296 z m -3.382678,1.885833 8.392214,7.459464 H 62.59608 l 0.828926,-7.459464 z m 23.151268,0 0.82893,7.459464 H 78.183986 Z M 62.189743,75.819194 h 6.375798 l -7.074482,6.288454 0.698873,-6.288454 z m 11.880265,0 h 1.860133 l 10.51362,9.345335 h -22.88734 z m 7.364598,0 h 6.375914 l 0.69883,6.288454 -7.075121,-6.288454 z M 64.370228,88.821557 h 21.25973 l -10.629808,7.73095 z m -3.819402,1.74437 10.451679,7.60112 H 59.706669 l 0.844611,-7.60112 z m 28.898304,0 0.84461,7.60112 H 78.997906 L 89.44936,90.565927 Z M 59.300522,101.82389 h 8.451628 l -9.195175,6.68689 z m 14.669329,0 h 2.060938 l 12.849982,9.34548 H 61.119645 l 12.849978,-9.34548 z m 8.278904,0 h 8.451396 l 0.74325,6.68689 -9.194873,-6.68689 z"
       id="path1063" />
  </g>
</svg>
