<?xml version="1.0" encoding="UTF-8" standalone="no"?>
<!-- Created with Inkscape (http://www.inkscape.org/) -->

<svg
   xmlns:dc="http://purl.org/dc/elements/1.1/"
   xmlns:cc="http://creativecommons.org/ns#"
   xmlns:rdf="http://www.w3.org/1999/02/22-rdf-syntax-ns#"
   xmlns:svg="http://www.w3.org/2000/svg"
   xmlns="http://www.w3.org/2000/svg"
   xmlns:sodipodi="http://sodipodi.sourceforge.net/DTD/sodipodi-0.dtd"
   xmlns:inkscape="http://www.inkscape.org/namespaces/inkscape"
   width="150"
   height="400"
   viewBox="0 0 150 400"
   id="svg2"
   version="1.1"
   inkscape:version="0.92.0 r15299"
   sodipodi:docname="angry locksmith.svg">
  <defs
     id="defs4" />
  <sodipodi:namedview
     id="base"
     pagecolor="#ffffff"
     bordercolor="#666666"
     borderopacity="1.0"
     inkscape:pageopacity="0.0"
     inkscape:pageshadow="2"
     inkscape:zoom="1.4"
     inkscape:cx="63.561509"
     inkscape:cy="142.16622"
     inkscape:document-units="px"
     inkscape:current-layer="layer1"
     showgrid="false"
     units="px"
     inkscape:window-width="1920"
     inkscape:window-height="1017"
     inkscape:window-x="-8"
     inkscape:window-y="-8"
     inkscape:window-maximized="1"
     showguides="true"
     inkscape:guide-bbox="true">
    <sodipodi:guide
       position="240,765.71429"
       orientation="0,1"
       id="guide4708"
       inkscape:locked="false" />
  </sodipodi:namedview>
  <metadata
     id="metadata7">
    <rdf:RDF>
      <cc:Work
         rdf:about="">
        <dc:format>image/svg+xml</dc:format>
        <dc:type
           rdf:resource="http://purl.org/dc/dcmitype/StillImage" />
        <dc:title></dc:title>
      </cc:Work>
    </rdf:RDF>
  </metadata>
  <g
     inkscape:label="Layer 1"
     inkscape:groupmode="layer"
     id="layer1"
     transform="translate(0,-727.36216)">
    <path
       sodipodi:nodetypes="cccsssscsssssccsssssssssscssscccsssssssssssscssssssssssssssssscssssssssssssssssssscscsssscsssssssccczzszzsssssscccsscccsscsccscscssssscs"
       inkscape:connector-curvature="0"
       id="path4163"
       d="m 72.178759,727.3664 c -0.660177,0.008 -1.351825,0.0314 -2.079193,0.0647 -7.34513,0.12363 -16.872724,2.3391 -19.503824,10.77841 -0.64168,2.54073 -0.02825,12.73531 0.891686,14.82648 0.436531,0.9922 0.04006,1.42492 -1.405458,1.53312 -3.034171,0.22715 -6.601043,3.26961 -6.918351,5.9005 -0.302,2.50391 2.420942,4.56275 8.036083,3.99019 2.910918,-0.29683 2.986914,1.06875 3.019737,2.60099 0.0072,0.35579 0.166128,1.12083 -0.581185,0.83585 -2.592495,-0.98865 -1.669173,4.95832 1.80938,9.26173 0.849944,1.05147 1.411599,1.58931 2.114672,1.60898 0.626766,0.0176 0.90294,-0.74855 1.029782,-0.56869 0.704791,0.99937 0.707568,3.44981 0.767647,3.61256 1.302013,3.52811 4.269697,6.04684 4.027721,9.50488 -0.294586,2.22506 -2.623672,6.09101 -2.623672,6.09101 -5.72949,6.0649 -10.378009,8.96642 -19.498176,12.1737 -10.52874,3.7026 -15.848327,8.83153 -16.733952,16.13316 -0.236944,1.9536 -1.071997,5.07631 -1.855546,6.93992 -0.783549,1.86362 -1.423856,4.21114 -1.423856,5.21691 0,1.00575 -1.061642,4.05899 -2.359443,6.78519 -1.586259,3.33222 -2.212774,5.86882 -1.90933,7.73889 0.576674,3.55366 -1.326796,13.62192 -3.283653,17.36531 -0.82831,1.58446 -1.50596,3.92862 -1.50596,5.20845 0,1.27971 -0.644345,3.30231 -1.430946,4.49533 -1.9652727,2.98068 -0.9197404,11.60233 1.701285,14.02897 2.028606,1.87813 4.223103,7.31654 4.244696,10.51955 0.0064,1.12465 0.574612,2.02546 1.275252,2.02546 1.153051,0 1.584757,0.56185 2.421688,3.15067 0.160075,0.49509 1.078565,1.71035 2.039567,2.7006 0.960995,0.99024 3.111316,3.88985 4.77971,6.44341 l 3.033145,4.643 0.13304,12.59991 c 0.07281,6.93021 -0.146661,13.04925 -0.4883,13.59859 -0.978117,1.57275 1.25308,11.0605 3.259598,13.85868 1.754827,2.44739 1.764324,2.67685 0.280253,6.77816 -1.454303,4.01909 -1.447729,4.62839 0.10898,11.41993 0.904427,3.94576 1.608326,9.20026 1.563984,11.67583 -0.225227,12.56487 -2.148605,53.44177 -2.922737,62.11337 -0.486203,5.4461 -0.905958,14.4325 -0.931317,19.9701 -0.02544,5.5378 -0.451061,11.1295 -0.94689,12.4257 -0.495815,1.2959 -1.303132,5.8785 -1.794691,10.1848 -0.794964,6.9642 -1.29117,8.3896 -4.48956,12.8994 -5.817286,8.2025 -6.050884,13.3483 -0.709101,15.6565 4.09428,1.769 6.490788,1.6244 10.874297,-0.6542 2.097548,-1.0903 4.120145,-1.9004 4.493805,-1.8004 0.373661,0.1007 0.679377,-0.345 0.679377,-0.9901 0,-2.1102 5.537676,-8.7292 7.303331,-8.7292 2.550753,0 4.805943,-3.9697 4.138545,-7.2859 -0.30591,-1.52 -0.14496,-3.5275 0.358087,-4.4615 0.503061,-0.9341 1.114535,-4.4461 1.35876,-7.8037 0.244243,-3.3574 0.848773,-8.7374 1.343188,-11.9556 1.004696,-6.5397 1.478434,-11.5849 2.324042,-24.7554 0.31788,-4.951 0.828053,-9.4069 1.133721,-9.9021 0.606496,-0.9824 1.509645,-6.821 2.784027,-18.0039 0.721645,-6.3324 1.546235,-9.5419 5.555343,-21.6045 0.493644,-1.4855 1.529721,-8.3719 2.302796,-15.30337 0.773075,-6.93157 1.772418,-13.818 2.220721,-15.30343 0.448324,-1.48529 1.385833,-5.99175 2.083444,-10.01457 0.697601,-4.02283 1.556533,-7.7773 1.907908,-8.34226 1.161446,-1.86759 1.922297,-0.29947 2.127319,4.38283 0.111237,2.5407 0.899823,5.9147 1.752217,7.49688 3.464033,6.42981 6.094317,16.0496 7.061301,25.82152 0.31791,3.2129 1.159629,8.058 1.869701,10.7672 0.710103,2.7092 1.05331,5.6704 0.762881,6.5799 -0.290429,0.9094 -0.154291,2.1407 0.30147,2.7358 0.838282,1.0946 2.126518,6.5292 3.885201,16.3848 0.530097,2.9707 1.574623,7.9386 2.32121,11.04 0.746619,3.1015 1.119009,6.022 0.827995,6.4898 -0.291015,0.468 -0.146667,1.5764 0.319873,2.4629 1.564607,2.9734 2.740164,8.7585 3.248274,15.9855 0.478542,6.8066 0.927868,9.9352 3.235542,22.5345 0.54412,2.9706 1.47761,8.6134 2.07495,12.5394 1.01026,6.6397 1.27252,7.2128 3.76205,8.2241 1.47196,0.5979 3.13541,0.9118 3.69696,0.6975 1.43085,-0.5456 3.24667,1.8819 3.94464,5.2732 0.80997,3.9358 7.54053,7.3811 14.52597,7.4351 4.51442,0.034 4.98007,-0.1518 5.51287,-2.2125 0.83345,-3.2234 -1.18657,-9.2774 -4.47117,-13.3987 -5.94666,-7.4617 -7.95092,-16.5666 -9.13906,-41.5131 -0.41264,-8.6643 -0.98285,-17.5763 -1.26675,-19.8044 -1.28391,-10.075 -2.68377,-31.5978 -2.40047,-36.9078 0.1717,-3.2183 0.29218,-10.1048 0.26893,-15.3034 -0.0232,-5.19863 -0.0596,-13.50291 -0.0807,-18.45392 -0.0213,-4.95114 0.19806,-10.21714 0.48689,-11.70257 1.034,-5.31747 1.07938,-19.65482 0.068,-21.53287 -0.55416,-1.02899 -1.10801,-5.70374 -1.23138,-10.38879 -0.21572,-8.19302 -0.12441,-8.6439 2.39624,-11.80662 4.09866,-5.14271 10.31707,-11.03483 13.42057,-12.71669 2.68213,-1.45348 2.8293,-1.81558 2.8293,-6.92438 0,-2.99393 0.4494,-5.66555 1.01059,-6.01025 0.60374,-0.37079 0.83677,-2.14281 0.58031,-4.40391 -0.27064,-2.38621 0.0252,-4.40137 0.80108,-5.456 1.59203,-2.16362 1.55347,-5.60579 -0.15992,-13.93052 -0.76428,-3.71332 -1.99309,-10.80236 -2.73026,-15.75337 -0.73719,-4.95107 -1.89959,-12.24264 -2.58305,-16.20348 -0.68347,-3.96086 -1.25913,-8.05811 -1.27951,-9.10463 -0.0526,-2.70483 -7.07668,-16.53148 -9.88212,-19.45261 -1.29489,-1.34832 -4.42989,-3.11925 -6.96504,-3.93555 -5.09068,-0.18213 -11.79674,-6.96051 -15.04966,-8.02437 -1.009712,-0.31848 -3.90329,-3.04781 -6.430024,-6.06506 0,0 -3.314891,-3.30704 -3.953781,-5.39462 -0.638891,-2.08758 -0.215279,-4.15286 -0.02058,-6.01393 0.194682,-1.86106 2.369957,-8.45146 2.781348,-9.15135 0,0 -0.252076,-0.64251 1.528948,-0.64539 1.781035,-0.003 0.961657,-13.17885 -1.0897,-12.29549 -2.051347,0.88338 -1.518034,0.0263 -1.480777,-0.46224 0.05609,-0.73629 1.143815,-2.09949 1.624508,-2.36261 0.799679,-0.43772 2.433388,-1.29535 4.076279,-2.87782 2.170346,-2.09047 2.987849,-2.2352 2.987849,-4.35749 0,-3.46524 -0.934308,-4.17614 -6.32105,-4.80479 -3.546381,-0.41388 -4.162564,-0.8124 -4.88869,-3.17319 -4.131772,-13.43337 -6.768981,-16.31892 -16.671684,-16.1866 z m 37.913561,145.39954 c 0.84125,0.28072 0.96617,0.8046 1.44795,1.30247 0.36435,0.37662 0.15093,0.92808 0.40053,1.54722 0.33585,0.83306 0.90995,2.26302 0.82375,3.15634 -0.0863,0.8933 0.44613,1.49098 -0.004,2.26876 -0.27765,0.47935 -0.70165,0.87896 -0.90868,1.39246 -0.62118,1.63193 -0.29061,2.98338 -0.0396,4.33787 0.42531,0.88117 0.93832,1.74106 1.12521,2.7005 0.20901,1.07321 -0.0228,2.22369 -0.62985,3.13528 -0.60701,0.91148 -1.41395,1.57345 -2.48963,1.80176 -0.0763,-1.50078 -0.0813,-3.00538 -0.0144,-4.50657 0.0623,-1.39223 0.18604,-2.78261 0.1656,-4.1761 -0.0191,-1.30766 -0.16489,-2.61228 -0.15568,-3.92002 0.0104,-1.41885 0.20244,-2.8295 0.30147,-4.245 0.11169,-1.5958 0.10434,-3.20029 -0.0227,-4.79497 z m -72.652469,5.79781 c -0.09129,3.68036 0,13.54937 0,13.54937 0,0 -1.556557,-0.27268 -2.01407,-2.95514 -0.457515,-2.68258 -1.326058,-2.91113 -0.777039,-4.63887 0.225249,-0.70887 0.659364,-2.5392 1.194641,-4.26008 0.456639,-1.46791 1.011815,-2.88096 1.302095,-3.18003 0.198799,-0.20486 0.316249,0.60252 0.294373,1.48475 z"
       style="fill:#4d4d4d;fill-opacity:1;stroke-width:0.99999994" />
  </g>
</svg>
