<?xml version="1.0" encoding="UTF-8" standalone="no"?>
<!-- Created with Inkscape (http://www.inkscape.org/) -->

<svg
   xmlns:dc="http://purl.org/dc/elements/1.1/"
   xmlns:cc="http://creativecommons.org/ns#"
   xmlns:rdf="http://www.w3.org/1999/02/22-rdf-syntax-ns#"
   xmlns:svg="http://www.w3.org/2000/svg"
   xmlns="http://www.w3.org/2000/svg"
   xmlns:sodipodi="http://sodipodi.sourceforge.net/DTD/sodipodi-0.dtd"
   xmlns:inkscape="http://www.inkscape.org/namespaces/inkscape"
   width="755"
   height="70"
   viewBox="0 0 199.76042 18.520834"
   version="1.1"
   id="svg825"
   inkscape:version="0.92.0 r15299"
   sodipodi:docname="logopage.svg">
  <defs
     id="defs819" />
  <sodipodi:namedview
     id="base"
     pagecolor="#ffffff"
     bordercolor="#666666"
     borderopacity="1.0"
     inkscape:pageopacity="0.0"
     inkscape:pageshadow="2"
     inkscape:zoom="1.4"
     inkscape:cx="341.08215"
     inkscape:cy="94.535301"
     inkscape:document-units="mm"
     inkscape:current-layer="layer1"
     showgrid="false"
     units="px"
     inkscape:window-width="1920"
     inkscape:window-height="1017"
     inkscape:window-x="-8"
     inkscape:window-y="-8"
     inkscape:window-maximized="1" />
  <metadata
     id="metadata822">
    <rdf:RDF>
      <cc:Work
         rdf:about="">
        <dc:format>image/svg+xml</dc:format>
        <dc:type
           rdf:resource="http://purl.org/dc/dcmitype/StillImage" />
        <dc:title></dc:title>
      </cc:Work>
    </rdf:RDF>
  </metadata>
  <g
     inkscape:label="Layer 1"
     inkscape:groupmode="layer"
     id="layer1"
     transform="translate(0,-278.47915)">
    <g
       aria-label="Your Last Heist"
       style="font-style:normal;font-variant:normal;font-weight:normal;font-stretch:normal;font-size:16.98246574px;line-height:11.37218761px;font-family:Acknowledgement;-inkscape-font-specification:Acknowledgement;text-align:center;letter-spacing:0px;word-spacing:0px;writing-mode:lr-tb;text-anchor:middle;fill:#333333;fill-opacity:1;stroke:none;stroke-width:0.27086151px;stroke-linecap:butt;stroke-linejoin:miter;stroke-opacity:1"
       id="text1375"
       transform="matrix(0.96169346,0,0,0.9921875,-27.343827,2.2924102)">
      <path
         d="m 29.120803,284.51287 h 1.392562 l 4.856986,4.73811 v 1.69825 h -1.766177 v 2.10582 h 7.115653 v -2.10582 h -1.834106 v -1.88506 l 4.245617,-4.5513 h 2.07186 v -1.95298 h -6.300494 v 1.95298 h 1.001965 l -2.445475,2.59832 -2.6153,-2.59832 h 0.577404 v -1.95298 h -6.300495 z"
         style="font-style:normal;font-variant:normal;font-weight:normal;font-stretch:normal;font-family:Acknowledgement;-inkscape-font-specification:Acknowledgement;fill:#333333;fill-opacity:1;stroke-width:0.27086151px"
         id="path1383"
         inkscape:connector-curvature="0" />
      <path
         d="m 49.852944,287.73954 c 0,-2.30961 1.766176,-3.32856 4.347511,-3.32856 2.54737,0 4.347511,1.13782 4.347511,3.32856 0,2.39453 -1.732211,3.46442 -4.364493,3.46442 -2.343581,0 -4.330529,-1.05291 -4.330529,-3.46442 z m -4.143722,0 c 0,4.00786 3.294599,5.50232 8.491233,5.50232 5.196635,0 8.474251,-1.49446 8.474251,-5.50232 0,-3.68519 -3.753125,-5.5193 -8.491233,-5.5193 -4.738108,0 -8.474251,1.83411 -8.474251,5.5193 z"
         style="font-style:normal;font-variant:normal;font-weight:normal;font-stretch:normal;font-family:Acknowledgement;-inkscape-font-specification:Acknowledgement;fill:#333333;fill-opacity:1;stroke-width:0.27086151px"
         id="path1385"
         inkscape:connector-curvature="0" />
      <path
         d="m 63.694715,284.49589 h 1.766177 v 5.2306 c 0,1.57937 1.868071,3.6852 6.283512,3.6852 4.449406,0 5.791021,-2.08885 5.791021,-3.6852 v -5.2306 h 1.834106 v -1.95298 h -6.300495 v 1.95298 h 1.766177 v 4.80604 c 0,1.86807 -1.477475,1.86807 -2.988914,1.86807 -2.020914,0 -2.870037,-0.5774 -2.870037,-1.85109 v -4.82302 h 1.834106 v -1.95298 h -7.115653 z"
         style="font-style:normal;font-variant:normal;font-weight:normal;font-stretch:normal;font-family:Acknowledgement;-inkscape-font-specification:Acknowledgement;fill:#333333;fill-opacity:1;stroke-width:0.27086151px"
         id="path1387"
         inkscape:connector-curvature="0" />
      <path
         d="m 88.929069,282.52592 c -2.717195,0 -5.451372,0.017 -8.185549,0.017 v 1.95298 h 1.766177 v 6.45334 H 80.81145 v 2.10582 h 7.115653 v -2.10582 h -1.902036 v -2.37755 h 0.832141 c 1.290667,0 2.071861,0.33965 2.071861,2.15678 0,2.37754 1.596352,2.66624 3.600283,2.66624 1.001965,0 2.853054,-0.35663 2.853054,-1.66428 v -1.12084 h -1.137825 c 0,0.051 0,0.13586 0,0.18681 0,0.62835 -0.13586,0.968 -0.679299,0.968 -0.866106,0 -0.900071,-0.83214 -0.900071,-1.56239 0,-1.39256 -1.460492,-1.59635 -1.936001,-1.81712 1.749194,-0.30569 3.260634,-1.05292 3.260634,-3.02288 0,-2.25867 -1.919019,-2.83608 -5.060775,-2.83608 z m -2.904002,4.2626 v -2.29263 c 0,0 0.815159,0 1.647299,0 0.40758,0 0.815159,0 1.137826,0 0.883088,0.034 1.579369,0.0679 1.579369,1.13783 0,0.91705 -0.305684,1.1548 -2.785124,1.1548 z"
         style="font-style:normal;font-variant:normal;font-weight:normal;font-stretch:normal;font-family:Acknowledgement;-inkscape-font-specification:Acknowledgement;fill:#333333;fill-opacity:1;stroke-width:0.27086151px"
         id="path1389"
         inkscape:connector-curvature="0" />
      <path
         d="m 99.815626,293.05505 h 13.263304 v -4.09277 h -2.34358 v 1.98695 h -5.63818 v -6.45334 h 1.83411 v -1.95298 h -7.115654 v 1.95298 h 1.766174 v 6.45334 h -1.766174 z"
         style="font-style:normal;font-variant:normal;font-weight:normal;font-stretch:normal;font-family:Acknowledgement;-inkscape-font-specification:Acknowledgement;fill:#333333;fill-opacity:1;stroke-width:0.27086151px"
         id="path1391"
         inkscape:connector-curvature="0" />
      <path
         d="m 121.64366,288.28298 1.27369,-2.12281 1.08688,2.12281 z m -6.86091,4.77207 h 6.30049 v -2.10582 h -1.01895 l 0.42457,-0.73025 h 4.51733 l 0.37362,0.73025 h -0.81516 v 2.10582 h 6.30049 v -2.10582 h -1.34161 l -4.80604,-8.50822 h -2.53039 l -5.26456,8.50822 h -2.13979 z"
         style="font-style:normal;font-variant:normal;font-weight:normal;font-stretch:normal;font-family:Acknowledgement;-inkscape-font-specification:Acknowledgement;fill:#333333;fill-opacity:1;stroke-width:0.27086151px"
         id="path1393"
         inkscape:connector-curvature="0" />
      <path
         d="m 138.17344,284.25814 c 1.56239,0 3.85502,0.47551 3.85502,1.57937 v 0.61136 h 2.34358 v -4.09277 h -2.34358 v 0.83214 c -0.83214,-0.5774 -2.70021,-1.13782 -4.2626,-1.13782 -2.30961,0 -5.57025,0.73024 -5.57025,3.60028 0,2.63228 3.49839,3.27761 4.75509,3.44744 2.59832,0.33965 4.02485,0.11888 4.02485,1.13782 0,0.73025 -1.44351,0.98499 -2.44548,0.98499 -1.80014,0 -4.29656,-0.33965 -4.29656,-1.7492 v -0.61137 h -2.34358 v 4.2626 h 2.34358 v -0.45852 c 0.88309,0.45852 2.34358,0.76421 4.00786,0.76421 4.27958,0 6.24955,-1.34162 6.24955,-3.43046 0,-4.04183 -4.72113,-3.5833 -7.52323,-4.09277 -0.69629,-0.11888 -1.29067,-0.22078 -1.29067,-0.61137 0,-0.86611 0.64533,-1.03593 2.49642,-1.03593 z"
         style="font-style:normal;font-variant:normal;font-weight:normal;font-stretch:normal;font-family:Acknowledgement;-inkscape-font-specification:Acknowledgement;fill:#333333;fill-opacity:1;stroke-width:0.27086151px"
         id="path1395"
         inkscape:connector-curvature="0" />
      <path
         d="m 145.85402,286.6187 h 2.34358 v -2.12281 h 3.3965 v 6.45334 h -2.19074 v 2.10582 h 7.93081 v -2.10582 h -2.24168 v -6.45334 h 3.39649 v 2.12281 h 2.34358 v -4.07579 h -14.97854 z"
         style="font-style:normal;font-variant:normal;font-weight:normal;font-stretch:normal;font-family:Acknowledgement;-inkscape-font-specification:Acknowledgement;fill:#333333;fill-opacity:1;stroke-width:0.27086151px"
         id="path1397"
         inkscape:connector-curvature="0" />
      <path
         d="m 165.58951,293.05505 h 7.11565 v -2.10582 h -1.83411 v -2.30962 H 176.73 v 2.30962 h -1.76617 v 2.10582 h 7.11565 v -2.10582 h -1.83411 v -6.45334 h 1.83411 v -1.95298 h -7.11565 v 1.95298 H 176.73 v 2.19074 h -5.85895 v -2.19074 h 1.83411 v -1.95298 h -7.11565 v 1.95298 h 1.76617 v 6.45334 h -1.76617 z"
         style="font-style:normal;font-variant:normal;font-weight:normal;font-stretch:normal;font-family:Acknowledgement;-inkscape-font-specification:Acknowledgement;fill:#333333;fill-opacity:1;stroke-width:0.27086151px"
         id="path1399"
         inkscape:connector-curvature="0" />
      <path
         d="m 183.43437,293.05505 h 13.26331 v -4.09277 h -2.34358 v 1.98695 h -5.63818 v -2.30962 h 3.872 v -1.95298 h -3.872 v -2.19074 h 5.63818 v 2.12281 h 2.34358 v -4.07579 h -13.26331 v 1.95298 h 1.76618 v 6.45334 h -1.76618 z"
         style="font-style:normal;font-variant:normal;font-weight:normal;font-stretch:normal;font-family:Acknowledgement;-inkscape-font-specification:Acknowledgement;fill:#333333;fill-opacity:1;stroke-width:0.27086151px"
         id="path1401"
         inkscape:connector-curvature="0" />
      <path
         d="m 198.06184,293.05505 h 7.11565 v -2.10582 h -1.8341 v -6.45334 h 1.8341 v -1.95298 h -7.11565 v 1.95298 h 1.76618 v 6.45334 h -1.76618 z"
         style="font-style:normal;font-variant:normal;font-weight:normal;font-stretch:normal;font-family:Acknowledgement;-inkscape-font-specification:Acknowledgement;fill:#333333;fill-opacity:1;stroke-width:0.27086151px"
         id="path1403"
         inkscape:connector-curvature="0" />
      <path
         d="m 212.80342,284.25814 c 1.56239,0 3.85502,0.47551 3.85502,1.57937 v 0.61136 h 2.34358 v -4.09277 h -2.34358 v 0.83214 c -0.83214,-0.5774 -2.70021,-1.13782 -4.2626,-1.13782 -2.30961,0 -5.57025,0.73024 -5.57025,3.60028 0,2.63228 3.49839,3.27761 4.7551,3.44744 2.59831,0.33965 4.02484,0.11888 4.02484,1.13782 0,0.73025 -1.44351,0.98499 -2.44548,0.98499 -1.80014,0 -4.29656,-0.33965 -4.29656,-1.7492 v -0.61137 h -2.34358 v 4.2626 h 2.34358 v -0.45852 c 0.88309,0.45852 2.34358,0.76421 4.00786,0.76421 4.27958,0 6.24955,-1.34162 6.24955,-3.43046 0,-4.04183 -4.72113,-3.5833 -7.52323,-4.09277 -0.69628,-0.11888 -1.29067,-0.22078 -1.29067,-0.61137 0,-0.86611 0.64533,-1.03593 2.49642,-1.03593 z"
         style="font-style:normal;font-variant:normal;font-weight:normal;font-stretch:normal;font-family:Acknowledgement;-inkscape-font-specification:Acknowledgement;fill:#333333;fill-opacity:1;stroke-width:0.27086151px"
         id="path1405"
         inkscape:connector-curvature="0" />
      <path
         d="m 220.48401,286.6187 h 2.34358 v -2.12281 h 3.39649 v 6.45334 h -2.19074 v 2.10582 h 7.93081 v -2.10582 h -2.24168 v -6.45334 h 3.39649 v 2.12281 h 2.34358 v -4.07579 h -14.97853 z"
         style="font-style:normal;font-variant:normal;font-weight:normal;font-stretch:normal;font-family:Acknowledgement;-inkscape-font-specification:Acknowledgement;fill:#333333;fill-opacity:1;stroke-width:0.27086151px"
         id="path1407"
         inkscape:connector-curvature="0" />
    </g>
  </g>
</svg>
