<?xml version="1.0" encoding="UTF-8" standalone="no"?>
<!-- Created with Inkscape (http://www.inkscape.org/) -->

<svg
   xmlns:dc="http://purl.org/dc/elements/1.1/"
   xmlns:cc="http://creativecommons.org/ns#"
   xmlns:rdf="http://www.w3.org/1999/02/22-rdf-syntax-ns#"
   xmlns:svg="http://www.w3.org/2000/svg"
   xmlns="http://www.w3.org/2000/svg"
   xmlns:sodipodi="http://sodipodi.sourceforge.net/DTD/sodipodi-0.dtd"
   xmlns:inkscape="http://www.inkscape.org/namespaces/inkscape"
   width="400"
   height="250"
   viewBox="0 0 400 250.00001"
   id="svg5786"
   version="1.1"
   inkscape:version="0.91 r13725"
   sodipodi:docname="noise.svg">
  <defs
     id="defs5788" />
  <sodipodi:namedview
     id="base"
     pagecolor="#ffffff"
     bordercolor="#666666"
     borderopacity="1.0"
     inkscape:pageopacity="0.0"
     inkscape:pageshadow="2"
     inkscape:zoom="1.4"
     inkscape:cx="192.46261"
     inkscape:cy="162.59539"
     inkscape:document-units="px"
     inkscape:current-layer="layer1"
     showgrid="false"
     inkscape:window-width="1920"
     inkscape:window-height="1017"
     inkscape:window-x="-8"
     inkscape:window-y="-8"
     inkscape:window-maximized="1"
     units="px" />
  <metadata
     id="metadata5791">
    <rdf:RDF>
      <cc:Work
         rdf:about="">
        <dc:format>image/svg+xml</dc:format>
        <dc:type
           rdf:resource="http://purl.org/dc/dcmitype/StillImage" />
        <dc:title></dc:title>
      </cc:Work>
    </rdf:RDF>
  </metadata>
  <g
     inkscape:label="Layer 1"
     inkscape:groupmode="layer"
     id="layer1"
     transform="translate(0,-802.36216)">
    <g
       style="font-style:normal;font-variant:normal;font-weight:normal;font-stretch:normal;font-size:40px;line-height:125%;font-family:'Archivo Narrow';-inkscape-font-specification:'Archivo Narrow, Normal';text-align:start;letter-spacing:0px;word-spacing:0px;writing-mode:lr-tb;text-anchor:start;fill:#000000;fill-opacity:1;stroke:none;stroke-width:1px;stroke-linecap:butt;stroke-linejoin:miter;stroke-opacity:1"
       id="text6386"
       transform="matrix(4.9997872,0,0,4.9997872,1286.9892,-3146.2006)">
      <path
         d="m -226.12164,796.31866 q 1.69922,1.71875 2.53906,3.82813 0.83984,2.10937 0.83984,4.33594 0,2.22656 -0.83984,4.33593 -0.83984,2.10938 -2.53906,3.78907 -0.35157,0.33203 -0.82032,0.33203 -0.21484,0 -0.42968,-0.0781 -0.19532,-0.0781 -0.33203,-0.2539 -0.3711,-0.3125 -0.3711,-0.80078 0,-0.48829 0.3711,-0.80079 1.34765,-1.36718 2.01171,-3.0664 0.6836,-1.69922 0.6836,-3.47656 0,-1.77735 -0.6836,-3.45704 -0.66406,-1.69921 -2.03125,-3.0664 -0.35156,-0.35156 -0.35156,-0.82031 0,-0.48829 0.3711,-0.80079 0.33203,-0.33203 0.78125,-0.33203 0.46875,0 0.80078,0.33203 z m -3.88672,2.92969 q 1.05469,1.05469 1.60156,2.40235 0.54688,1.34765 0.54688,2.83203 0,1.44531 -0.54688,2.79297 -0.54687,1.32812 -1.60156,2.38281 -0.19531,0.15625 -0.41016,0.2539 -0.19531,0.0977 -0.41015,0.0977 -0.21485,0 -0.42969,-0.0977 -0.21485,-0.0977 -0.39063,-0.2539 -0.33203,-0.33203 -0.33203,-0.80078 0,-0.44922 0.33203,-0.82032 0.72266,-0.72265 1.13282,-1.62109 0.41015,-0.91797 0.41015,-1.93359 0,-1.01563 -0.41015,-1.95313 -0.41016,-0.9375 -1.13282,-1.66015 -0.33203,-0.33204 -0.33203,-0.80079 0,-0.44921 0.33203,-0.82031 0.3711,-0.33203 0.82032,-0.33203 0.44921,0 0.82031,0.33203 z m 7.73437,-5.78125 q 2.20703,2.20703 3.35938,5.03906 1.15234,2.83204 1.15234,5.97657 0,3.10547 -1.15234,5.9375 -1.15235,2.8125 -3.35938,5.01953 -0.35156,0.33203 -0.82031,0.33203 -0.48828,0 -0.82031,-0.33203 -0.33203,-0.33203 -0.33203,-0.80078 0,-0.44922 0.35156,-0.80078 1.875,-1.875 2.87109,-4.29688 0.9961,-2.42187 0.9961,-5.05859 0,-2.67578 -0.9961,-5.07813 -0.99609,-2.40234 -2.89062,-4.29687 -0.33203,-0.3711 -0.33203,-0.83985 0,-0.42968 0.33203,-0.80078 0.3125,-0.3125 0.80078,-0.3125 0.46875,0 0.83984,0.3125 z m -13.22265,-1.52344 q 0.46875,-0.35156 0.8789,-0.35156 0.3711,0 0.58594,0.3125 0.21484,0.29297 0.21484,0.85938 l 0,23.39843 q 0,0.56641 -0.23437,0.87891 -0.23438,0.29297 -0.60547,0.29297 -0.42969,0 -0.87891,-0.37109 -2.01171,-1.5625 -3.59375,-2.79297 -0.68359,-0.52735 -1.32812,-1.01563 -0.64453,-0.50781 -1.17188,-0.89844 -0.50781,-0.39062 -0.83984,-0.64453 -0.3125,-0.2539 -0.33203,-0.2539 l -7.63672,0 q -0.17578,0 -0.3125,-0.15625 -0.11719,-0.17578 -0.11719,-0.39063 l 0,-12.77344 q 0,-0.21484 0.11719,-0.33203 0.13672,-0.13672 0.3125,-0.13672 l 7.73438,0 q 0,-0.0195 0.3125,-0.27343 0.33203,-0.25391 0.83984,-0.64453 0.50781,-0.41016 1.15234,-0.89844 0.64453,-0.50781 1.32813,-1.03516 1.58203,-1.21094 3.57422,-2.77344 z"
         id="path6391"
         inkscape:connector-curvature="0" />
    </g>
    <g
       style="font-style:normal;font-variant:normal;font-weight:normal;font-stretch:normal;font-size:40px;line-height:125%;font-family:'Archivo Narrow';-inkscape-font-specification:'Archivo Narrow, Normal';text-align:start;letter-spacing:0px;word-spacing:0px;writing-mode:lr-tb;text-anchor:start;fill:#000000;fill-opacity:1;stroke:none;stroke-width:1px;stroke-linecap:butt;stroke-linejoin:miter;stroke-opacity:1"
       id="text6393"
       transform="matrix(4.5519853,0,0,4.5519853,-1888.4452,-425.2302)">
      <path
         d="m 490.20926,322.14456 -31.75781,0 q -0.33203,0 -0.60547,-0.19531 -0.25391,-0.19531 -0.41016,-0.46875 -0.15625,-0.27344 -0.15625,-0.58594 0,-0.29297 0.15625,-0.60547 l 15.85938,-28.16406 q 0.15625,-0.27344 0.42968,-0.41016 0.27344,-0.13671 0.58594,-0.13671 0.3125,0 0.58594,0.13671 0.27344,0.13672 0.42969,0.41016 l 15.89843,28.16406 q 0.15625,0.3125 0.15625,0.60547 0,0.3125 -0.15625,0.58594 -0.15625,0.27344 -0.42968,0.46875 -0.25391,0.19531 -0.58594,0.19531 z m -29.72656,-2.5 27.65625,0 -13.82813,-24.49219 -13.82812,24.49219 z m 15.64453,-7.10937 -3.63281,0 0,-10.83985 3.63281,0 0,10.83985 z m 0.54687,3.55468 q 0,0.50782 -0.19531,0.9375 -0.17578,0.42969 -0.50781,0.76172 -0.3125,0.3125 -0.74219,0.50782 -0.42969,0.17578 -0.91797,0.17578 -0.48828,0 -0.91797,-0.17578 -0.42968,-0.19532 -0.74218,-0.50782 -0.3125,-0.33203 -0.48829,-0.76172 -0.17578,-0.42968 -0.17578,-0.9375 0,-0.48828 0.17578,-0.9375 0.17579,-0.44921 0.48829,-0.76171 0.3125,-0.33204 0.74218,-0.52735 0.42969,-0.19531 0.91797,-0.19531 0.48828,0 0.91797,0.19531 0.42969,0.19531 0.74219,0.52735 0.33203,0.3125 0.50781,0.76171 0.19531,0.44922 0.19531,0.9375 z"
         id="path6398"
         inkscape:connector-curvature="0" />
    </g>
  </g>
</svg>
