<?xml version="1.0" encoding="UTF-8" standalone="no"?>
<!-- Created with Inkscape (http://www.inkscape.org/) -->

<svg
   xmlns:dc="http://purl.org/dc/elements/1.1/"
   xmlns:cc="http://creativecommons.org/ns#"
   xmlns:rdf="http://www.w3.org/1999/02/22-rdf-syntax-ns#"
   xmlns:svg="http://www.w3.org/2000/svg"
   xmlns="http://www.w3.org/2000/svg"
   xmlns:sodipodi="http://sodipodi.sourceforge.net/DTD/sodipodi-0.dtd"
   xmlns:inkscape="http://www.inkscape.org/namespaces/inkscape"
   width="100"
   height="400"
   viewBox="0 0 100 400"
   id="svg2"
   version="1.1"
   inkscape:version="0.92.0 r15299"
   sodipodi:docname="street urchin.svg">
  <defs
     id="defs4" />
  <sodipodi:namedview
     id="base"
     pagecolor="#ffffff"
     bordercolor="#666666"
     borderopacity="1.0"
     inkscape:pageopacity="0.0"
     inkscape:pageshadow="2"
     inkscape:zoom="0.98994949"
     inkscape:cx="267.17088"
     inkscape:cy="311.14364"
     inkscape:document-units="px"
     inkscape:current-layer="layer1"
     showgrid="false"
     units="px"
     inkscape:window-width="1920"
     inkscape:window-height="1017"
     inkscape:window-x="-8"
     inkscape:window-y="-8"
     inkscape:window-maximized="1"
     showguides="false"
     inkscape:guide-bbox="true">
    <sodipodi:guide
       position="-382.85715,760"
       orientation="0,1"
       id="guide4139"
       inkscape:label=""
       inkscape:color="rgb(0,0,255)"
       inkscape:locked="false" />
    <sodipodi:guide
       position="-65.714287,260"
       orientation="0,1"
       id="guide4141"
       inkscape:label=""
       inkscape:color="rgb(0,0,255)"
       inkscape:locked="false" />
    <sodipodi:guide
       position="75.000001,582.85714"
       orientation="1,0"
       id="guide4143"
       inkscape:label=""
       inkscape:color="rgb(0,0,255)"
       inkscape:locked="false" />
  </sodipodi:namedview>
  <metadata
     id="metadata7">
    <rdf:RDF>
      <cc:Work
         rdf:about="">
        <dc:format>image/svg+xml</dc:format>
        <dc:type
           rdf:resource="http://purl.org/dc/dcmitype/StillImage" />
        <dc:title></dc:title>
      </cc:Work>
    </rdf:RDF>
  </metadata>
  <g
     inkscape:label="Layer 1"
     inkscape:groupmode="layer"
     id="layer1"
     transform="translate(0,-652.36216)">
    <path
       id="path2991"
       d="m 46.09223,884.47815 c -0.812009,-0.2711 -1.894683,-0.54224 -2.571352,-0.81334 -0.541335,-0.27114 -1.624009,-0.54223 -2.436013,-0.81338 -0.94734,-0.27109 -2.571353,-0.94888 -4.330696,-1.49111 -1.353339,-0.54224 -3.654022,-1.35557 -4.736696,-1.62672 -0.812004,-0.27109 -2.300678,-0.81333 -2.842013,-1.21997 -1.624013,-0.81338 -5.278035,-3.38897 -5.548704,-3.66007 0,-0.27114 0,-0.81338 0,-1.35562 0.270669,-0.81333 0,-1.35557 -0.947344,-3.11783 -0.811995,-2.03335 -1.08267,-2.30445 -0.811995,-2.84669 0.27066,-0.27114 0.27066,-0.54223 0.27066,-0.81337 -0.27066,-0.2711 -0.27066,-1.08443 -0.27066,-1.76222 0,-0.27114 0,-1.62671 0,-2.44004 0,-1.49117 -0.270675,-2.3045 -1.353344,-4.60895 -0.676679,-1.35562 -1.488674,-3.38897 -1.488674,-3.93121 0,-0.81333 -0.541334,-1.62667 -0.812009,-1.89781 -0.270674,-0.67778 -0.541334,-1.22002 -0.541334,-3.38893 0,-2.5756 -0.541335,-4.60897 -1.759348,-7.7268 -0.270675,-1.35557 -0.541335,-2.44003 -0.541335,-5.55786 0,-5.1512 -0.54133,-6.23567 -1.624018,-6.50679 -1.217997,0 -1.488676,-1.49113 -1.759331,-5.15117 -0.270679,-1.35559 -0.541335,-3.38895 -0.812009,-4.2023 -0.541335,-2.30448 -0.541335,-3.11783 0.270674,-4.47341 0.541335,-1.49113 0.81199,-2.03336 0.81199,-3.66006 0,-0.9489 -0.270655,-0.9489 -0.81199,-0.9489 -0.812009,0 -0.812009,-0.27112 -0.270674,-1.35558 0.270674,-0.81335 0.270674,-1.08446 0,-2.03337 -0.541335,-0.81334 -0.541335,-1.08446 0.270674,-1.8978 0.270656,-0.54224 0.541335,-0.81335 0.270656,-1.49114 -0.270656,-0.27111 -0.270656,-0.54223 0,-1.08446 0.270679,-0.54223 0.812013,-1.35558 1.35335,-2.03337 0,-0.54223 0.406004,-0.81334 0.67666,-1.35558 -0.270656,0 -0.67666,-0.27111 -0.947341,-0.54223 -0.541335,-0.54223 -0.81199,-0.81335 -0.541335,-1.49113 0,-0.27112 0.406009,-0.9489 0.541335,-1.22002 0.270681,-0.81335 0,-2.03337 -0.405986,-3.5245 -0.406004,-1.08447 1.082671,-1.6267 1.89468,-2.30449 0.270656,-0.54223 0.541335,-2.16892 1.082665,-3.93117 0.541335,-5.01564 0.812009,-6.23566 1.759348,-7.32012 0.541335,-0.81334 0.811995,-1.35558 0.811995,-3.38895 0.270674,-1.35557 0.541349,-2.84671 0.541349,-2.84671 0,-0.27111 0.27066,-1.35557 0.27066,-2.5756 -0.27066,-2.44004 0.812009,-6.77788 2.030009,-8.13346 0.270674,-0.54223 0.812008,-1.62669 1.353343,-2.5756 0.812009,-1.62669 3.654026,-3.66005 6.496044,-4.74452 1.082674,-0.54223 2.030013,-1.08446 2.571348,-1.76225 1.082674,-1.35558 1.624008,-2.71116 1.353343,-3.38895 -0.270669,-2.16892 1.353339,-4.33784 0.812005,-5.28675 -0.54134,-0.27111 -2.977353,-0.27111 -3.383352,-0.81334 -0.27067,-1.22002 -0.54134,-1.49114 -1.624014,-2.03337 -1.353339,-0.81335 -0.947339,-1.49114 -1.759343,-4.88008 -0.27067,-1.08446 -1.218009,-2.84671 -1.353344,-4.06673 -0.13533,-1.35558 -1.353339,-2.30448 -1.353339,-2.30448 0,-0.27112 0,-0.67779 -0.406004,-1.22002 -0.13533,-0.40668 -0.812009,-1.08447 -0.812009,-1.62669 0,-1.22003 0,-1.22003 -0.541335,-1.22003 -4.466021,0.67779 -4.736696,0.67779 -6.225369,-0.27111 -1.353344,-0.81335 -1.624,-1.35558 -1.624,-2.44004 -0.270674,-1.49113 2.165334,-3.11783 5.278026,-4.33785 2.030008,-0.54223 2.030008,-0.54223 2.030008,-1.62669 0.270675,-0.54224 0,-1.49114 -0.27066,-2.30449 -0.812009,-1.35557 -1.488688,-4.4734 -1.488688,-7.86235 0,-2.30448 0,-2.30448 0.94734,-3.11782 1.082683,-1.08447 3.112691,-2.30449 5.278039,-2.84671 0.947339,0 2.571348,-0.81336 4.330691,-1.35558 4.195361,-2.03337 8.120048,-2.30449 11.503405,-0.94891 2.300678,1.22002 2.842017,2.03337 4.736696,5.96454 0.676669,1.22002 1.218008,2.30448 1.759343,3.38895 1.082674,0 2.300685,0 3.383359,0 2.842017,0 3.383352,0 4.195356,0.54223 1.488678,0.9489 2.030013,2.03337 2.300683,3.38894 0,1.49114 -0.812005,3.38895 -1.488679,4.33785 -0.541334,0.54223 -0.812004,2.71115 -0.541334,3.38894 0.270665,0 0.541334,1.08446 0.541334,1.89782 0.27067,1.76225 0,2.03336 -1.624008,3.38894 -0.541335,0.27111 -0.812005,0.54223 -0.812005,2.03337 0,1.35557 -0.270669,2.16892 -1.218008,3.93117 -1.082674,2.03337 -1.082674,2.5756 -1.082674,4.4734 0.270669,3.93118 0.947339,3.5245 3.924691,5.1512 1.759343,1.62669 4.195361,3.11783 7.308043,4.20229 3.654027,1.35558 6.496044,2.03337 8.796722,2.30448 3.383357,0 5.007366,1.08446 7.578714,6.23566 1.488678,2.71115 2.030013,4.20229 2.571352,7.32012 0.541335,2.16892 1.353339,5.28675 1.894678,7.049 0.406,1.6267 0.947339,4.20229 1.488674,5.96454 0.27067,1.35558 1.082674,4.47341 1.624009,6.1001 1.488678,3.66006 2.030013,5.96455 2.300682,8.26902 0,0.54224 0.541335,1.6267 1.082674,2.16893 1.759344,2.30448 2.030009,3.11783 2.030009,9.35349 0,4.88007 0,5.96453 -0.541335,6.50677 -0.541335,1.08446 -3.654022,3.66006 -5.1427,4.4734 -1.894674,0.94891 -5.27803,5.69343 -5.27803,7.72679 -0.27067,0.81335 -2.300683,3.11783 -4.601361,4.2023 -1.082674,0.54223 -2.165348,1.35558 -2.706683,1.62668 -0.676674,0.6778 -2.030013,1.22003 -3.112687,1.49115 -1.759343,0.81333 -2.030013,0.81333 -2.571348,1.8978 -0.270669,0.6778 -0.541339,0.94892 -1.082674,1.22001 -0.676669,0.27112 -0.947339,0.27112 -0.947339,2.16894 0,1.22001 0,4.88008 -0.270669,8.26903 -0.270665,9.35348 -0.270665,16.94472 0.541339,20.06255 0.676669,3.11783 0.676669,4.4734 -0.541339,10.98015 -0.541335,3.38897 -0.541335,4.20231 -0.270665,6.50681 0.270665,4.2023 0.270665,6.50675 -0.27067,7.04899 -0.541339,0.81333 -0.541339,0.81333 -3.924692,0.54224 -4.466026,-0.2711 -11.90941,-0.2711 -13.262749,0 -0.812005,0 -2.030013,0 -2.571348,0 z"
       style="opacity:0.6;fill:#000000;fill-opacity:1;fill-rule:evenodd;stroke:none;stroke-width:1"
       inkscape:connector-curvature="0"
       inkscape:export-filename="G:\apmeneel\Documents\Board Games\Masters of the Heist\decks\svg\crew\png\veteran.png"
       inkscape:export-xdpi="65.459999"
       inkscape:export-ydpi="65.459999" />
  </g>
</svg>
